<?xml version="1.0" encoding="utf-8"?>
<!-- Generator: Adobe Illustrator 19.0.0, SVG Export Plug-In . SVG Version: 6.00 Build 0)  -->
<svg version="1.1" id="Layer_1" xmlns="http://www.w3.org/2000/svg" xmlns:xlink="http://www.w3.org/1999/xlink" x="0px" y="0px"
	 viewBox="169 -17 638 134" style="enable-background:new 169 -17 638 134;" xml:space="preserve">
<style type="text/css">
	.st0{fill:#26B15D;}
</style>
<title>Easypaisa app logo vector</title>
<g>
	<path d="M403,88.9c12.2,15.1,23.8,14.8,33.2,10.7c8.6-3.8,13.1-13.9,11.6-25.2c-0.2,0.1-0.6,0.1-0.6,0.3
		C441.7,88.1,427.8,90,416.9,87c-9.7-2.6-14.7-9.6-16.2-19.2c-0.5-3.5-0.8-7.1-0.8-10.7c-0.1-14.5,0-28.9,0-43.7h17.3
		c0.1,1.3,0.2,2.7,0.2,4.1c0,11.8,0,23.6,0,35.4c0,2.5,0.2,5,0.6,7.5c1.4,9.4,7.2,13.1,16.6,10.6c7.6-2,12.7-9,13.2-19.3
		c0.5-11,0.4-22,0.5-33c0-1.7,0-3.4,0-5.4h16.8c0.2,0.6,0.3,1.2,0.4,1.9c0,21.5,0.5,43-0.2,64.5c-0.9,25.4-22.5,40.9-47.5,35
		c-8.3-2-15.9-5.3-21.9-11.6c-1.8-1.9-2.1-3.3-0.2-5.4C398.3,95.1,400.4,92.1,403,88.9z"/>
	<path d="M298.8,14.2v11c-5.4-7.8-13.1-12.7-21.7-12.7c-16.1,0-29.2,17.3-29.2,38.6s13.1,38.6,29.2,38.6c8.6,0,16.3-4.9,21.7-12.7
		v12.7h17.6V14.2H298.8z M282.1,73.8c-9.5,0-17.3-10.2-17.3-22.8s7.7-22.8,17.3-22.8s17.3,10.2,17.3,22.8S291.7,73.8,282.1,73.8z"/>
	<path d="M605.4,14.2v11c-5.3-7.8-13.1-12.7-21.7-12.7c-16.1,0-29.2,17.3-29.2,38.6s13.1,38.6,29.2,38.6c8.6,0,16.3-4.9,21.7-12.7
		v12.7H623V14.2H605.4z M588.8,73.8c-9.5,0-17.3-10.2-17.3-22.8s7.7-22.8,17.3-22.8s17.3,10.2,17.3,22.8S598.3,73.8,588.8,73.8z"/>
	<path d="M789.4,14.2v11c-5.3-7.8-13.1-12.7-21.7-12.7c-16.1,0-29.2,17.3-29.2,38.6s13.1,38.6,29.2,38.6c8.6,0,16.3-4.9,21.7-12.7
		v12.7H807V14.2H789.4z M772.8,73.8c-9.5,0-17.3-10.2-17.3-22.8s7.7-22.8,17.3-22.8s17.3,10.2,17.3,22.8S782.3,73.8,772.8,73.8z"/>
	<rect x="636" y="12.5" width="18" height="77.2"/>
	<circle class="st0" cx="645" cy="-5.9" r="11.1"/>
	<path d="M518.2,13.7c-8.4,0-16,4.4-21.4,11.5V12.5h-17.7V117h17.7V78.3c5.4,7.1,13,11.5,21.4,11.5c16.5,0,29.9-17,29.9-38
		S534.7,13.7,518.2,13.7z M513.2,73.8c-7.5,0-13.8-5.7-16.4-13.9V43.7c2.6-8.1,9-13.9,16.4-13.9c9.8,0,17.7,9.8,17.7,22
		S522.9,73.8,513.2,73.8L513.2,73.8z"/>
	<path d="M377.2,39.8L377.2,39.8l12.6-6.6c-0.2-5.8-4.1-11.1-9-14.2s-10.8-4.4-16.7-5c-9.4-1-19.5-0.2-27.2,5.1s-12.3,16.3-7.9,24.6
		c3.6,6.9,11.6,10.1,19.2,11.5s15.6,1.9,22.4,5.4c1.7,0.9,3.5,2.2,3.6,4.1s-1.2,3.4-2.5,4.6c-9,7.5-22.4,6.3-29.9-2.7
		c-2.1-2.6-3.7-5.6-4.4-8.9l-13.9,7.3c-2.9,1.6,7.9,15,9.3,16.2c10.3,9,25.8,10.4,38.5,6.2c8.9-3,17.3-9.6,19.1-18.8
		c1.1-5.9-0.6-12-4.6-16.5c-4.3-4.7-10.6-6.9-16.9-8.2s-12.6-1.7-18.7-3.6c-2.6-0.8-5.6-2.6-5.5-5.4c0.1-2.5,2.9-4.1,5.3-4.9
		c5.1-1.7,10.7-2.4,15.9-0.9S375.8,34.7,377.2,39.8z"/>
	<path d="M717,39.8L717,39.8l12.6-6.6c-0.2-5.8-4.1-11.1-9-14.2s-10.8-4.4-16.7-5c-9.4-1-19.5-0.2-27.2,5.1s-12.3,16.3-7.9,24.6
		c3.6,6.9,11.6,10.1,19.2,11.5s15.6,1.9,22.4,5.4c1.7,0.9,3.5,2.2,3.6,4.1s-1.2,3.4-2.5,4.6c-9,7.5-22.4,6.3-29.9-2.7
		c-2.1-2.6-3.7-5.6-4.4-8.9l-13.9,7.3c-2.9,1.6,7.9,15,9.3,16.2c10.3,9,25.8,10.4,38.5,6.2c8.9-3,17.3-9.6,19.1-18.8
		c1.1-5.9-0.6-12-4.7-16.5c-4.3-4.7-10.6-6.9-16.9-8.2S696,42.3,690,40.4c-2.6-0.8-5.6-2.6-5.5-5.4c0.1-2.5,2.9-4.1,5.3-4.9
		c5.1-1.7,10.7-2.4,15.9-0.9S715.6,34.7,717,39.8z"/>
	<path d="M232.9,25.6c0,0-13.1-20-41.5-10c0,0-15.4,4.2-22.3,28.8c0,0,14.2,22.7,48.8,15.4C217.9,59.8,247.5,52.1,232.9,25.6z
		 M214.3,45.6c-5.8,2.7-14.6,2-20.7,0.4c-0.4-0.1-8.3-2.9-7.9-3.6c5.8-10.7,20.9-20.5,31.4-9.6c1.1,1,1.9,2.4,2.3,3.8
		C220.3,40.4,217.6,44.1,214.3,45.6L214.3,45.6z"/>
	<path class="st0" d="M169.2,51.8c0,0-3.4,26.8,21.5,35.6s44.5-7.3,50.3-17.3l-14.2-8.4c0,0-11.1,23-43,8.1
		C183.8,69.8,172.2,63,169.2,51.8z"/>
</g>
</svg>
