<?xml version="1.0" encoding="utf-8"?>
<!-- Generator: Adobe Illustrator 27.5.0, SVG Export Plug-In . SVG Version: 6.00 Build 0)  -->
<svg version="1.1" id="Ñëîé_1" xmlns="http://www.w3.org/2000/svg" xmlns:xlink="http://www.w3.org/1999/xlink" x="0px" y="0px"
	 viewBox="0 0 2600 2000" style="enable-background:new 0 0 2600 2000;" xml:space="preserve">
<rect id="_x31_2" style="fill:#FFFFFF;" width="2600" height="2000"/>
<g>
	<g id="_x31_1">
		<path style="fill:#CFDDF9;" d="M139.348,1657.327c0,0-1.789,53.863,65.652,67.673c92.247,18.89,601.043,67.131,469.5,104.844
			c-74.256,21.289,57.821,49.148,419.504,59.793s982.303-31.064,773.598-92.776c-208.705-61.713,591.398-9.86,592.1-139.533H139.348
			z"/>
		<path style="fill:#D4E8FF;" d="M548.85,1652.959c0,0-262.191-740.888-65.6-898.517c131.402-105.36,259.691,159.901,425.931,37.03
			c148-109.39,52.326-366.485,197.352-488.199c208.539-175.017,473.269,600.893,681.245,484.169
			c327.155-183.61,527.155,106.042,299.976,866.868L548.85,1652.959z"/>
		<path style="fill:#DCE6FF;" d="M335.105,1592.269c-4.586-14.071-9.124-28.652-13.486-43.335l10.751-3.202
			c4.334,14.589,8.842,29.074,13.397,43.051L335.105,1592.269z M2258.471,1574.097l-11.132-1.376
			c1.848-14.979,3.603-30.064,5.217-44.836l11.15,1.222C2262.087,1543.93,2260.325,1559.067,2258.471,1574.097z M309.237,1505.283
			c-3.926-14.512-7.733-29.294-11.317-43.934l10.894-2.673c3.562,14.553,7.347,29.246,11.249,43.671L309.237,1505.283z
			 M2268.298,1484.041l-11.166-1.057c1.419-15.039,2.733-30.167,3.906-44.963l11.181,0.887
			C2271.043,1453.761,2269.723,1468.946,2268.298,1484.041z M287.671,1417.156c-3.24-14.785-6.322-29.734-9.162-44.434l11.013-2.132
			c2.822,14.608,5.886,29.466,9.105,44.159L287.671,1417.156z M2275.438,1393.716l-11.194-0.709
			c0.95-15.028,1.783-30.188,2.474-45.056l11.204,0.523C2277.228,1363.404,2276.392,1378.625,2275.438,1393.716z M270.471,1328.068
			c-2.495-14.966-4.804-30.057-6.863-44.855l11.109-1.55c2.046,14.699,4.341,29.689,6.818,44.557L270.471,1328.068z
			 M2279.635,1303.191l-11.212-0.326c0.438-15.095,0.739-30.271,0.897-45.105l11.216,0.119
			C2280.377,1272.781,2280.075,1288.027,2279.635,1303.191z M257.979,1238.176c-1.672-15.116-3.128-30.319-4.326-45.187l11.18-0.904
			c1.19,14.757,2.634,29.848,4.295,44.854L257.979,1238.176z M2269.366,1212.651c-0.132-15.107-0.419-30.277-0.852-45.092
			l11.212-0.328c0.435,14.891,0.723,30.138,0.856,45.321L2269.366,1212.651z M250.712,1147.684
			c-0.744-15.205-1.237-30.471-1.467-45.374l11.215-0.174c0.227,14.778,0.716,29.918,1.454,44.998L250.712,1147.684z
			 M2266.711,1122.508c-0.77-15.086-1.717-30.224-2.814-44.992l11.185-0.833c1.104,14.854,2.056,30.079,2.831,45.252
			L2266.711,1122.508z M260.567,1057.12l-11.214-0.231c0.313-15.245,0.915-30.516,1.79-45.386l11.198,0.661
			C261.472,1026.892,260.875,1042.017,260.567,1057.12z M2260.006,1032.614c-1.499-15.084-3.195-30.149-5.043-44.778l11.128-1.409
			c1.86,14.727,3.567,29.893,5.076,45.075L2260.006,1032.614z M265.897,967.327l-11.161-1.122
			c1.524-15.188,3.381-30.369,5.521-45.12l11.1,1.615C269.241,937.288,267.404,952.303,265.897,967.327z M2248.684,943.229
			c-2.334-14.989-4.896-29.921-7.614-44.381l11.022-2.078c2.742,14.576,5.324,29.625,7.675,44.73L2248.684,943.229z
			 M922.125,941.644c-15.586-2.461-26.859-9.565-42.476-21.833l7.089-8.703c13.681,10.719,23.561,17.15,36.581,19.369
			L922.125,941.644z M961.041,914.922l-9.989-5.108c5.135-10.068,9.673-24.039,13.492-41.526l10.957,2.398
			C971.421,889.373,966.691,903.843,961.041,914.922z M846.731,887.598c-8.935-9.964-18.484-21.431-29.192-35.057l8.814-6.946
			c10.557,13.433,19.952,24.718,28.724,34.498L846.731,887.598z M278.85,878.387l-11.012-2.14
			c2.906-14.991,6.194-29.939,9.772-44.429l10.889,2.697C284.965,848.821,281.719,863.582,278.85,878.387z M2232.004,854.758
			c-3.321-14.834-6.905-29.54-10.65-43.71l10.844-2.873c3.781,14.307,7.397,29.154,10.749,44.127L2232.004,854.758z
			 M983.048,825.484l-11.124-1.433c1.722-13.406,3.267-28.087,4.72-44.882l11.175,0.97
			C986.351,797.09,984.791,811.922,983.048,825.484z M790.066,816.356c-9.118-12.33-18.574-25.363-26.723-36.61l9.08-6.595
			c8.133,11.226,17.57,24.232,26.658,36.522L790.066,816.356z M1611.256,815.432c-8.735,0-17.306-2.613-25.473-7.767l5.981-9.503
			c12.269,7.756,24.339,7.773,37.372,1.587l4.826,10.138C1626.255,813.567,1618.617,815.432,1611.256,815.432z M300.43,791.232
			l-10.726-3.284c4.457-14.593,9.346-29.107,14.533-43.138l10.519,3.898C309.643,762.537,304.824,776.845,300.43,791.232z
			 M1670.639,780.525l-8.241-7.619c8.504-9.223,17.621-20.6,27.871-34.782l9.087,6.586
			C1688.842,759.256,1679.449,770.971,1670.639,780.525z M1553.89,772.802c-7.259-11.213-14.452-24.418-21.991-40.369l10.138-4.805
			c7.324,15.496,14.28,28.274,21.266,39.064L1553.89,772.802z M2208.961,767.829c-4.518-14.552-9.34-28.878-14.33-42.579
			l10.538-3.849c5.052,13.87,9.932,28.368,14.504,43.093L2208.961,767.829z M736.762,743.128
			c-10.262-14.043-18.814-25.573-26.915-36.283l8.942-6.78c8.138,10.76,16.725,22.337,27.025,36.431L736.762,743.128z
			 M991.192,734.781l-11.193-0.725c0.85-13.159,1.715-27.949,2.644-45.215l11.2,0.604
			C992.912,706.752,992.045,721.581,991.192,734.781z M331.568,707.132l-10.262-4.535c6.157-13.964,12.719-27.676,19.691-41.085
			l9.946,5.192C344.083,679.898,337.628,693.39,331.568,707.132z M1725.052,707.13l-9.372-6.171
			c7.971-12.134,16.204-24.991,24.538-37.978l9.436,6.071C1741.3,682.073,1733.058,694.94,1725.052,707.13z M1513.843,690.519
			c-5.081-12.76-10.331-26.682-16.05-42.561l10.551-3.811c5.678,15.761,10.884,29.569,15.918,42.213L1513.843,690.519z
			 M2178.131,683.514c-6.03-14.065-12.409-27.729-18.96-40.61l9.996-5.096c6.66,13.098,13.144,26.985,19.271,41.275
			L2178.131,683.514z M682.153,671.256c-10.178-12.65-19.651-23.91-28.962-34.421l8.391-7.453
			c9.43,10.646,19.016,22.038,29.306,34.828L682.153,671.256z M996.178,644.138l-11.203-0.565
			c0.755-15.005,1.506-30.018,2.307-45.294l11.201,0.589C997.683,614.135,996.932,629.14,996.178,644.138z M1774.245,631.118
			l-9.358-6.193c9.372-14.199,17.753-26.482,25.625-37.549l9.136,6.515C1791.854,604.851,1783.544,617.028,1774.245,631.118z
			 M373.189,627.948l-9.454-6.045c8.814-13.822,17.902-26.307,27.012-37.105l8.569,7.247
			C390.526,602.465,381.736,614.544,373.189,627.948z M1482.817,605.098c-5.144-15.094-10.191-30.197-14.449-42.979l10.64-3.554
			c4.253,12.765,9.291,27.844,14.425,42.905L1482.817,605.098z M622.351,604.312c-11.464-11.177-22.737-21.05-33.504-29.346
			l6.84-8.901c11.11,8.56,22.714,18.721,34.488,30.199L622.351,604.312z M2137.394,603.832
			c-8.037-13.133-16.464-25.553-25.047-36.917l8.945-6.775c8.802,11.655,17.438,24.38,25.665,37.823L2137.394,603.832z
			 M430.775,561.489l-6.803-8.93c13.395-10.232,27.336-17.61,41.435-21.931l3.282,10.74
			C455.866,545.298,443.11,552.068,430.775,561.489z M1826.703,558.054l-8.714-7.072c10.519-12.997,20.487-24.18,30.472-34.189
			l7.934,7.938C1846.688,534.463,1836.975,545.363,1826.703,558.054z M1000.997,553.638L989.8,552.97
			c0.971-16.326,1.935-31.151,2.948-45.324l11.188,0.801C1002.927,522.575,1001.965,537.357,1000.997,553.638z M551.763,551.286
			c-13.996-6.974-27.763-11.426-40.918-13.231l1.522-11.128c14.366,1.971,29.302,6.783,44.393,14.303L551.763,551.286z
			 M2083.492,533.131c-10.798-11.078-21.979-20.857-33.231-29.063l6.604-9.079c11.758,8.576,23.417,18.769,34.654,30.297
			L2083.492,533.131z M1454.06,519.141c-5.58-16.711-10.178-30.336-14.471-42.881l10.609-3.641
			c4.304,12.572,8.911,26.222,14.499,42.96L1454.06,519.141z M1889.965,496.062l-6.429-9.203
			c13.794-9.664,27.727-16.821,41.413-21.271l3.464,10.682C1915.786,480.377,1902.85,487.036,1889.965,496.062z M2012.351,482.302
			c-13.892-5.867-27.954-9.498-41.795-10.793l1.042-11.183c14.984,1.402,30.162,5.314,45.111,11.628L2012.351,482.302z
			 M1007.524,463.355l-11.173-0.994c1.398-15.759,2.918-30.977,4.52-45.234l11.147,1.256
			C1010.426,432.553,1008.914,447.684,1007.524,463.355z M1424.665,433.542c-5.42-15.148-10.527-28.996-15.615-42.332l10.479-4.007
			c5.115,13.41,10.249,27.329,15.696,42.552L1424.665,433.542z M1017.729,373.598l-11.102-1.606
			c2.269-15.725,4.763-30.848,7.412-44.948l11.023,2.076C1022.442,343.065,1019.974,358.029,1017.729,373.598z M1392.387,349.274
			c-6.027-14.517-12.102-28.406-18.058-41.281l10.178-4.72c6.017,13.009,12.153,27.036,18.237,41.69L1392.387,349.274z
			 M1034.587,285.169l-10.883-2.722c3.912-15.684,8.225-30.456,12.819-43.909l10.613,3.634
			C1042.646,255.326,1038.423,269.792,1034.587,285.169z M1354.41,267.685c-7.377-13.912-14.913-26.973-22.398-38.819l9.478-6.006
			c7.636,12.086,15.316,25.394,22.828,39.557L1354.41,267.685z M1063.982,201.023l-10.058-4.971
			c7.365-14.942,15.532-28.155,24.276-39.27l8.811,6.95C1078.75,174.234,1071.002,186.78,1063.982,201.023z M1306.303,192.438
			c-9.801-12.303-19.916-23.201-30.066-32.392l7.524-8.33c10.598,9.597,21.132,20.941,31.311,33.718L1306.303,192.438z
			 M1118.304,134.621l-6.047-9.46c13.287-8.515,27.927-14.053,43.512-16.457l1.708,11.1
			C1143.446,121.969,1130.266,126.954,1118.304,134.621z M1240.848,134.614c-13.066-7.053-26.676-11.875-40.453-14.332l1.967-11.058
			c14.953,2.667,29.693,7.883,43.809,15.503L1240.848,134.614z"/>
		<path style="fill:#EEF7FF;" d="M2336.317,1259.629c-93.079-17.245-84.653,241.923-217.331,241.923
			c-121.307,0-186.22-579.034-319.337-461.266c-535.162,473.452-118.772-332.212-478.621-347.96
			c-162.714-7.121-271.138,209.744-311.121,593.713c-57.958,347.121-192.369-264.755-330.693-207.864
			c-87.912,36.157-77.844,423.377-199.151,423.377c-132.678,0-123.937-217.932-217.016-200.687
			c-100.215,18.567-123.699,356.462-123.699,356.462h2320.355C2459.702,1657.327,2436.532,1278.196,2336.317,1259.629z"/>
		<path style="fill:#DCE6FF;" d="M2247.127,1552.965c-85.63-6.115-71.657,49.128-193.718,49.128
			c-111.599,0-108.532-123.806-183.214-150.119c-137.529-48.456-250.911,196.784-304.23,73.703
			c-101.268-326.586-396.624-490.366-532.882,0c-53.32,123.08-178.007-96.539-304.23-73.703
			c-77.695,14.056-71.615,150.119-183.214,150.119c-122.06,0-108.087-55.243-193.717-49.128
			c-92.195,6.583-119.733,104.362-119.733,104.362h2134.67C2366.86,1657.327,2339.323,1559.548,2247.127,1552.965z"/>
	</g>
	<g id="_x31_0">
		<rect x="1847" y="192" style="fill:#F49F9F;" width="70.229" height="704"/>
		<rect x="2175.876" y="192" style="fill:#F49F9F;" width="70.229" height="704"/>
		<rect x="1917.229" y="192" style="fill:#F49F9F;" width="258.647" height="704"/>
		<rect x="1917.229" y="192" style="fill:#F9C0C0;" width="258.647" height="704"/>
		<rect x="1863.272" y="209.129" style="fill:#F9C0C0;" width="37.684" height="27.406"/>
		<rect x="1864.068" y="851.465" style="fill:#F9C0C0;" width="37.684" height="27.406"/>
		<rect x="1864.007" y="805.584" style="fill:#F9C0C0;" width="37.684" height="27.406"/>
		<rect x="1863.945" y="759.703" style="fill:#F9C0C0;" width="37.684" height="27.406"/>
		<rect x="1863.884" y="667.94" style="fill:#F9C0C0;" width="37.684" height="27.406"/>
		<rect x="1863.823" y="255.01" style="fill:#F9C0C0;" width="37.684" height="27.406"/>
		<rect x="1863.762" y="713.821" style="fill:#F9C0C0;" width="37.684" height="27.406"/>
		<rect x="1863.701" y="576.178" style="fill:#F9C0C0;" width="37.684" height="27.406"/>
		<rect x="1863.64" y="484.416" style="fill:#F9C0C0;" width="37.684" height="27.406"/>
		<rect x="1863.578" y="392.654" style="fill:#F9C0C0;" width="37.684" height="27.406"/>
		<rect x="1863.517" y="300.891" style="fill:#F9C0C0;" width="37.684" height="27.406"/>
		<rect x="1863.456" y="622.059" style="fill:#F9C0C0;" width="37.684" height="27.406"/>
		<rect x="1863.395" y="530.297" style="fill:#F9C0C0;" width="37.684" height="27.406"/>
		<rect x="1863.334" y="438.535" style="fill:#F9C0C0;" width="37.684" height="27.406"/>
		<rect x="1864.129" y="346.772" style="fill:#F9C0C0;" width="37.684" height="27.406"/>
		<rect x="2192.148" y="209.129" style="fill:#F9C0C0;" width="37.684" height="27.406"/>
		<rect x="2192.944" y="851.465" style="fill:#F9C0C0;" width="37.684" height="27.406"/>
		<rect x="2192.883" y="805.584" style="fill:#F9C0C0;" width="37.684" height="27.406"/>
		<rect x="2192.821" y="759.703" style="fill:#F9C0C0;" width="37.684" height="27.406"/>
		<rect x="2192.76" y="667.94" style="fill:#F9C0C0;" width="37.684" height="27.406"/>
		<rect x="2192.699" y="255.01" style="fill:#F9C0C0;" width="37.684" height="27.406"/>
		<rect x="2192.638" y="713.821" style="fill:#F9C0C0;" width="37.684" height="27.406"/>
		<rect x="2192.577" y="576.178" style="fill:#F9C0C0;" width="37.684" height="27.406"/>
		<rect x="2192.515" y="484.416" style="fill:#F9C0C0;" width="37.684" height="27.406"/>
		<rect x="2192.454" y="392.654" style="fill:#F9C0C0;" width="37.684" height="27.406"/>
		<rect x="2192.393" y="300.891" style="fill:#F9C0C0;" width="37.684" height="27.406"/>
		<rect x="2192.332" y="622.059" style="fill:#F9C0C0;" width="37.684" height="27.406"/>
		<rect x="2192.271" y="530.297" style="fill:#F9C0C0;" width="37.684" height="27.406"/>
		<rect x="2192.21" y="438.535" style="fill:#F9C0C0;" width="37.684" height="27.406"/>
		<rect x="2193.005" y="346.772" style="fill:#F9C0C0;" width="37.684" height="27.406"/>
		<rect x="1901.813" y="419.815" style="fill:#F49F9F;" width="291.192" height="18.842"/>
		<rect x="1901.813" y="649.343" style="fill:#F49F9F;" width="291.192" height="18.842"/>
	</g>
	<path id="_x39_" style="fill:#3A72AA;" d="M486.462,319.544c-90.274,29.568-139.486,126.719-109.918,216.993
		c29.568,90.274,126.719,139.486,216.993,109.918c90.274-29.568,139.486-126.719,109.918-216.993
		C673.888,339.188,576.736,289.976,486.462,319.544z M479.639,600.395c-20.939,6.858-43.473-4.556-50.331-25.495
		c-6.858-20.939,4.556-43.473,25.495-50.331c20.939-6.858,43.473,4.556,50.331,25.495
		C511.992,571.003,500.577,593.537,479.639,600.395z M447.432,500.25c-20.939,6.858-43.473-4.556-50.331-25.495
		c-6.858-20.939,4.556-43.473,25.495-50.331c20.939-6.858,43.473,4.556,50.331,25.495
		C479.785,470.858,468.37,493.392,447.432,500.25z M585.695,621.302c-20.939,6.858-43.473-4.556-50.331-25.495
		c-6.858-20.939,4.556-43.473,25.495-50.331c20.939-6.858,43.473,4.556,50.331,25.495
		C618.048,591.909,606.634,614.443,585.695,621.302z M519.856,420.29c-20.939,6.858-43.473-4.556-50.331-25.495
		c-6.858-20.939,4.556-43.473,25.495-50.331c20.939-6.858,43.473,4.556,50.331,25.495
		C552.21,390.898,540.795,413.432,519.856,420.29z M599.994,367.508c20.939-6.858,43.473,4.556,50.331,25.495
		c6.858,20.939-4.556,43.473-25.495,50.331c-20.939,6.858-43.473-4.556-50.331-25.495
		C567.641,396.9,579.055,374.366,599.994,367.508z M657.882,541.221c-20.939,6.858-43.473-4.556-50.331-25.495
		c-6.858-20.939,4.556-43.473,25.495-50.331c20.939-6.858,43.473,4.556,50.331,25.495
		C690.235,511.829,678.821,534.363,657.882,541.221z"/>
	<g id="_x38_">
		<path style="fill:#EB5648;" d="M1315.885,564.609l44.518-69.738l-40.037-25.559c4.791-14.451,7.521-29.303,8.281-44.155
			l46.873-10.346l-17.833-80.792l-45.109,9.957c-7.4-15.649-17.248-30.262-29.413-43.201l26.288-41.181l-69.738-44.518
			l-26.289,41.181c-15.656-5.19-31.783-7.96-47.87-8.428l-9.367-42.439l-80.792,17.833l9.367,42.438
			c-14.395,7.197-27.857,16.498-39.874,27.796l-40.038-25.559l-44.518,69.738l40.037,25.559
			c-5.588,16.857-8.369,34.258-8.494,51.568l-45.109,9.957l17.833,80.792l46.873-10.346c6.942,13.151,15.67,25.474,26.098,36.566
			l-26.288,41.181l69.738,44.518l26.288-41.181c15.656,5.19,31.783,7.96,47.87,8.429l10.918,49.462l80.792-17.833l-10.918-49.462
			c14.395-7.197,27.857-16.498,39.875-27.796L1315.885,564.609z M1123.946,482.492c-86.44-48.213-13.893-179.533,72.852-132.47
			C1283.233,398.233,1210.687,529.552,1123.946,482.492z"/>
		<path style="fill:#7689D6;" d="M2435.704,1126.083l3.181-15.777l-13.944-2.812c1.305-11.327,0.524-22.489-2.064-33.066
			l13.465-4.531l-5.133-15.254l-13.478,4.536c-4.442-10.196-10.655-19.547-18.333-27.593l9.404-10.667l-12.073-10.643l-9.395,10.657
			c-8.748-6.485-18.735-11.53-29.682-14.716l2.812-13.943l-15.777-3.181l-2.812,13.943c-11.327-1.305-22.489-0.524-33.066,2.064
			l-4.531-13.465l-15.254,5.134l4.536,13.478c-10.196,4.442-19.546,10.654-27.593,18.332l-10.667-9.404l-10.644,12.073l10.657,9.395
			c-6.485,8.748-11.53,18.735-14.716,29.682l-13.943-2.812l-3.181,15.777l13.943,2.812c-1.305,11.327-0.524,22.489,2.064,33.066
			l-13.465,4.531l5.134,15.254l13.478-4.536c4.442,10.196,10.655,19.547,18.333,27.593l-9.404,10.667l12.073,10.643l9.395-10.657
			c8.748,6.484,18.735,11.53,29.682,14.716l-2.812,13.943l15.777,3.181l2.812-13.943c11.327,1.305,22.489,0.524,33.066-2.064
			l4.531,13.465l15.254-5.133l-4.536-13.478c10.196-4.442,19.546-10.655,27.593-18.333l10.667,9.404l10.644-12.073l-10.657-9.395
			c6.485-8.748,11.53-18.735,14.717-29.682L2435.704,1126.083z M2319.053,1156.938c-78.783-17.291-55.06-134.881,24.256-120.281
			C2422.089,1053.947,2398.365,1171.538,2319.053,1156.938z"/>
		<path style="fill:#F9C0C0;" d="M448.546,992.094l3.733-19.221l-14.722-2.859c0.046-3.11-0.162-6.183-0.628-9.191l14.164-4.879
			l-6.377-18.513l-14.182,4.885c-1.502-2.682-3.224-5.235-5.149-7.632l9.839-11.322l-14.78-12.844l-9.826,11.307
			c-2.615-1.558-5.387-2.901-8.287-4.023l2.859-14.722l-19.221-3.734l-2.859,14.722c-3.11-0.045-6.183,0.162-9.191,0.628
			l-4.879-14.163l-18.513,6.377l4.885,14.182c-2.682,1.502-5.235,3.224-7.632,5.149l-11.322-9.839l-12.844,14.78l11.307,9.826
			c-1.558,2.615-2.901,5.387-4.023,8.287l-14.722-2.86l-3.734,19.221l14.722,2.859c-0.046,3.11,0.162,6.183,0.628,9.191
			l-14.164,4.879l6.378,18.513l14.182-4.885c1.502,2.682,3.224,5.235,5.149,7.631l-9.839,11.322l14.78,12.844l9.826-11.307
			c2.615,1.558,5.387,2.901,8.287,4.023l-2.86,14.722l19.221,3.733l2.86-14.722c3.11,0.046,6.183-0.162,9.191-0.628l4.879,14.164
			l18.513-6.377l-4.885-14.182c2.682-1.502,5.235-3.224,7.632-5.149l11.322,9.839l12.844-14.779l-11.307-9.827
			c1.558-2.615,2.901-5.387,4.023-8.287L448.546,992.094z M377.098,996.364c-35.503-7.527-25.205-60.511,10.528-54.196
			C423.128,949.694,412.83,1002.678,377.098,996.364z"/>
	</g>
	<g id="_x37_">
		<rect x="1161.574" y="1386.054" style="fill:#255084;" width="274.3" height="248.443"/>
		<rect x="1161.574" y="1240.244" style="fill:#1D3F70;" width="274.3" height="282.174"/>
		<path style="fill:#1D3F70;" d="M1719.011,1683.16H878.436c-16.873,0-30.551-13.678-30.551-30.551l0,0
			c0-16.873,13.678-30.551,30.551-30.551h840.575c16.873,0,30.551,13.678,30.551,30.551l0,0
			C1749.563,1669.482,1735.884,1683.16,1719.011,1683.16z"/>
		<path style="fill:#255084;" d="M526.252,1419.829V518.847c0-34.245,27.761-62.007,62.007-62.007h1423.484
			c34.245,0,62.006,27.761,62.006,62.007v900.982c0,34.245-27.761,62.006-62.006,62.006H588.258
			C554.013,1481.835,526.252,1454.074,526.252,1419.829z"/>
		<rect x="585.575" y="516.369" style="fill:#FFFFFF;" width="1426.3" height="833.01"/>
		
			<ellipse transform="matrix(0.7071 -0.7071 0.7071 0.7071 -626.2001 1335.2783)" style="fill:#1D3F70;" cx="1298.723" cy="1423.53" rx="32.43" ry="32.43"/>
		<rect x="630.45" y="556.417" style="fill:#B0C7F5;" width="823.55" height="544.583"/>
		<rect x="630.45" y="1096.482" style="fill:#255084;" width="823.55" height="68.775"/>
		<path style="fill:#BFD2F9;" d="M1406.25,1135.613h-225.076c-2.637,0-4.775-2.123-4.775-4.743s2.138-4.743,4.775-4.743h225.076
			c2.637,0,4.775,2.123,4.775,4.743S1408.888,1135.613,1406.25,1135.613z"/>
		<path style="fill:#EB5648;" d="M1181.175,1135.613H706.85c-2.637,0-4.775-2.123-4.775-4.743s2.138-4.743,4.775-4.743h474.324
			c2.637,0,4.775,2.123,4.775,4.743S1183.812,1135.613,1181.175,1135.613z"/>
		<ellipse style="fill:#677CC1;" cx="1181.175" cy="1130.87" rx="15.289" ry="15.187"/>
		<path style="fill:#BFD2F9;" d="M659.1,1151.028c-2.637,0-4.775-2.123-4.775-4.743v-30.83c0-2.62,2.138-4.743,4.775-4.743
			c2.637,0,4.775,2.123,4.775,4.743v30.83C663.875,1148.905,661.737,1151.028,659.1,1151.028z"/>
		<path style="fill:#BFD2F9;" d="M676.325,1151.028c-2.637,0-4.775-2.123-4.775-4.743v-30.83c0-2.62,2.138-4.743,4.775-4.743
			c2.637,0,4.775,2.123,4.775,4.743v30.83C681.1,1148.905,678.962,1151.028,676.325,1151.028z"/>
		
			<ellipse transform="matrix(0.7071 -0.7071 0.7071 0.7071 -281.5301 977.7424)" style="fill:#FFFFFF;" cx="1039.474" cy="828.708" rx="121.194" ry="121.194"/>
		<path style="fill:#677CC1;" d="M1039.474,961.964c-73.477,0-133.256-59.778-133.256-133.256
			c0-73.477,59.779-133.255,133.256-133.255c73.478,0,133.256,59.778,133.256,133.255
			C1172.73,902.185,1112.952,961.964,1039.474,961.964z M1039.474,719.577c-60.175,0-109.132,48.956-109.132,109.131
			s48.957,109.132,109.132,109.132s109.132-48.957,109.132-109.132S1099.65,719.577,1039.474,719.577z"/>
		<polygon style="fill:#677CC1;" points="1110.841,828.708 997.093,763.036 997.093,894.38 		"/>
		<rect x="630" y="1190" style="fill:#B0C7F5;" width="133" height="133"/>
		<rect x="802.714" y="1190" style="fill:#B0C7F5;" width="133" height="133"/>
		<rect x="975.429" y="1190" style="fill:#B0C7F5;" width="133" height="133"/>
		<rect x="1148.143" y="1190" style="fill:#B0C7F5;" width="133" height="133"/>
		<rect x="1320.857" y="1190" style="fill:#B0C7F5;" width="133" height="133"/>
		<rect x="1493.571" y="1190" style="fill:#B0C7F5;" width="133" height="133"/>
		<rect x="1666.286" y="1190" style="fill:#B0C7F5;" width="133" height="133"/>
		<rect x="1839" y="1190" style="fill:#B0C7F5;" width="133" height="133"/>
		<rect x="1494" y="950" style="fill:#B0C7F5;" width="478" height="215"/>
		<rect x="1494" y="897" style="fill:#B0C7F5;" width="478" height="26"/>
		<rect x="1494" y="669.667" style="fill:#B0C7F5;" width="478" height="26"/>
		<rect x="1494" y="726.5" style="fill:#B0C7F5;" width="478" height="26"/>
		<rect x="1494" y="840.167" style="fill:#B0C7F5;" width="478" height="26"/>
		<rect x="1494" y="783.333" style="fill:#B0C7F5;" width="478" height="26"/>
		<rect x="1494" y="556" style="fill:#677CC1;" width="83" height="83"/>
		<rect x="1625.667" y="556" style="fill:#B0C7F5;" width="83" height="83"/>
		<rect x="1757.333" y="556" style="fill:#677CC1;" width="83" height="83"/>
		<rect x="1889" y="556" style="fill:#B0C7F5;" width="83" height="83"/>
	</g>
	<g id="_x36_">
		<rect x="1605.235" y="1415.638" style="fill:#4867AA;" width="623.208" height="34.091"/>
		<polygon style="fill:#395B96;" points="1551.534,1399.022 2282.143,1399.022 2282.143,1416.89 2240.631,1416.89 
			2240.631,1822.853 2224.48,1822.853 2224.48,1416.89 1609.197,1416.89 1609.197,1822.853 1593.046,1822.853 1593.046,1416.89 
			1551.534,1416.89 		"/>
	</g>
	<g id="_x35_">
		<rect x="1980.102" y="1340.241" style="fill:#255084;" width="43.278" height="46.552"/>
		<rect x="1980.102" y="1311.364" style="fill:#1D3F70;" width="43.278" height="55.884"/>
		<path style="fill:#1D3F70;" d="M2084.978,1398.894h-166.474c-3.342,0-6.051-2.709-6.051-6.051l0,0
			c0-3.342,2.709-6.051,6.051-6.051h166.474c3.342,0,6.051,2.709,6.051,6.051l0,0
			C2091.029,1396.185,2088.32,1398.894,2084.978,1398.894z"/>
		<path style="fill:#255084;" d="M1838.174,1346.06l6.056-191.777c0-7.263,5.888-13.15,13.15-13.15h300.833
			c7.263,0,13.15,5.887,13.15,13.15l-6.056,191.777c0,7.263-5.887,13.15-13.15,13.15h-300.833
			C1844.062,1359.21,1838.174,1353.323,1838.174,1346.06z"/>
		<polygon style="fill:#DCECFF;" points="2158.556,1153.941 2152.498,1331.173 1850.983,1331.173 1857.041,1153.941 		"/>
		
			<ellipse transform="matrix(0.2298 -0.9732 0.9732 0.2298 232.4469 2984.4622)" style="fill:#1D3F70;" cx="2001.741" cy="1345.376" rx="7.483" ry="7.483"/>
		<polygon style="fill:#98B6EA;" points="1869.973,1309.43 2126.5,1309.43 2133.509,1175.685 1876.982,1175.685 		"/>
		<circle style="fill:#FFFFFF;" cx="2001.741" cy="1242.557" r="45.314"/>
		<path style="fill:#677CC1;" d="M2001.741,1292.381c-27.473,0-49.824-22.351-49.824-49.824c0-27.473,22.351-49.824,49.824-49.824
			c27.473,0,49.824,22.351,49.824,49.824C2051.565,1270.03,2029.214,1292.381,2001.741,1292.381z M2001.741,1201.753
			c-22.5,0-40.804,18.305-40.804,40.804s18.305,40.804,40.804,40.804s40.804-18.305,40.804-40.804
			S2024.24,1201.753,2001.741,1201.753z"/>
		<polygon style="fill:#677CC1;" points="2028.425,1242.557 1985.895,1218.002 1985.895,1267.112 		"/>
	</g>
	<g id="_x34_">
		<path style="fill:#CE4ABF;" d="M1728.627,1444.45l18.877-28.479c0,0-13.786-13.339-23.403-18.118
			c-10.615-5.285-11.061-17.701-5.642-30.593c0,0,0.015,0,0.015-0.015c6.297-14.962,20.515-30.578,35.967-36.489
			c1.623-0.625,3.261-1.131,4.898-1.533c0.611-0.134,1.206-0.313,1.801-0.491c34.583-10.555,40.583-81.314,41.625-105.357v-0.015
			c0.223-4.973,0.223-7.95,0.223-7.95s-3.067,0.119-8.501,0.983c-16.584,2.635-55.098,12.297-95.011,47.297
			C1646.509,1310.167,1606.552,1425.409,1728.627,1444.45z"/>
		<path style="fill:#A523A2;" d="M1718.469,1367.249c6.962-16.526,23.583-33.855,40.868-38.021c0.608-0.147,1.209-0.311,1.799-0.491
			l-2.8-31.224C1758.337,1297.514,1726.864,1338.29,1718.469,1367.249z"/>
		<path style="fill:#F99370;" d="M1802.993,1193.838v21.572c0,0,15.198,15.037,36.793-1.526v-32.39L1802.993,1193.838z"/>
		<path style="fill:#F99370;" d="M1789.368,1329.942c0,0,136.165,67.891,143.762,94.058c136.208,52.267,90.021,183.589-0.89,301.148
			c-13.911,25.677,31.84,33.462,33.838,54.663c0.445,4.956-4.826,8.42-9.235,6.114l-76.709-40.12
			c19.067-26.987,80.88-158.834,40.052-217.977c-42.005-38.448-64.073-88.599-112.946-98.757
			C1768.257,1420.236,1755.214,1374.159,1789.368,1329.942z"/>
		<path style="fill:#395B96;" d="M1881.665,1737.2c-1.044,2.758-1.645,5.652-1.533,8.606l77.456,40.51
			c3.766,1.97,8.431-0.311,9.04-4.517c1.401-9.841-2.506-27.232-37.232-47.772c0,0-14.991-3.558-33.07-17.618
			C1896.327,1716.408,1885.881,1726.012,1881.665,1737.2z"/>
		<path style="fill:#1D3F70;" d="M1966.65,1781.648l-84.985-44.448c-1.044,2.758-1.645,5.652-1.533,8.606l77.456,40.51
			C1961.405,1788.319,1966.14,1785.927,1966.65,1781.648z"/>
		<path style="fill:#F99370;" d="M1807.309,1343.062c0,0,31.319,29.855,38.916,56.021c136.208,52.267,90.021,183.589-0.89,301.148
			c-13.911,25.677,31.84,33.462,33.838,54.663c0.445,4.956-4.826,8.42-9.235,6.114l-76.709-40.12
			c19.067-26.987,80.88-158.834,40.052-217.977c-42.005-38.448-45.98-59.456-94.853-69.614
			C1738.428,1433.298,1773.155,1387.279,1807.309,1343.062z"/>
		<path style="fill:#E8C0A6;" d="M1741.347,1405.953h178.538c0,0,67.426,19.457,91.753,72.242c0.026,0.058,0.05,0.115,0.076,0.173
			c10.479,19.921,17.681,47.373,13.699,84.155c-7.956,73.526-43.84,123.948-60.782,144.087c0,0,0,0-0.009,0
			c-5.423,6.451-8.91,9.798-8.91,9.798s-39.474,2.496-67.794-24.917c0,0,2.16-4.646,5.498-12.613
			c10.904-26.017,34.315-87.451,35.647-137.852c-2.301,23.274-14.088,67.398-59.378,140.755h-0.015
			c-0.819,1.191-1.638,2.382-2.472,3.588c-1.414,2.01-2.844,4.049-4.317,6.119c0,0-40.553-5.166-66.963-31.888
			c0,0,2.575-4.719,6.565-12.759c11.851-23.876,36.104-77.078,42.094-123.238l-98.249-4.84
			C1701.233,1475.432,1741.347,1405.953,1741.347,1405.953z"/>
		<path style="fill:#D1A68F;" d="M1795.918,1659.6c26.403,26.731,66.962,31.891,66.962,31.891c2.347-3.3,4.609-6.535,6.788-9.714
			c0,0-53.948-14.931-67.187-34.921v-0.009C1798.498,1654.888,1795.918,1659.6,1795.918,1659.6z"/>
		<path style="fill:#395B96;" d="M1794.76,1712.283c-1.044,2.758-1.645,5.652-1.533,8.606l77.456,40.51
			c3.766,1.97,8.43-0.311,9.04-4.518c1.401-9.841-2.505-27.232-37.232-47.772c0,0-14.991-3.558-33.07-17.618
			C1809.422,1691.491,1798.975,1701.096,1794.76,1712.283z"/>
		<path style="fill:#1D3F70;" d="M1879.745,1756.731l-84.985-44.448c-1.044,2.758-1.645,5.652-1.533,8.606l77.456,40.51
			C1874.499,1763.402,1879.235,1761.01,1879.745,1756.731z"/>
		<path style="fill:#D1A68F;" d="M1893.416,1678.879c-3.338,7.966-5.498,12.612-5.498,12.612
			c28.32,27.413,67.794,24.917,67.794,24.917s3.488-3.347,8.91-9.798C1963.725,1706.498,1912.91,1700.14,1893.416,1678.879z"/>
		<path style="fill:#D1A68F;" d="M1852.296,1681.068l14.902,4.302c0.833-1.206,1.652-2.397,2.471-3.588h0.015
			c74.302-120.349,58.433-162.018,58.433-162.018l-13.279-1.935C1914.837,1517.829,1917.294,1595.169,1852.296,1681.068z"/>
		<path style="fill:#CE4ABF;" d="M1741.341,1405.951c0,0,66.144,43.783,178.543,0c0-1.876-0.015-3.915-0.074-6.104
			c-0.074-4.02-0.253-8.501-0.506-13.339c-1.131-21.601-4.005-50.051-8.664-73.186c-1.414-7.012-2.992-13.532-4.734-19.234
			c-8.233-35.923-35.03-65.489-59.43-77.369c-2.248-1.102-4.481-2.04-6.684-2.829c0,0-9.945,6.789-19.041,6.729
			c-11.686-0.074-17.76-5.211-17.76-5.211c-2.144,0.938-4.243,2.04-6.283,3.305c-23.135,14.56-39.154,51.748-42.265,112.042
			c-0.163,3.037-0.283,6.119-0.372,9.275C1751.97,1368.614,1750.318,1381.745,1741.341,1405.951z"/>
		<path style="fill:#F99370;" d="M1837.061,1271.854c42.52,36.077,71.751,123.836,137.476,119.84
			c40.251-7.873,62.757-46.316,81.373-78.647c2.935-5.639,5.673-11.149,8.216-17.02c5.899-12.568-12.198-23.615-20.691-12.842
			c-19.04,20.465-47.128,59.982-74.275,62.678c-15.914-7.389-25.201-25.937-35.066-40.424
			c-17.067-27.174-32.952-54.304-57.026-76.72c-28.765-25.773-67.926,16.377-39.98,43.159L1837.061,1271.854z"/>
		<path style="fill:#D1A68F;" d="M1947.702,1504.573c0,0-32.957,3.795-53.487,2.537l29.17,10.719
			C1923.385,1517.829,1933.004,1512.682,1947.702,1504.573z"/>
		<path style="fill:#F99370;" d="M2050.124,1250.42c4.653,0.871,0.823,11.432,2.575,15.379c5.659-5.081,9.891-11.839,9.942-11.845
			c3.47-8.758,6.459-17.687,9.046-26.755c10.36-9.891-0.202,24.57-0.62,28.137c0.043,0.02,0.084,0.043,0.126,0.064
			c5.468-8.212,10.496-16.74,14.772-25.634c12.881-7.799-6.976,27.134-8.488,30.55c0.016,0.017,0.031,0.035,0.046,0.053
			c6.451-6.854,12.067-14.501,16.798-22.644c13.677-6.704-9.246,27.215-11.816,29.995c0.017,0.033,0.035,0.066,0.052,0.099
			c5.851-4.645,11.107-10.036,16.046-15.651c13.636-4.418-10.368,22.107-12.997,24.399c-1.021,2.488-10.694,12.368-24.842,21.488
			c-4.636,2.989-15.972-7.48-16.306-12.887c-0.313-5.07,1.125-11.845,1.576-14.308
			C2046.132,1265.92,2044.632,1251.935,2050.124,1250.42z"/>
		<path style="fill:#A523A2;" d="M1845.998,1306.4c0,0,17.068,59.563,72.502,92.495c0.466,0.277,0.878,0.64,1.31,0.953
			c-0.446-21.974-3.469-58.224-9.17-86.525L1845.998,1306.4z"/>
		<path style="fill:#F99370;" d="M1803.741,1194.398c28.256,11.309,52.651,7.751,66.854-6.707c22.938-23.351,0.789-50.841,0-75.654
			c-0.538-6.691-0.291-11.493-0.291-11.493C1774.577,1111.255,1798.683,1193.982,1803.741,1194.398z"/>
		<path style="fill:#E57D61;" d="M1822.606,1190.652c4.958-0.622,24.449-3.694,26.132-13.91c1.679-10.225,3.77-14.38,3.77-14.38
			l10.049-17.033c-2.472-15.663,7.712-32.752,8.033-33.279c0.005-0.013,0.005-0.013,0.005-0.013
			c-0.538-6.691-0.291-11.493-0.291-11.493c-2.364,0.385-4.658,0.804-6.882,1.257l-16.065,10.723l-17.941,18.029
			C1829.416,1130.552,1817.657,1191.27,1822.606,1190.652z"/>
		<path style="fill:#8C4225;" d="M1846.551,1056.831c6.021-0.625,18.039-5.633,27.782,3.586c7.309,6.917,2.612,8.806,7.907,21.518
			c3.735,8.966-0.806,16.739-10.024,24.848s-13.862,16.952-12.224,27.472s-12.382,26.067-14.499,32.984
			c-2.117,6.917,0.529,13.064-5.556,19.981c-6.085,6.917-14.109,2.65-21.29,3.591s-10.989,6.656-23.425,4.862
			c-12.436-1.793-13.781-9.776-16.14-16.139c-2.359-6.363-11.198-7.765-14.595-16.435c-3.397-8.67,1.545-13.666,0-22.567
			c-1.545-8.901-11.864-17.611-2.339-29.907c9.525-12.296,11.377-13.321,11.906-24.336c0.529-11.015,8.731-18.7,17.727-19.725
			c8.996-1.025,15.611-6.404,24.077-12.552C1824.326,1047.865,1836.678,1057.856,1846.551,1056.831z"/>
		<path style="fill:#F99370;" d="M1846.299,1152.582c2.711,7.89,10.062,12.517,16.418,10.334c6.356-2.183,9.311-10.348,6.6-18.238
			c-2.711-7.89-10.062-12.517-16.418-10.335C1846.543,1136.526,1843.588,1144.692,1846.299,1152.582z"/>
		<path style="fill:#C16256;" d="M1860.459,1139.928c-0.265-0.066-6.534-1.633-9.511,1.896c-0.759,0.897-1.197,2.04-1.357,3.39
			c-0.001,0.003,0,0.006-0.001,0.009c-0.015,0.126-0.044,0.241-0.053,0.371c0,0.002-0.001,0.004-0.001,0.006
			c0,0.001,0.001,0.001,0,0.001c-0.182,2.499,0.595,5.713,2.334,9.622c0.196,0.435,0.674,0.661,1.125,0.55
			c0.055-0.014,0.108-0.033,0.164-0.056c0.492-0.219,0.714-0.797,0.496-1.288c-1.413-3.168-2.127-5.798-2.177-7.845
			c5.702,0.306,9.273,6.204,9.309,6.268c0.223,0.383,0.667,0.558,1.078,0.457c0.086-0.021,0.172-0.058,0.255-0.106
			c0.467-0.268,0.624-0.863,0.356-1.33c-0.174-0.295-4.081-6.897-10.779-7.293c0.163-0.577,0.395-1.089,0.738-1.496
			c2.187-2.595,7.49-1.279,7.539-1.267c0.528,0.13,1.051-0.186,1.187-0.705C1861.294,1140.592,1860.98,1140.063,1860.459,1139.928z"
			/>
		<path style="fill:#CE4ABF;" d="M1821.39,1252.434c-0.357,20.917,32.067,65.117,49.202,90.142
			c8.486,12.386,26.678,31.219,48.711,43.932c22.465,12.952,48.919,19.547,73.111,6.431c37.144-20.157,58.18-63.494,65.742-81.925
			c2.188-5.344,3.245-8.59,3.245-8.59c-13.31-2.858-21.854-14.828-21.854-14.828c-1.965,2.129-3.975,4.228-6,6.268
			c-23.745,23.909-50.468,40.538-66.233,36.072c-18.059-5.136-51.153-58.433-72.189-87.374
			c-15.423-21.229-35.744-26.812-46.969-28.241c-5.136-0.655-8.367-0.432-8.367-0.432s-5.642,5.523-10.674,14.054
			C1825.141,1234.658,1821.553,1243.234,1821.39,1252.434z"/>
		<path style="fill:#A523A2;" d="M1794.489,1216.392c0.67,0.744,1.399,1.533,2.218,2.322c1.652,1.593,3.632,3.216,6.059,4.645v0.015
			c4.898,2.948,11.612,5.196,21.021,5.121c1.891-0.015,3.662-0.208,5.33-0.551c8.977-1.861,14.753-7.846,17.359-11.225
			c1.131-1.429,1.682-2.397,1.682-2.397c-5.136-0.655-8.367-0.432-8.367-0.432s-9.945,6.789-19.041,6.729
			c-11.686-0.074-17.76-5.211-17.76-5.211S1799.922,1215.528,1794.489,1216.392z"/>
		<path style="fill:#A523A2;" d="M2033.548,1293.865c6.014,13.056,24.594,17.15,24.594,17.15h0.015
			c2.188-5.344,3.245-8.59,3.245-8.59c-13.31-2.858-21.806-15.009-21.806-15.009
			C2037.631,1289.545,2035.573,1291.826,2033.548,1293.865z"/>
	</g>
	<g id="_x33_">
		<path style="fill:#4867AA;" d="M1802.839,1768.213c6.305,0,11.417-5.112,11.417-11.417V1547.07
			c0-6.305-5.112-11.417-11.417-11.417c-6.305,0-11.417,5.112-11.417,11.417v209.726
			C1791.422,1763.101,1796.534,1768.213,1802.839,1768.213z"/>
		<path style="fill:#4867AA;" d="M1692.256,1814.268c21.045-0.555,0.44-36.212,39.643-39.642c-0.001,0,145.161,0,145.161,0
			c15.563,0,28.225,12.662,28.225,28.225c0.01,14.906,22.803,14.935,22.833-0.001c0-28.153-22.905-51.058-51.059-51.058h-145.162
			C1695.985,1747.374,1661.471,1808.415,1692.256,1814.268z"/>
		<path style="fill:#7689D6;" d="M1780.899,1551.151h43.88c13.858-0.315,17.379-12.768,16.135-24.485h-76.151
			C1763.521,1538.388,1767.044,1550.837,1780.899,1551.151z"/>
		<path style="fill:#1D3F70;" d="M1775.905,1780.115h53.869c12.566-0.194,11.41-13.754,11.14-22.672
			c0.001-6.153-4.987-11.141-11.14-11.141h-53.869c-6.153,0-11.141,4.988-11.141,11.141
			C1764.518,1766.366,1763.308,1779.912,1775.905,1780.115z"/>
		<path style="fill:#1D3F70;" d="M1895.132,1802.851c0.484,28.354,42.66,28.35,43.14-0.001
			C1937.788,1774.497,1895.612,1774.502,1895.132,1802.851z"/>
		<path style="fill:#1D3F70;" d="M1670.686,1802.851c0.484,28.354,42.66,28.35,43.14-0.001
			C1713.342,1774.497,1671.166,1774.502,1670.686,1802.851z"/>
		<path style="fill:#1D3F70;" d="M1616.611,1190.885c0,0,59.755-0.027,91.579-0.011c12.598,0.006,24.695,4.563,33.749,12.716
			c15.748,14.18,31.823,28.471,41.052,36.388c71.875,61.657-41.92,265.103,101.215,266.375c21.756,0.193,40.075,9.711,55.663,22.405
			c9.803,7.984,19.489,29.529,0.318,29.731c-6.088,0.064-13.626-8.367-17.609-11.657c-12.524-11.657-29.175-18.073-46.897-18.073
			h-111.517c-125.848-2.114-91.516-155.588-90.851-229.472c0.313-34.806-47.073-66.382-68.283-89.115
			C1595.417,1201.445,1604.944,1190.885,1616.611,1190.885z"/>
	</g>
	<g id="_x32_">
		<rect x="758.052" y="1536" style="fill:#4867AA;" width="553.972" height="55.262"/>
		<rect x="758.052" y="1794.79" style="fill:#4867AA;" width="553.972" height="55.262"/>
		<rect x="758.052" y="1591.263" style="fill:#F49F9F;" width="553.972" height="203.527"/>
		<rect x="758.052" y="1591.263" style="fill:#8A9EDD;" width="553.972" height="203.527"/>
		
			<rect x="1272.936" y="1552.849" transform="matrix(-1.836970e-16 1 -1 -1.836970e-16 2851.394 275.8688)" style="fill:#8A9EDD;" width="29.653" height="21.566"/>
		
			<rect x="767.487" y="1553.474" transform="matrix(-1.836970e-16 1 -1 -1.836970e-16 2346.571 781.9434)" style="fill:#8A9EDD;" width="29.653" height="21.566"/>
		
			<rect x="803.591" y="1553.426" transform="matrix(-1.836970e-16 1 -1 -1.836970e-16 2382.6265 745.7918)" style="fill:#8A9EDD;" width="29.653" height="21.566"/>
		
			<rect x="839.694" y="1553.378" transform="matrix(-1.836970e-16 1 -1 -1.836970e-16 2418.6816 709.6401)" style="fill:#8A9EDD;" width="29.653" height="21.566"/>
		
			<rect x="911.901" y="1553.33" transform="matrix(-1.836970e-16 1 -1 -1.836970e-16 2490.8406 637.385)" style="fill:#8A9EDD;" width="29.653" height="21.566"/>
		
			<rect x="1236.833" y="1553.282" transform="matrix(-1.836970e-16 1 -1 -1.836970e-16 2815.7236 312.4055)" style="fill:#8A9EDD;" width="29.653" height="21.566"/>
		
			<rect x="875.798" y="1553.234" transform="matrix(-1.836970e-16 1 -1 -1.836970e-16 2454.6409 673.3922)" style="fill:#8A9EDD;" width="29.653" height="21.566"/>
		
			<rect x="984.108" y="1553.185" transform="matrix(-1.836970e-16 1 -1 -1.836970e-16 2562.9031 565.0337)" style="fill:#8A9EDD;" width="29.653" height="21.566"/>
		
			<rect x="1056.315" y="1553.137" transform="matrix(-1.836970e-16 1 -1 -1.836970e-16 2635.062 492.7785)" style="fill:#8A9EDD;" width="29.653" height="21.566"/>
		
			<rect x="1128.522" y="1553.089" transform="matrix(-1.836970e-16 1 -1 -1.836970e-16 2707.2207 420.5234)" style="fill:#8A9EDD;" width="29.653" height="21.566"/>
		
			<rect x="1200.729" y="1553.041" transform="matrix(-1.836970e-16 1 -1 -1.836970e-16 2779.3796 348.2683)" style="fill:#8A9EDD;" width="29.653" height="21.566"/>
		
			<rect x="948.005" y="1552.993" transform="matrix(-1.836970e-16 1 -1 -1.836970e-16 2526.6072 600.9445)" style="fill:#8A9EDD;" width="29.653" height="21.566"/>
		
			<rect x="1020.212" y="1552.945" transform="matrix(-1.836970e-16 1 -1 -1.836970e-16 2598.7659 528.6895)" style="fill:#8A9EDD;" width="29.653" height="21.566"/>
		
			<rect x="1092.419" y="1552.897" transform="matrix(-1.836970e-16 1 -1 -1.836970e-16 2670.9248 456.4343)" style="fill:#8A9EDD;" width="29.653" height="21.566"/>
		
			<rect x="1164.626" y="1553.522" transform="matrix(-1.836970e-16 1 -1 -1.836970e-16 2743.7576 384.8531)" style="fill:#8A9EDD;" width="29.653" height="21.566"/>
		
			<rect x="1272.936" y="1811.638" transform="matrix(-1.836970e-16 1 -1 -1.836970e-16 3110.1838 534.6586)" style="fill:#8A9EDD;" width="29.653" height="21.566"/>
		
			<rect x="767.487" y="1812.264" transform="matrix(-1.836970e-16 1 -1 -1.836970e-16 2605.3608 1040.7332)" style="fill:#8A9EDD;" width="29.653" height="21.566"/>
		
			<rect x="803.591" y="1812.216" transform="matrix(-1.836970e-16 1 -1 -1.836970e-16 2641.416 1004.5815)" style="fill:#8A9EDD;" width="29.653" height="21.566"/>
		
			<rect x="839.694" y="1812.168" transform="matrix(-1.836970e-16 1 -1 -1.836970e-16 2677.4714 968.4299)" style="fill:#8A9EDD;" width="29.653" height="21.566"/>
		
			<rect x="911.901" y="1812.12" transform="matrix(-1.836970e-16 1 -1 -1.836970e-16 2749.6304 896.1747)" style="fill:#8A9EDD;" width="29.653" height="21.566"/>
		
			<rect x="1236.833" y="1812.072" transform="matrix(-1.836970e-16 1 -1 -1.836970e-16 3074.5134 571.1953)" style="fill:#8A9EDD;" width="29.653" height="21.566"/>
		
			<rect x="875.798" y="1812.023" transform="matrix(-1.836970e-16 1 -1 -1.836970e-16 2713.4307 932.182)" style="fill:#8A9EDD;" width="29.653" height="21.566"/>
		
			<rect x="984.108" y="1811.975" transform="matrix(-1.836970e-16 1 -1 -1.836970e-16 2821.6929 823.8234)" style="fill:#8A9EDD;" width="29.653" height="21.566"/>
		
			<rect x="1056.315" y="1811.927" transform="matrix(-1.836970e-16 1 -1 -1.836970e-16 2893.8518 751.5683)" style="fill:#8A9EDD;" width="29.653" height="21.566"/>
		
			<rect x="1128.522" y="1811.879" transform="matrix(-1.836970e-16 1 -1 -1.836970e-16 2966.0105 679.3132)" style="fill:#8A9EDD;" width="29.653" height="21.566"/>
		
			<rect x="1200.729" y="1811.831" transform="matrix(-1.836970e-16 1 -1 -1.836970e-16 3038.1692 607.0581)" style="fill:#8A9EDD;" width="29.653" height="21.566"/>
		
			<rect x="948.005" y="1811.783" transform="matrix(-1.836970e-16 1 -1 -1.836970e-16 2785.397 859.7343)" style="fill:#8A9EDD;" width="29.653" height="21.566"/>
		
			<rect x="1020.212" y="1811.734" transform="matrix(-1.836970e-16 1 -1 -1.836970e-16 2857.5557 787.4792)" style="fill:#8A9EDD;" width="29.653" height="21.566"/>
		
			<rect x="1092.419" y="1811.686" transform="matrix(-1.836970e-16 1 -1 -1.836970e-16 2929.7146 715.2241)" style="fill:#8A9EDD;" width="29.653" height="21.566"/>
		
			<rect x="1164.626" y="1812.312" transform="matrix(-1.836970e-16 1 -1 -1.836970e-16 3002.5474 643.6429)" style="fill:#8A9EDD;" width="29.653" height="21.566"/>
		
			<rect x="1010.777" y="1686.287" transform="matrix(-1.836970e-16 1 -1 -1.836970e-16 2819.0452 568.3552)" style="fill:#4867AA;" width="229.137" height="14.826"/>
		
			<rect x="830.163" y="1686.287" transform="matrix(-1.836970e-16 1 -1 -1.836970e-16 2638.4316 748.9689)" style="fill:#4867AA;" width="229.137" height="14.826"/>
	</g>
	<g id="_x31__2_">
		<polygon style="fill:#3A72AA;" points="687.175,1789.96 425.87,1789.96 376.188,1362.039 736.856,1362.039 		"/>
		<path style="fill:#F49F9F;" d="M738.782,1426.471H374.262c-18.945,0-31.254-19.954-22.752-36.885l15.418-30.704
			c5.677-11.306,17.246-18.442,29.896-18.442H716.22c12.651,0,24.219,7.136,29.896,18.442l15.418,30.704
			C770.036,1406.517,757.727,1426.471,738.782,1426.471z"/>
		<path style="fill:#F9C0C0;" d="M721.425,1340.847l-329.44-0.055l10.147-13.83c11.866-15.72,30.421-24.961,50.116-24.961h208.546
			c19.696,0,38.25,9.241,50.116,24.961L721.425,1340.847z"/>
		<path style="fill:#F49F9F;" d="M698.209,1693.479H413.527c-5.772,0-10.627-4.327-11.289-10.06l-17.745-153.723
			c-0.779-6.748,4.496-12.667,11.289-12.667h320.172c6.792,0,12.067,5.919,11.289,12.667l-17.745,153.723
			C708.836,1689.152,703.981,1693.479,698.209,1693.479z"/>
	</g>
</g>
</svg>
