<?xml version="1.0" encoding="utf-8"?>
<!-- Generator: Adobe Illustrator 25.0.1, SVG Export Plug-In . SVG Version: 6.00 Build 0)  -->
<svg version="1.0" id="Layer_1" xmlns="http://www.w3.org/2000/svg" xmlns:xlink="http://www.w3.org/1999/xlink" x="0px" y="0px"
	 viewBox="0 0 263 179.8" style="enable-background:new 0 0 263 179.8;" xml:space="preserve">
<style type="text/css">
	.st0{fill:#FE4700;}
	.st1{fill:#FC4F00;}
	.st2{fill:#07A1D9;}
	.st3{fill:#B9D91A;}
	.st4{fill:#20DA86;}
	.st5{fill:#F04C4E;}
	.st6{fill:#E2D301;}
	.st7{fill:#DED701;}
	.st8{fill:#EE8F00;}
	.st9{fill:#EC9800;}
	.st10{fill:#F64A2C;}
	.st11{fill:#1DD390;}
	.st12{fill:#1ACF96;}
	.st13{fill:#E84E7D;}
	.st14{fill:#E7B401;}
	.st15{fill:#FD4807;}
	.st16{fill:#F08600;}
	.st17{fill:#F24B48;}
	.st18{fill:#F54A36;}
	.st19{fill:#0B8EF1;}
	.st20{fill:#F76300;}
	.st21{fill:#0191F2;}
	.st22{fill:#FB480E;}
	.st23{fill:#FA4915;}
	.st24{fill:#BFD816;}
	.st25{fill:#FA5600;}
	.st26{fill:#E6BD01;}
	.st27{fill:#1ED78A;}
	.st28{fill:#F37700;}
	.st29{fill:#EA4D72;}
	.st30{fill:#23DA7E;}
	.st31{fill:#EAA100;}
	.st32{fill:#F17F00;}
	.st33{fill:#F84923;}
	.st34{fill:#0FB4BE;}
	.st35{fill:#F95B00;}
	.st36{fill:#E8AD01;}
	.st37{fill:#F66800;}
	.st38{fill:#F56F00;}
	.st39{fill:#12BAB6;}
	.st40{fill:#E4CD01;}
	.st41{fill:#B4D91D;}
	.st42{fill:#F8491D;}
	.st43{fill:#19CB9D;}
	.st44{fill:#E5C801;}
	.st45{fill:#D8D804;}
	.st46{fill:#E250A3;}
	.st47{fill:#E051AC;}
	.st48{fill:#09A5D4;}
	.st49{fill:#26DA7A;}
	.st50{fill:#F34B40;}
	.st51{fill:#E64F87;}
	.st52{fill:#1E89EF;}
	.st53{fill:#E9A600;}
	.st54{fill:#EB4D6A;}
	.st55{fill:#CFD80A;}
	.st56{fill:#E6C301;}
	.st57{fill:#18C7A2;}
	.st58{fill:#2786ED;}
	.st59{fill:#158BF0;}
	.st60{fill:#4ADA5C;}
	.st61{fill:#A5D925;}
	.st62{fill:#DF52B4;}
	.st63{fill:#D654D8;}
	.st64{fill:#EF4C55;}
	.st65{fill:#059DE0;}
	.st66{fill:#53DA56;}
	.st67{fill:#E3509B;}
	.st68{fill:#C5D811;}
	.st69{fill:#E54F8D;}
	.st70{fill:#DE52BA;}
	.st71{fill:#70D944;}
	.st72{fill:#2CDA74;}
	.st73{fill:#0DAFC6;}
	.st74{fill:#9CD92A;}
	.st75{fill:#E45094;}
	.st76{fill:#D953D4;}
	.st77{fill:#CF56DB;}
	.st78{fill:#0BAACC;}
	.st79{fill:#5DDA4F;}
	.st80{fill:#66DA4A;}
	.st81{fill:#16C4A7;}
	.st82{fill:#8A6AE1;}
	.st83{fill:#13BEB0;}
	.st84{fill:#ED4C62;}
	.st85{fill:#3682EC;}
	.st86{fill:#6C72E5;}
	.st87{fill:#9367E0;}
	.st88{fill:#DB53CD;}
	.st89{fill:#DC52C1;}
	.st90{fill:#5579E8;}
	.st91{fill:#3E7FEB;}
	.st92{fill:#4D7BE9;}
	.st93{fill:#2F84ED;}
	.st94{fill:#15C1AC;}
	.st95{fill:#5D76E7;}
	.st96{fill:#94D92E;}
	.st97{fill:#7470E4;}
	.st98{fill:#31DA6F;}
	.st99{fill:#457DEA;}
	.st100{fill:#6474E6;}
	.st101{fill:#41DA63;}
	.st102{fill:#79D93E;}
	.st103{fill:#ABD922;}
	.st104{fill:#EE4C5C;}
	.st105{fill:#AFD91F;}
	.st106{fill:#826CE2;}
	.st107{fill:#36DA6B;}
	.st108{fill:#BE5BDD;}
	.st109{fill:#C758DC;}
	.st110{fill:#9B65DF;}
	.st111{fill:#DC53C7;}
	.st112{fill:#8ED932;}
	.st113{fill:#80D93A;}
	.st114{fill:#7B6EE3;}
	.st115{fill:#0296EC;}
	.st116{fill:#A163DE;}
	.st117{fill:#87D936;}
	.st118{fill:#0399E6;}
	.st119{fill:#3BDA66;}
	.st120{fill:#B65DDD;}
	.st121{fill:#A861DE;}
	.st122{fill:#AF5FDD;}
	.st123{fill:#252526;}
	.st124{fill:none;}
</style>
<path class="st0" d="M41.3,98.2c-0.6-1-1-2.1-1.3-3.2c-1.8-5.9-0.4-12.3,3.7-16.9c0.7-0.8,1.6-1.6,2.5-2.3h0.1
	c0.1-0.1,0.2,0,0.3,0.1c0.7,0.9,1.4,1.9,2.1,2.8c0.1,0.1,0.1,0.2,0.1,0.3c-0.5,0.4-1,0.8-1.4,1.3c-1.7,1.7-2.8,3.7-3.5,6
	c-0.4,1.4-0.5,2.9-0.5,4.3c0.1,1.6,0.5,3.2,1.1,4.8c0.1,0.3,0.2,0.5,0.3,0.8c0,0.2-0.2,0.3-0.4,0.4c-0.3,0.2-0.7,0.4-1,0.6
	c-0.6,0.3-1.2,0.7-1.8,1C41.6,98.2,41.5,98.3,41.3,98.2z"/>
<path class="st1" d="M48.7,79c-0.2-0.4-0.5-0.8-0.8-1.2c-0.5-0.6-0.9-1.2-1.4-1.9c-0.1-0.1-0.1-0.2-0.2-0.2c0.5-0.4,1-0.7,1.5-1
	c0.2,0.2,0.4,0.5,0.5,0.8c0.5,0.8,1,1.6,1.5,2.4c0.1,0.1,0.1,0.2,0.1,0.3C49.6,78.5,49.2,78.8,48.7,79C48.8,79,48.8,79,48.7,79z"/>
<path class="st2" d="M73.2,97.5c-0.2,0.4-0.4,0.9-0.7,1.3c-1.1-0.7-2.3-1.3-3.4-2c0,0-0.1-0.1-0.1-0.1c0.1-0.4,0.2-0.7,0.5-1
	c0.1,0,0.2,0,0.2,0l3.2,1.5C73,97.3,73.2,97.3,73.2,97.5z"/>
<path class="st3" d="M67.3,75.3c0.4,0.2,0.8,0.5,1.1,0.8c-0.1,0.3-0.3,0.5-0.5,0.8c-0.6,0.7-1.2,1.4-1.8,2.2
	c-0.1,0.1-0.2,0.2-0.3,0.2c-0.3-0.1-0.6-0.4-0.9-0.7c0.3-0.5,0.7-1.1,1.1-1.6c0.3-0.5,0.7-1,1-1.5C67.1,75.5,67.1,75.4,67.3,75.3z"
	/>
<path class="st4" d="M74.6,86.9c0.1,0.4,0.2,0.8,0.2,1.2c-0.3,0.1-0.7,0.2-1,0.2c-0.9,0.1-1.8,0.2-2.7,0.3c-0.2,0-0.3,0-0.4-0.1
	c-0.1-0.3-0.1-0.6-0.1-0.9c0.1-0.1,0.2-0.1,0.3-0.1c1.2-0.2,2.3-0.4,3.5-0.6C74.4,86.9,74.5,86.9,74.6,86.9z"/>
<path class="st5" d="M47.5,104.9c-0.3-0.2-0.6-0.4-0.9-0.6c0-0.1,0-0.2,0-0.3c0.8-1,1.5-2,2.2-3h0.1c0.3,0.1,0.6,0.2,0.8,0.5
	c0,0.1,0,0.2-0.1,0.3c-0.6,1-1.2,2-1.9,3C47.6,104.8,47.6,104.9,47.5,104.9z"/>
<path class="st6" d="M62.7,73c0.4,0.1,0.7,0.2,1.1,0.4c0,0.1,0,0.2,0,0.3c-0.5,1.1-0.9,2.1-1.3,3.2c-0.1,0.1-0.1,0.3-0.3,0.3
	c-0.3,0-0.6-0.1-0.8-0.3c0.4-1.2,0.8-2.4,1.2-3.6C62.6,73.2,62.6,73.1,62.7,73z"/>
<path class="st7" d="M62.1,77.1c0.2,0,0.2-0.1,0.2-0.2l1.4-3.5c0.4,0.1,0.7,0.2,1,0.4c0.1,0.1,0,0.2,0,0.3c-0.5,1-1,2-1.5,3.1
	c0,0.1-0.1,0.2-0.2,0.3C62.7,77.5,62.4,77.4,62.1,77.1z"/>
<path class="st8" d="M54.3,72.3c0.3-0.1,0.6-0.1,1-0.1c0.1,0,0.1,0.1,0.2,0.2c0.1,1.2,0.3,2.4,0.4,3.7c0,0.1,0,0.1,0,0.2
	c-0.3,0.2-0.6,0.2-0.9,0.2c-0.1-0.1-0.1-0.2-0.1-0.3c-0.2-1.1-0.3-2.1-0.5-3.2C54.2,72.7,54.2,72.5,54.3,72.3z"/>
<path class="st9" d="M55.7,76.2c-0.1-0.3-0.1-0.6-0.1-0.9c-0.1-1-0.2-2-0.3-3c0,0,0-0.1-0.1-0.1c0.2-0.1,0.4-0.1,0.6-0.1
	c0.1,0,0.2,0,0.2,0c0.2,0,0.3,0.1,0.3,0.3c0.1,1.1,0.1,2.3,0.2,3.4c0,0.1,0,0.2,0,0.3C56.3,76.4,56,76.4,55.7,76.2z"/>
<path class="st10" d="M44.5,102.6c-0.3-0.2-0.5-0.5-0.7-0.7c0.1-0.1,0.1-0.2,0.3-0.3c0.9-0.8,1.8-1.6,2.6-2.4c0,0,0.1-0.1,0.1-0.1
	c0.2,0.1,0.4,0.4,0.6,0.6c0,0.1-0.1,0.2-0.1,0.2c-0.8,0.8-1.6,1.7-2.5,2.5C44.7,102.5,44.7,102.6,44.5,102.6z"/>
<path class="st11" d="M74.8,88.9c0,0.4,0,0.8,0,1.1c-1.2,0-2.5,0-3.7,0c-0.1,0-0.3,0-0.4-0.1c-0.1-0.1-0.2-0.2-0.1-0.3
	c0-0.3,0-0.6,0.1-0.8l0,0c0.2,0.3,0.6,0.2,0.9,0.2c1-0.1,2-0.1,3-0.2C74.7,88.9,74.8,88.9,74.8,88.9z"/>
<path class="st12" d="M70.8,90h3.7c0.1,0,0.3,0,0.3,0.1c0,0.3,0,0.6,0,0.9c-0.1,0.1-0.1,0.1-0.2,0.1c-0.7-0.1-1.5-0.1-2.2-0.1
	c-0.4,0-0.8,0-1.2-0.1c-0.4-0.1-0.4-0.1-0.4-0.5C70.7,90.2,70.8,90.1,70.8,90z"/>
<path class="st13" d="M51.3,106.8c-0.3-0.1-0.7-0.2-1-0.4c0.1-0.4,0.3-0.9,0.5-1.3l0.8-2c0-0.2,0.1-0.3,0.2-0.4
	c0.3,0,0.5,0.1,0.7,0.3c0,0.1,0,0.2-0.1,0.3c-0.3,1.1-0.8,2.2-1.1,3.2C51.5,106.6,51.5,106.7,51.3,106.8z"/>
<path class="st14" d="M58.6,72.2c0.3,0,0.7,0,1,0.1c0.2,0.2,0.1,0.4,0,0.6c-0.2,1-0.3,2-0.5,3c0,0.2,0,0.3-0.2,0.4
	c-0.2,0.1-0.5,0-0.7-0.1c0-0.4,0-0.9,0.1-1.3c0.1-0.8,0.2-1.6,0.2-2.4C58.6,72.4,58.6,72.3,58.6,72.2z"/>
<path class="st15" d="M41.3,98.2l3.1-1.6c0.2-0.1,0.4-0.1,0.4-0.4c0.3,0.1,0.3,0.4,0.4,0.6s-0.1,0.3-0.2,0.4c-1,0.6-2,1.2-2.9,1.8
	c-0.1,0-0.2,0.1-0.3,0.1C41.6,98.8,41.5,98.5,41.3,98.2z"/>
<path class="st16" d="M54.3,72.3c0.1,0.8,0.2,1.5,0.3,2.3c0.1,0.6,0.2,1.2,0.3,1.7c-0.2,0.2-0.5,0.2-0.7,0.2
	c-0.1-0.2-0.2-0.5-0.2-0.7c-0.2-1-0.4-1.9-0.6-2.9c0-0.1-0.1-0.2,0-0.4C53.6,72.4,53.9,72.4,54.3,72.3z"/>
<path class="st17" d="M48.9,101c-0.4,0.6-0.9,1.2-1.3,1.8l-1,1.3c0,0.1-0.1,0.1-0.1,0.2c-0.3-0.2-0.6-0.4-0.9-0.7
	c0.8-1,1.6-1.9,2.4-2.9c0.1-0.1,0.1-0.2,0.2-0.3C48.6,100.5,48.8,100.7,48.9,101z"/>
<path class="st18" d="M44.5,102.6c0.7-0.6,1.3-1.3,2-2c0.3-0.3,0.6-0.6,0.9-0.9c0.3,0.1,0.5,0.3,0.6,0.5c0,0.3-0.3,0.5-0.5,0.7
	c-0.6,0.7-1.2,1.4-1.8,2.1c-0.1,0.1-0.2,0.3-0.4,0.3C45,103,44.8,102.8,44.5,102.6z"/>
<path class="st19" d="M71.2,100.7c-0.2,0.3-0.4,0.5-0.6,0.7c-0.2,0-0.3-0.1-0.4-0.2c-0.8-0.7-1.6-1.4-2.4-2
	c-0.1-0.1-0.3-0.2-0.3-0.4c0.1-0.3,0.3-0.5,0.5-0.6C69,99,70,99.7,71,100.4C71.1,100.5,71.2,100.5,71.2,100.7z"/>
<path class="st20" d="M49.3,73.9c0.3-0.2,0.5-0.3,0.8-0.4c0.1,0.1,0.2,0.2,0.2,0.3c0.4,1.1,0.9,2.1,1.3,3.2c0.1,0.1,0.1,0.2,0.1,0.3
	c-0.2,0.2-0.4,0.3-0.7,0.3c-0.1,0-0.1-0.1-0.1-0.2c-0.5-1.1-1-2.1-1.6-3.2C49.3,74.1,49.2,74,49.3,73.9z"/>
<path class="st21" d="M71.2,100.7l-3-2.2c-0.1-0.1-0.2-0.2-0.2-0.3c0-0.2,0.2-0.4,0.4-0.5c0.1,0,0.3,0.1,0.4,0.2
	c0.9,0.6,1.8,1.3,2.8,1.9c0.1,0.1,0.2,0.1,0.2,0.3C71.6,100.3,71.4,100.5,71.2,100.7z"/>
<path class="st22" d="M41.8,99.1l2.7-1.6l0.5-0.3c0.1-0.1,0.2-0.1,0.2-0.3c0.2,0,0.2,0.1,0.2,0.2c0.1,0.1,0.2,0.3,0.3,0.5
	c0,0.2-0.1,0.2-0.2,0.3c-1,0.7-1.9,1.3-2.9,1.9c-0.1,0.1-0.2,0.2-0.4,0.1C42.1,99.6,41.9,99.3,41.8,99.1z"/>
<path class="st23" d="M42.3,99.8c0.1,0,0.2-0.1,0.2-0.1l3-2c0,0,0.1-0.1,0.1-0.1c0.3,0.1,0.4,0.3,0.5,0.6c0,0.1-0.1,0.1-0.2,0.2
	c-0.9,0.7-1.9,1.4-2.8,2.1c-0.1,0.1-0.2,0.1-0.3,0.1L42.3,99.8z"/>
<path class="st24" d="M67.3,75.3l-2.2,3.1c0,0.1-0.1,0.2-0.2,0.2c-0.3,0-0.5-0.1-0.6-0.3c0.3-0.6,0.8-1.2,1.2-1.9
	c0.3-0.5,0.6-0.9,0.9-1.4c0-0.1,0.1-0.2,0.2-0.2C66.8,75,67,75.1,67.3,75.3z"/>
<path class="st25" d="M49.9,78.2c-0.7-1.1-1.3-2.2-2-3.3c0-0.1-0.1-0.1-0.1-0.2c0.2-0.2,0.5-0.3,0.7-0.4c0.1,0,0.2,0.1,0.2,0.2
	c0.5,1,1.1,1.9,1.6,2.9c0.1,0.1,0.2,0.3,0.2,0.5C50.4,78.1,50.1,78.2,49.9,78.2z"/>
<path class="st26" d="M59,76.3c0.1-0.4,0.2-0.8,0.2-1.2c0.1-0.7,0.2-1.5,0.3-2.2c0-0.2,0-0.4,0-0.6c0.3,0,0.6,0.1,0.9,0.2
	c0,0.1,0,0.2,0,0.3c-0.2,1.1-0.4,2.3-0.7,3.4c0,0.1-0.1,0.2-0.1,0.3C59.4,76.5,59.2,76.5,59,76.3z"/>
<path class="st27" d="M74.8,88.9C74.3,89,73.7,89,73.1,89s-1.3,0.1-1.9,0.1c-0.2,0-0.4-0.1-0.4-0.3c-0.1-0.1-0.2-0.3-0.1-0.5
	c0,0,0,0,0,0c0.1,0.1,0.2,0.1,0.3,0.1l2.1-0.2l1.7-0.2C74.8,88.3,74.9,88.6,74.8,88.9z"/>
<path class="st28" d="M51.5,73c0.3-0.1,0.5-0.2,0.8-0.2c0.2-0.1,0.2,0.1,0.3,0.2c0.2,0.5,0.3,1.1,0.4,1.7s0.3,1.1,0.4,1.6
	c0,0.1,0,0.3,0,0.4c-0.2,0.2-0.4,0.2-0.6,0.2c-0.1-0.1-0.1-0.2-0.2-0.3C52.3,75.4,52,74.2,51.5,73z"/>
<path class="st29" d="M51.9,102.7c-0.4,1.1-0.9,2.2-1.3,3.3c0,0.2-0.1,0.3-0.2,0.4c-0.3-0.1-0.5-0.2-0.7-0.3c-0.1-0.2,0-0.3,0-0.4
	c0.5-1,0.9-2,1.4-3c0-0.1,0.1-0.3,0.2-0.3C51.5,102.3,51.8,102.5,51.9,102.7z"/>
<path class="st30" d="M74.6,86.9l-2.4,0.4l-1.5,0.3c0,0-0.1,0-0.2,0c-0.2-0.2-0.2-0.5-0.1-0.7c0.1-0.1,0.1-0.1,0.2-0.1
	c1.3-0.3,2.5-0.6,3.8-0.8C74.6,86.3,74.6,86.6,74.6,86.9z"/>
<path class="st31" d="M56.5,76.2c0-1.1-0.1-2.1-0.1-3.1c0-0.2,0-0.4,0-0.5c0-0.3,0-0.4-0.3-0.3c0,0-0.1,0-0.2,0c0.4,0,0.9,0,1.3,0
	c0.1,0.1,0.1,0.3,0.1,0.4c0,1.1,0,2.2,0,3.3c0,0.1,0,0.3-0.1,0.4C56.9,76.3,56.7,76.3,56.5,76.2z"/>
<path class="st32" d="M53.5,76.6l-1-3.7c0-0.1-0.1-0.1-0.2-0.2c0.3-0.1,0.7-0.2,1-0.2c0.1,0.7,0.3,1.4,0.4,2.1
	c0.2,0.7,0.3,1.2,0.4,1.8C54,76.7,53.7,76.7,53.5,76.6z"/>
<path class="st33" d="M46.8,99.1c-0.6,0.6-1.2,1.2-1.9,1.8l-1.1,1l-0.5-0.7c0.1-0.2,0.3-0.3,0.5-0.4c0.8-0.7,1.7-1.4,2.5-2.1
	c0,0,0.1-0.1,0.2-0.1C46.6,98.7,46.8,98.9,46.8,99.1z"/>
<path class="st34" d="M74.1,95c0,0.3-0.1,0.5-0.2,0.8c-0.6-0.3-1.2-0.5-1.8-0.7l-1.8-0.6c-0.1,0-0.2-0.1-0.3-0.2
	c0-0.2,0-0.5,0.2-0.6c0.1,0,0.2,0,0.3,0c1.1,0.3,2.2,0.6,3.3,1C74,94.7,74.2,94.7,74.1,95z"/>
<path class="st35" d="M50.5,77.8c-0.3-0.6-0.6-1.1-0.9-1.7c-0.3-0.6-0.6-1.2-1-1.8c0,0-0.1-0.1-0.1-0.1c0.2-0.2,0.5-0.3,0.8-0.4
	c0,0.1,0,0.2,0.1,0.3c0.5,0.9,0.9,1.8,1.4,2.7c0.1,0.2,0.2,0.4,0.3,0.6C50.9,77.8,50.7,77.9,50.5,77.8z"/>
<path class="st36" d="M58.6,72.2c0,0.4,0,0.9-0.1,1.3c0,0.6-0.1,1.2-0.2,1.7c0,0.3,0,0.7-0.1,1c0,0-0.1,0-0.1,0c-0.2,0-0.3,0-0.5,0
	c0,0-0.1,0-0.1-0.1c-0.1-0.3-0.1-0.5,0-0.8c0.1-0.9,0.1-1.9,0.2-2.8c0-0.1-0.1-0.2-0.1-0.4L58.6,72.2z"/>
<path class="st37" d="M51.7,77.2l-1-2.3l-0.6-1.5c0.2-0.1,0.5-0.2,0.7-0.3c0.1,0,0.1,0.1,0.2,0.2c0.4,1.2,0.9,2.4,1.3,3.6
	c0,0,0,0,0,0.1C52.1,77.2,51.9,77.3,51.7,77.2z"/>
<path class="st38" d="M52.3,77c-0.3-0.9-0.7-1.8-1-2.7c-0.1-0.4-0.3-0.8-0.4-1.1c0.2-0.1,0.5-0.2,0.7-0.2c0.2,0.1,0.2,0.2,0.2,0.3
	c0.4,1.1,0.7,2.2,1.1,3.3c0,0.1,0,0.1,0.1,0.2C52.8,77,52.5,77.1,52.3,77z"/>
<path class="st39" d="M74.1,95c0-0.2-0.1-0.2-0.2-0.2l-3.1-0.9c-0.2,0-0.3-0.1-0.5-0.1c-0.1-0.2,0-0.4,0.1-0.6
	c0.1-0.1,0.3-0.1,0.4,0l3.3,0.8c0.1,0,0.3,0,0.3,0.2C74.3,94.5,74.2,94.8,74.1,95z"/>
<path class="st40" d="M62.7,73c-0.3,0.9-0.6,1.8-0.9,2.7l-0.3,0.8c0,0.1,0,0.2-0.2,0.3c-0.2,0.1-0.5,0-0.6-0.2
	c0.4-1.2,0.7-2.4,1-3.6c0-0.1,0.1-0.2,0.1-0.3L62.7,73z"/>
<path class="st41" d="M65.8,79.3c0.3-0.3,0.6-0.6,0.9-1c0.6-0.7,1.2-1.4,1.7-2.1c0.2,0.1,0.4,0.3,0.5,0.5c0.1,0.2-0.1,0.3-0.2,0.4
	c-0.3,0.4-0.7,0.8-1.1,1.2s-0.8,0.9-1.2,1.3c0,0-0.1,0.1-0.1,0.1C66.1,79.7,65.9,79.5,65.8,79.3z"/>
<path class="st42" d="M46.4,98.6c-0.1,0.2-0.3,0.3-0.5,0.4c-0.9,0.7-1.8,1.4-2.7,2.2c-0.2-0.2-0.4-0.4-0.5-0.6l3-2.2l0.3-0.2
	C46.3,98.2,46.4,98.4,46.4,98.6z"/>
<path class="st43" d="M70.8,90.3c-0.1,0.3,0,0.4,0.4,0.4c0.6,0,1.3,0.1,1.9,0.1s1.1,0.1,1.7,0.1c0,0.3,0,0.5-0.1,0.8
	c-0.1,0.1-0.1,0.1-0.2,0.1L71,91.4c-0.2,0-0.3-0.1-0.3-0.3c0-0.2,0-0.4,0-0.6C70.7,90.5,70.7,90.3,70.8,90.3z"/>
<path class="st44" d="M61.9,72.8c-0.1,0.6-0.3,1.2-0.5,1.8c-0.2,0.6-0.3,1.2-0.5,1.8c0,0.1,0,0.3-0.2,0.3c-0.2,0.1-0.4,0-0.5-0.1
	c0-0.2,0-0.4,0.1-0.5l0.7-3c0-0.1,0.1-0.3,0.2-0.4L61.9,72.8z"/>
<path class="st45" d="M62.9,77.5c0.1-0.1,0.1-0.1,0.1-0.2c0.5-1.1,1-2.1,1.5-3.2c0-0.1,0-0.1,0-0.2c0.2,0.1,0.5,0.2,0.7,0.4
	c0.1,0.1,0,0.2,0,0.2c-0.6,1-1.1,2.1-1.7,3.1c-0.1,0.1-0.1,0.2-0.3,0.2S63,77.7,62.9,77.5z"/>
<path class="st46" d="M54.5,107.5c-0.2,0-0.5-0.1-0.7-0.1c0-0.1,0-0.2,0-0.3c0.2-1.2,0.5-2.4,0.7-3.6c0-0.1,0-0.1,0.1-0.2
	c0.2-0.1,0.5,0,0.6,0.1c0,0.1,0,0.2,0,0.3c-0.2,1.1-0.3,2.3-0.5,3.4C54.6,107.3,54.6,107.5,54.5,107.5z"/>
<path class="st47" d="M54.5,107.5c0.1-0.5,0.2-1,0.2-1.4c0.1-0.8,0.2-1.6,0.4-2.4c0-0.1,0-0.1,0-0.2c0.2-0.1,0.4-0.1,0.6,0
	c0.1,0.3,0.1,0.6,0,0.9c-0.1,0.9-0.2,1.9-0.3,2.8c0,0.2-0.1,0.4-0.3,0.3C54.8,107.6,54.7,107.6,54.5,107.5z"/>
<path class="st48" d="M73.2,97.5c-0.1-0.2-0.3-0.3-0.5-0.3c-1-0.5-2-0.9-3-1.4h-0.1c0-0.2,0.1-0.4,0.2-0.5c0.1,0,0.2,0,0.3,0.1
	c1,0.4,2.1,0.9,3.1,1.3c0.1,0.1,0.3,0.1,0.3,0.3C73.4,97.1,73.3,97.3,73.2,97.5z"/>
<path class="st49" d="M74.4,86c-0.3,0.2-0.6,0.3-1,0.3c-1,0.2-2,0.4-3,0.7c-0.1-0.1-0.2-0.3-0.2-0.4c0-0.2,0.2-0.3,0.3-0.3
	c1-0.3,2.1-0.6,3.2-0.8c0.2,0,0.3-0.1,0.5,0C74.4,85.6,74.4,85.8,74.4,86z"/>
<path class="st50" d="M45.2,103.2c0.5-0.4,0.9-0.9,1.3-1.4c0.5-0.5,0.9-1,1.3-1.5c0,0,0.1-0.1,0.1-0.2c0.2,0,0.4,0.1,0.4,0.3
	c-0.2,0.4-0.5,0.7-0.8,1.1l-1.5,1.9c-0.1,0.1-0.1,0.2-0.2,0.2C45.5,103.5,45.4,103.4,45.2,103.2z"/>
<path class="st51" d="M51.3,106.8l1.3-3.7c0-0.1,0-0.1,0.1-0.2c0.2,0,0.4,0,0.5,0.2c0,0.1,0,0.2,0,0.3c-0.3,1.1-0.6,2.1-1,3.2
	c0,0.2-0.1,0.4-0.3,0.3C51.7,106.9,51.5,106.9,51.3,106.8z"/>
<path class="st52" d="M70.2,101.9l-0.5,0.5c-0.1,0-0.2-0.1-0.3-0.2L67,99.8c-0.1-0.1-0.2-0.2-0.2-0.3c0-0.2,0.2-0.3,0.4-0.4
	c0.3,0.2,0.6,0.4,0.8,0.7l2,1.8C70.1,101.7,70.2,101.8,70.2,101.9z"/>
<path class="st53" d="M57.7,72.1c0.2,0,0.2,0.2,0.2,0.4c-0.1,0.5-0.1,1-0.1,1.5c-0.1,0.7-0.1,1.4-0.1,2.1c-0.2,0.1-0.4,0.1-0.5,0
	v-4.1L57.7,72.1z"/>
<path class="st54" d="M51.3,102.4l-1.6,3.4c0,0.1-0.1,0.2-0.1,0.3c-0.3-0.1-0.5-0.2-0.7-0.4c0.5-1,1-2,1.6-3
	c0.1-0.2,0.2-0.4,0.4-0.6C51,102.1,51.2,102.2,51.3,102.4z"/>
<path class="st55" d="M63.5,77.7c0.2-0.1,0.2-0.3,0.3-0.5c0.6-1,1.1-2.1,1.7-3.1c0.2,0.1,0.4,0.2,0.6,0.3c0.1,0.1,0,0.2,0,0.2
	l-1.8,3.1c0,0.1-0.1,0.2-0.2,0.2C63.8,78.1,63.6,78,63.5,77.7z"/>
<path class="st56" d="M61.2,72.6c-0.3,1.2-0.5,2.3-0.8,3.4c0,0.2-0.1,0.3-0.1,0.5c-0.2,0.1-0.4,0-0.5-0.1l0.7-3.4
	c0-0.2,0.1-0.4,0.1-0.6C60.7,72.5,61,72.5,61.2,72.6z"/>
<path class="st57" d="M70.8,91.2c0,0.1,0,0.2,0.1,0.2l1.8,0.2l2.1,0.2c0,0.3,0,0.6-0.1,0.8c-0.1-0.1-0.3-0.2-0.5-0.2
	c-1-0.2-2.1-0.3-3.1-0.4c-0.1,0-0.3-0.1-0.4-0.2C70.6,91.6,70.5,91.3,70.8,91.2z"/>
<path class="st58" d="M66.9,99.5c0.2,0.3,0.5,0.5,0.7,0.8l2.2,2.1l-0.4,0.4c-0.2,0.1-0.2,0-0.3-0.1c-0.7-0.8-1.5-1.6-2.2-2.4
	c-0.1-0.1-0.2-0.3-0.3-0.4C66.5,99.7,66.7,99.6,66.9,99.5z"/>
<path class="st59" d="M70.2,101.9c-0.6-0.5-1.2-1-1.7-1.6l-1.3-1.2c0.1-0.2,0.1-0.4,0.4-0.4c0.1,0.2,0.2,0.3,0.4,0.4
	c0.6,0.5,1.2,1,1.8,1.5l0.8,0.7C70.5,101.6,70.4,101.8,70.2,101.9z"/>
<path class="st60" d="M73.2,82.4c0.1,0.2,0.2,0.3,0.3,0.5c-0.1,0.1-0.2,0.2-0.3,0.2c-1.1,0.5-2.2,0.9-3.3,1.4c-0.1,0-0.1,0-0.2,0.1
	c-0.2-0.1-0.2-0.3-0.2-0.4s0.2-0.2,0.3-0.3c0.9-0.4,1.8-0.9,2.7-1.3c0.1-0.1,0.2-0.1,0.3-0.2C73,82.4,73.1,82.3,73.2,82.4z"/>
<path class="st61" d="M69.8,77.4c0.2,0.1,0.3,0.3,0.4,0.4c-0.1,0.3-0.3,0.5-0.6,0.7c-0.7,0.6-1.3,1.2-1.9,1.8
	c-0.1,0.1-0.3,0.2-0.5,0.3c-0.2,0-0.3-0.2-0.4-0.4c0-0.1,0.1-0.2,0.2-0.2l2.4-2.4C69.5,77.5,69.6,77.4,69.8,77.4z"/>
<path class="st62" d="M55,107.6c0.1,0,0.2,0,0.2-0.2c0.1-0.6,0.1-1.3,0.2-1.9c0.1-0.6,0.2-1.3,0.2-1.9c0.1-0.1,0.1-0.1,0.2-0.1
	c0.3,0,0.4,0.2,0.4,0.4c0,0.4-0.1,0.9-0.1,1.3c0,0.7-0.1,1.3-0.1,2c0,0.3-0.1,0.4-0.3,0.4C55.5,107.7,55.3,107.7,55,107.6z"/>
<path class="st63" d="M59.3,107.6l-0.6,0.1c-0.1-0.2-0.2-0.4-0.1-0.6c-0.1-1-0.2-1.9-0.3-2.9c0-0.2-0.1-0.4-0.2-0.6
	c0.1-0.2,0.3-0.1,0.5-0.2c0.2,0,0.4,0.2,0.4,0.4c0.2,1.1,0.3,2.3,0.4,3.4C59.4,107.4,59.5,107.5,59.3,107.6z"/>
<path class="st64" d="M47.5,104.9c0.2-0.2,0.4-0.5,0.5-0.7c0.5-0.8,1-1.6,1.6-2.5c0-0.1,0.1-0.2,0.1-0.2c0.2,0,0.4,0.1,0.5,0.3
	c-0.2,0.4-0.4,0.8-0.7,1.1c-0.4,0.7-0.8,1.3-1.2,2c-0.1,0.1-0.1,0.3-0.4,0.3C47.8,105.1,47.6,105,47.5,104.9z"/>
<path class="st65" d="M69,96.7c0.4,0.2,0.8,0.4,1.2,0.7c0.7,0.4,1.4,0.8,2.1,1.2c0.1,0,0.2,0.1,0.2,0.2c-0.1,0.2-0.2,0.3-0.3,0.5
	c-0.3-0.1-0.7-0.3-1-0.5c-0.7-0.4-1.4-0.9-2.1-1.3c-0.1-0.1-0.3-0.2-0.4-0.3C68.7,97,68.8,96.8,69,96.7z"/>
<path class="st66" d="M73.2,82.4c-0.3,0.1-0.7,0.3-1,0.4c-0.8,0.4-1.6,0.8-2.5,1.2c-0.1,0-0.2,0.1-0.2,0.2c-0.2-0.1-0.3-0.3-0.3-0.5
	c0.1-0.2,0.2-0.2,0.3-0.3c1-0.5,2-1,3-1.5c0.1-0.1,0.2-0.1,0.3-0.1C73.1,82,73.1,82.2,73.2,82.4z"/>
<path class="st67" d="M54.5,103.4c-0.1,0.6-0.2,1.2-0.3,1.8l-0.4,2.2c-0.2,0-0.4,0-0.6-0.1c-0.1-0.1-0.1-0.2,0-0.3
	c0.2-1.1,0.5-2.1,0.7-3.2c0-0.2,0.1-0.4,0.2-0.5C54.2,103.2,54.4,103.3,54.5,103.4z"/>
<path class="st68" d="M64,78l2-3.5l0.5,0.3c-0.2,0.5-0.5,0.9-0.8,1.3c-0.4,0.7-0.8,1.3-1.3,2c0,0-0.1,0.1-0.1,0.1
	C64.1,78.3,64,78.2,64,78z"/>
<path class="st69" d="M51.9,106.9c0.2,0,0.2-0.1,0.2-0.2c0.3-0.9,0.5-1.8,0.8-2.7c0.1-0.3,0.2-0.6,0.2-0.9c0.2-0.1,0.4,0,0.5,0.1
	c0,0.2,0,0.3,0,0.5c-0.3,1-0.5,2.1-0.8,3.2c0,0.1,0,0.3-0.2,0.3C52.3,107.1,52.1,107,51.9,106.9z"/>
<path class="st70" d="M55.7,107.7c0.2,0,0.2-0.2,0.2-0.3c0-0.8,0.1-1.6,0.1-2.4c0-0.3,0-0.6,0.1-0.9s-0.1-0.4-0.3-0.4
	c0.3-0.2,0.5-0.1,0.8,0c0.1,0.1,0.1,0.2,0.1,0.3c0,1.1,0,2.3-0.1,3.4c0,0.1,0,0.2-0.1,0.3C56.2,107.7,56,107.7,55.7,107.7z"/>
<path class="st71" d="M72,80.2c0.1,0.2,0.3,0.3,0.4,0.5c-0.1,0.1-0.1,0.1-0.2,0.2c-1.1,0.6-2.1,1.2-3.2,1.9h-0.1
	c-0.2-0.1-0.2-0.2-0.3-0.4c0-0.1,0.1-0.2,0.2-0.3c1-0.7,2-1.3,3-2C71.9,80.2,72,80.2,72,80.2z"/>
<path class="st72" d="M74.3,85.4c-0.6,0.1-1.1,0.2-1.7,0.4c-0.6,0.2-1.3,0.3-1.9,0.5c-0.2,0-0.3,0.1-0.3,0.2
	c-0.2-0.2-0.2-0.4-0.2-0.6c0.1-0.1,0.2-0.1,0.4-0.2c1-0.3,2.1-0.6,3.1-1c0.1-0.1,0.3-0.1,0.4-0.1L74.3,85.4z"/>
<path class="st73" d="M70.1,94.3l2.8,1l0.8,0.2c0.1,0,0.2,0.1,0.3,0.2c0,0.1-0.1,0.3-0.2,0.4c-0.1,0-0.2,0-0.2,0
	c-1.2-0.5-2.4-0.9-3.6-1.4C69.8,94.7,69.9,94.5,70.1,94.3C70,94.3,70.1,94.3,70.1,94.3z"/>
<path class="st74" d="M67.2,80.6c0-0.1,0.2-0.2,0.3-0.3c0.6-0.5,1.1-1,1.7-1.6c0.4-0.3,0.7-0.6,1-1c0.2,0.1,0.3,0.3,0.4,0.5
	c-0.2,0.3-0.5,0.6-0.9,0.8c-0.6,0.5-1.2,1-1.8,1.6c-0.1,0.1-0.2,0.2-0.4,0.2C67.3,80.9,67.2,80.8,67.2,80.6z"/>
<path class="st75" d="M52.5,107.1c0.3-0.2,0.2-0.6,0.3-0.8c0.3-1,0.5-2,0.8-3c0.2-0.1,0.4-0.1,0.5,0.1c0,0,0,0,0,0l-0.9,3.9
	C52.9,107.3,52.7,107.2,52.5,107.1z"/>
<path class="st76" d="M58.1,103.6c0.2,0,0.2,0,0.2,0.2c0.1,1.1,0.2,2.2,0.3,3.3c0,0.2,0.1,0.3,0.1,0.5h-0.6
	c-0.1-0.2-0.2-0.4-0.1-0.6c0-0.8-0.1-1.7-0.1-2.5c0-0.3-0.1-0.6,0-0.9C57.9,103.5,58,103.5,58.1,103.6
	C58.1,103.6,58.1,103.6,58.1,103.6z"/>
<path class="st77" d="M59.3,107.6c-0.1-0.6-0.1-1.2-0.2-1.8c-0.1-0.6-0.2-1.2-0.2-1.8c0-0.2,0-0.4-0.3-0.4c0.2-0.2,0.5-0.2,0.7-0.1
	c0.1,0.4,0.2,0.7,0.2,1.1c0.1,0.8,0.3,1.7,0.4,2.5c0.1,0.1,0.1,0.3,0,0.4L59.3,107.6z"/>
<path class="st78" d="M69.9,94.8c0.6,0.2,1.1,0.4,1.7,0.6l2.1,0.8c-0.1,0.2-0.1,0.5-0.2,0.7c-0.2-0.3-0.5-0.3-0.7-0.4L70,95.3
	c-0.1,0-0.2-0.1-0.3-0.1C69.7,95.1,69.7,94.9,69.9,94.8C69.9,94.8,69.9,94.8,69.9,94.8z"/>
<path class="st79" d="M72.9,81.8l-3.6,1.9c-0.2,0-0.2-0.2-0.2-0.4c0-0.2,0.1-0.2,0.2-0.3l3.1-1.7c0.1,0,0.2-0.1,0.3,0
	C72.8,81.5,72.9,81.6,72.9,81.8z"/>
<path class="st80" d="M72.7,81.3c-0.3,0.1-0.6,0.2-0.8,0.4c-0.9,0.5-1.7,1-2.6,1.4c-0.1,0-0.1,0.1-0.2,0.2c-0.2,0-0.3-0.2-0.2-0.4
	c0,0,0,0,0,0c0.3-0.3,0.7-0.5,1.1-0.7c0.7-0.4,1.5-0.9,2.2-1.3c0.1,0,0.1,0,0.2-0.1C72.5,81,72.6,81.1,72.7,81.3z"/>
<path class="st81" d="M70.7,91.8c1.2,0.2,2.5,0.4,3.8,0.5c0.1,0,0.2,0.1,0.2,0.2c0,0,0,0,0,0c0,0.1,0,0.2-0.1,0.3
	c-0.1,0.1-0.2,0.1-0.3,0l-3.6-0.6h-0.1C70.5,92.2,70.5,91.9,70.7,91.8z"/>
<path class="st82" d="M63.9,106.3c-0.2,0.1-0.3,0.2-0.5,0.2c-0.1,0-0.1-0.1-0.2-0.2c-0.4-1.1-0.8-2.2-1.3-3.4c0-0.1,0-0.1,0-0.2
	c0.1-0.2,0.3-0.3,0.5-0.3c0.4,0.9,0.7,1.8,1.1,2.7c0.1,0.3,0.2,0.6,0.3,0.8C63.9,106.1,64,106.2,63.9,106.3z"/>
<path class="st83" d="M74.4,94.1c-0.3-0.1-0.6-0.2-0.9-0.3l-2.8-0.7c-0.1,0-0.2,0-0.2,0c-0.1-0.2,0-0.4,0.1-0.6
	c0.4,0,0.7,0.1,1.1,0.2c0.9,0.2,1.7,0.4,2.6,0.5c0.1,0,0.3,0,0.3,0.3C74.5,93.8,74.4,94,74.4,94.1z"/>
<path class="st84" d="M50.8,102.2c-0.2,0.5-0.5,1-0.8,1.5s-0.6,1.2-1,1.8c-0.1,0.1-0.1,0.2-0.2,0.2c-0.2,0-0.3-0.1-0.5-0.2
	c0.3-0.6,0.5-1.1,0.9-1.6c0.3-0.6,0.6-1.1,0.9-1.7c0.1-0.1,0.1-0.2,0.2-0.3C50.6,101.9,50.8,102,50.8,102.2z"/>
<path class="st85" d="M68.9,103.2c-0.1,0.1-0.3,0.3-0.4,0.4c-0.1,0.1-0.2,0-0.2-0.1c-0.8-0.9-1.5-1.8-2.3-2.8c0-0.1-0.1-0.1-0.1-0.2
	c0-0.2,0.2-0.3,0.4-0.4c0.6,0.7,1.2,1.3,1.7,1.9C68.3,102.4,68.6,102.8,68.9,103.2z"/>
<path class="st86" d="M65.8,105.4c-0.1,0.1-0.3,0.2-0.4,0.2c-0.2,0.1-0.2-0.1-0.3-0.2c-0.5-0.9-1-1.8-1.4-2.8
	c-0.1-0.2-0.2-0.4-0.3-0.6c0.1-0.2,0.3-0.3,0.5-0.3c0.3,0.4,0.6,0.9,0.8,1.3l1.1,1.9C65.7,105.2,65.8,105.3,65.8,105.4z"/>
<path class="st87" d="M61.9,102.8c0.4,1.1,0.8,2.2,1.3,3.3l0.2,0.5c-0.2,0.1-0.4,0.1-0.5,0.2c-0.1,0-0.1-0.2-0.2-0.3
	c-0.4-1.1-0.8-2.2-1.2-3.4c0-0.1,0-0.2,0-0.2C61.6,102.8,61.8,102.7,61.9,102.8z"/>
<path class="st88" d="M57.9,103.6c0.1,0.9,0.1,1.8,0.2,2.8c0,0.4,0.1,0.9,0.1,1.3h-0.6c-0.1-0.1-0.1-0.2-0.1-0.3
	c0-1.1,0-2.2-0.1-3.3c0-0.2,0-0.3,0.1-0.5C57.6,103.5,57.7,103.5,57.9,103.6z"/>
<path class="st89" d="M56.5,107.7c0-1.4,0.1-2.7,0.1-4.1c0,0,0.1,0,0.1,0c0.4,0,0.5,0.1,0.5,0.5c0,0.8,0,1.6,0,2.4
	c0,0.2,0,0.3,0,0.5c0.1,0.3,0,0.5-0.1,0.7C56.8,107.8,56.6,107.7,56.5,107.7z"/>
<path class="st90" d="M67.1,104.6c-0.1,0.1-0.3,0.2-0.4,0.3c-0.1,0-0.1-0.1-0.2-0.1c-0.6-1-1.3-2-1.9-3c-0.1-0.1-0.1-0.2-0.1-0.3
	c0.1-0.2,0.2-0.3,0.4-0.2c0.2,0.2,0.3,0.4,0.5,0.7l1.7,2.4C67.1,104.4,67.2,104.5,67.1,104.6z"/>
<path class="st91" d="M65.8,100.5c0.4,0.4,0.7,0.7,1,1.2c0.5,0.6,1,1.2,1.5,1.8c0,0.1,0.1,0.1,0.2,0.1c-0.1,0.2-0.3,0.2-0.5,0.4
	c-0.1,0.2-0.2-0.1-0.2-0.1c-0.7-0.9-1.4-1.8-2.1-2.7c-0.1-0.1-0.1-0.2-0.2-0.3C65.5,100.6,65.6,100.5,65.8,100.5z"/>
<path class="st92" d="M67.1,104.6c-0.2-0.4-0.5-0.8-0.8-1.2l-1.4-2.1c0,0,0-0.1,0-0.1c0-0.2,0.2-0.2,0.3-0.2
	c0.2,0.2,0.4,0.4,0.5,0.6c0.7,0.9,1.3,1.8,2,2.7C67.5,104.4,67.3,104.5,67.1,104.6z"/>
<path class="st93" d="M68.9,103.2c-0.4-0.3-0.7-0.6-1-1c-0.4-0.5-0.9-1-1.3-1.5c-0.2-0.2-0.3-0.4-0.4-0.6c0-0.2,0.1-0.3,0.3-0.3
	c0,0,0,0,0,0c0.4,0.5,0.9,0.9,1.3,1.4c0.4,0.5,0.9,0.8,1.2,1.3c0.1,0.1,0.1,0.2,0.3,0.2C69.2,103,69.1,103.1,68.9,103.2z"/>
<path class="st94" d="M74.5,93.6c0-0.2-0.2-0.2-0.3-0.2l-3.5-0.7c-0.1,0-0.1,0-0.2-0.1c-0.1-0.1-0.1-0.3,0-0.4c0,0,0,0,0,0
	c0.7,0.1,1.3,0.2,2,0.3l2,0.3C74.6,93.2,74.6,93.4,74.5,93.6z"/>
<path class="st95" d="M64.5,101.5c0.2,0.4,0.4,0.7,0.6,1l1.6,2.4c-0.1,0.1-0.3,0.2-0.4,0.2c-0.1,0.1-0.2,0-0.3-0.1
	c-0.6-1-1.2-2-1.8-3.1c-0.1-0.1-0.1-0.2-0.1-0.3C64.2,101.5,64.3,101.4,64.5,101.5z"/>
<path class="st96" d="M67.5,80.9c0.2,0,0.3-0.1,0.4-0.2l2.7-2.3c0.1,0.1,0.3,0.3,0.3,0.4c-0.2,0.3-0.5,0.5-0.8,0.7l-2.1,1.7
	c-0.1,0.1-0.2,0.1-0.3,0.1C67.6,81.2,67.5,81.1,67.5,80.9z"/>
<path class="st97" d="M63.4,102.1c0.2,0.3,0.3,0.6,0.5,0.9l1.3,2.5c0,0.1,0.1,0.2,0.2,0.2c-0.2,0.1-0.4,0.2-0.6,0.3
	c-0.2-0.4-0.4-0.8-0.6-1.2c-0.3-0.7-0.7-1.4-1-2.1c-0.1-0.1-0.2-0.3-0.1-0.5C63.1,102.1,63.3,102.1,63.4,102.1z"/>
<path class="st98" d="M74.1,84.8c-0.7,0.3-1.5,0.5-2.2,0.7c-0.5,0.2-1.1,0.4-1.7,0.5c-0.1,0-0.1-0.1-0.1-0.2s0.2-0.3,0.4-0.4
	c0.8-0.2,1.6-0.6,2.4-0.8c0.2-0.1,0.4-0.2,0.7-0.2s0.3-0.1,0.4,0.1C74,84.5,74.1,84.6,74.1,84.8z"/>
<path class="st99" d="M67.6,104.2c-0.3-0.1-0.3-0.3-0.5-0.5c-0.7-0.9-1.3-1.8-2-2.7c0-0.2,0.2-0.3,0.3-0.3c0,0,0,0,0,0
	c0.3,0.4,0.6,0.9,0.9,1.2c0.5,0.6,1,1.2,1.5,1.8c0,0,0.1,0.1,0.1,0.1C67.9,104.1,67.8,104.1,67.6,104.2z"/>
<path class="st100" d="M64.2,101.7c0.1,0.4,0.3,0.7,0.5,1c0.5,0.8,0.9,1.6,1.4,2.3c0,0.1,0.1,0.2,0.2,0.2c-0.1,0.2-0.3,0.2-0.5,0.3
	l-1.1-2c-0.2-0.4-0.5-0.9-0.7-1.3c0-0.1-0.1-0.2-0.1-0.2C63.8,101.7,64,101.6,64.2,101.7z"/>
<path class="st101" d="M69.7,84.6c0.5-0.3,1.1-0.5,1.7-0.7c0.7-0.3,1.4-0.6,2.1-0.9c0.1,0.2,0.2,0.4,0.2,0.6c-0.9,0.3-1.8,0.7-2.7,1
	c-0.4,0.1-0.7,0.3-1.1,0.4C69.8,84.9,69.7,84.7,69.7,84.6z"/>
<path class="st102" d="M72,80.2l-3.1,2c-0.1,0.1-0.3,0.1-0.3,0.3c-0.2,0-0.2-0.2-0.3-0.3c0-0.1,0.1-0.2,0.2-0.2c1-0.7,1.9-1.3,2.9-2
	c0.1-0.1,0.2-0.2,0.3-0.1C71.9,79.9,72,80.1,72,80.2z"/>
<path class="st103" d="M69.8,77.4c-0.2,0.1-0.4,0.3-0.5,0.5L67.1,80c-0.1,0.1-0.2,0.1-0.2,0.2c-0.2,0-0.3-0.1-0.3-0.3
	c0.3-0.4,0.6-0.6,0.9-1c0.5-0.6,1.1-1.1,1.6-1.7c0.1-0.1,0.2-0.2,0.3-0.2C69.5,77.1,69.7,77.3,69.8,77.4z"/>
<path class="st104" d="M50.5,101.9c-0.3,0.6-0.6,1.1-0.9,1.7c-0.3,0.6-0.6,1.1-0.9,1.6c0,0.1-0.1,0.2-0.2,0.2
	c-0.2-0.1-0.3-0.2-0.5-0.3c0.2,0,0.3-0.2,0.4-0.4l1.7-2.8c0-0.1,0.1-0.1,0.2-0.2S50.4,101.8,50.5,101.9z"/>
<path class="st105" d="M69.4,77.1c-0.2,0.1-0.3,0.3-0.5,0.5c-0.8,0.8-1.5,1.7-2.3,2.4l0,0c-0.1,0-0.2-0.1-0.2-0.2c0,0,0,0,0,0
	c0.3-0.4,0.7-0.9,1.1-1.2c0.5-0.6,1-1.1,1.5-1.7c0.1,0,0.1-0.1,0.1-0.2C69.1,76.8,69.3,76.9,69.4,77.1z"/>
<path class="st106" d="M63.9,106.3c-0.5-1.1-0.9-2.1-1.3-3.2c-0.1-0.2-0.3-0.3-0.2-0.6c0-0.1,0.2-0.2,0.3-0.2c0,0,0,0,0,0
	c0.1,0.1,0.1,0.1,0.2,0.2c0.5,1,0.9,2,1.4,3.1c0.1,0.1,0.2,0.3,0.1,0.4L63.9,106.3z"/>
<path class="st107" d="M74,84.4c-0.1-0.1-0.2-0.1-0.3,0l-3.1,1c-0.2,0-0.4,0.1-0.4,0.3C70,85.6,70,85.5,70,85.3
	c0-0.1,0.1-0.3,0.2-0.3c1.1-0.4,2.2-0.8,3.3-1.2c0.1,0,0.2-0.1,0.3,0L74,84.4z"/>
<path class="st108" d="M60.9,107.3c-0.1,0.1-0.2,0.1-0.3,0.1c-0.3,0.1-0.3-0.2-0.3-0.3c-0.1-0.5-0.2-1-0.3-1.6s-0.2-1.1-0.3-1.7
	c0-0.1,0-0.3,0-0.4c0.1-0.1,0.3-0.2,0.4-0.1c0.1,0.1,0.2,0.3,0.2,0.4c0.2,1.1,0.5,2.1,0.7,3.2C60.9,107.1,60.9,107.2,60.9,107.3z"/>
<path class="st109" d="M59.7,103.4c0.1,0.7,0.2,1.4,0.4,2.2c0.1,0.5,0.2,1,0.3,1.4c0,0.2,0,0.4,0.2,0.4c-0.2,0.1-0.4,0.1-0.7,0.1
	c-0.1-0.8-0.3-1.7-0.4-2.5c-0.1-0.5-0.2-1-0.2-1.5C59.4,103.4,59.5,103.3,59.7,103.4C59.7,103.4,59.7,103.4,59.7,103.4z"/>
<path class="st110" d="M61.5,102.9l1.3,3.8c-0.1,0.1-0.2,0.1-0.3,0.2c-0.2,0-0.2-0.2-0.2-0.3c-0.2-0.7-0.4-1.4-0.6-2.1
	c-0.1-0.3-0.2-0.7-0.3-1c-0.1-0.1-0.1-0.3,0-0.4C61.3,102.9,61.4,102.8,61.5,102.9z"/>
<path class="st111" d="M57,107.7c0.1-0.3,0.1-0.7,0-1c-0.1-0.2,0.1-0.5,0.1-0.7c-0.1-0.6,0-1.2,0-1.8c0-0.5,0-0.5-0.4-0.6
	c0.2-0.2,0.5-0.2,0.8,0c0,1.4,0.1,2.7,0.1,4.1L57,107.7z"/>
<path class="st112" d="M67.8,81.3l1.2-0.9l2-1.6c0.1,0.1,0.2,0.2,0.2,0.3c0.1,0.1,0,0.2-0.1,0.2c-1,0.7-1.9,1.5-2.8,2.2
	c-0.1,0.1-0.1,0.1-0.2,0.1C67.9,81.6,67.7,81.4,67.8,81.3C67.8,81.3,67.8,81.3,67.8,81.3z"/>
<path class="st113" d="M71.8,79.8c-0.8,0.4-1.5,1-2.3,1.5c-0.4,0.2-0.7,0.5-1.1,0.8c-0.2,0-0.2-0.2-0.2-0.3s0.1-0.2,0.2-0.3
	c0.9-0.7,1.8-1.3,2.7-2c0.1-0.1,0.2-0.2,0.3-0.1C71.6,79.6,71.7,79.7,71.8,79.8z"/>
<path class="st114" d="M64.3,106.2c-0.2-0.7-0.6-1.4-0.9-2c-0.3-0.6-0.5-1.1-0.7-1.7c0.1-0.2,0.2-0.2,0.4-0.2c0,0.2,0.1,0.3,0.2,0.5
	l1.4,2.8c0.1,0.1,0.1,0.3,0.1,0.4C64.6,106.1,64.5,106.1,64.3,106.2z"/>
<path class="st115" d="M71.7,100c-0.1-0.3-0.4-0.3-0.6-0.5c-0.8-0.6-1.7-1.2-2.5-1.7c-0.1,0-0.1-0.1-0.2-0.1c0-0.1,0-0.3,0.2-0.3
	c0.1,0,0.2,0,0.2,0.1c1.1,0.7,2.1,1.4,3.2,2.1v0.1C71.9,99.7,71.8,99.9,71.7,100z"/>
<path class="st116" d="M61.2,103c0,0.3,0.1,0.6,0.2,0.9c0.3,0.9,0.6,1.8,0.8,2.7c0,0.1,0,0.2,0.2,0.3c-0.1,0.1-0.2,0.1-0.4,0.1
	c-0.2,0.1-0.2-0.1-0.2-0.2c-0.2-0.6-0.4-1.3-0.6-1.9l-0.4-1.3c0-0.2-0.1-0.3,0-0.4C61,102.9,61.1,102.9,61.2,103z"/>
<path class="st117" d="M71.5,79.5c-0.4,0.2-0.7,0.4-1,0.7c-0.7,0.5-1.4,1-2,1.5c-0.1,0.1-0.2,0.1-0.2,0.3c-0.1,0-0.2-0.1-0.2-0.2
	c0,0,0,0,0-0.1c0.8-0.6,1.5-1.1,2.2-1.7c0.3-0.2,0.6-0.5,0.9-0.7c0,0,0.1-0.1,0.1-0.2C71.3,79.2,71.4,79.3,71.5,79.5z"/>
<path class="st118" d="M72,99.6c-0.4-0.2-0.8-0.4-1.2-0.7c-0.8-0.5-1.5-1-2.3-1.4c0-0.1,0-0.2,0.1-0.2c0.3,0.1,0.6,0.2,0.8,0.4
	c0.8,0.5,1.7,1,2.5,1.5c0.1,0,0.1,0.1,0.2,0.2C72.2,99.4,72.1,99.5,72,99.6z"/>
<path class="st119" d="M73.8,83.9c-0.7,0.2-1.4,0.5-2.1,0.7c-0.5,0.2-1,0.4-1.5,0.5c-0.1,0-0.2,0.1-0.2,0.2
	c-0.2-0.1-0.2-0.2-0.1-0.3c0-0.1,0.1-0.2,0.2-0.2l3.2-1.2c0.1,0,0.2-0.1,0.3,0C73.7,83.6,73.8,83.7,73.8,83.9z"/>
<path class="st120" d="M60.9,107.3c0-0.4-0.1-0.7-0.2-1.1c-0.2-1-0.4-1.9-0.6-2.9c0.1-0.1,0.2-0.1,0.3-0.1c0.1,0.1,0.2,0.3,0.2,0.5
	c0.2,1,0.5,2,0.7,3.1c0,0.1,0.1,0.3,0,0.4C61.1,107.3,61,107.3,60.9,107.3z"/>
<path class="st121" d="M60.9,103.1c0,0.4,0.1,0.8,0.2,1.1c0.2,0.9,0.5,1.7,0.8,2.6c0,0.1,0,0.2,0.1,0.2c-0.1,0.1-0.3,0.1-0.4,0.1
	c-0.2,0-0.2-0.1-0.2-0.2c-0.2-0.8-0.5-1.7-0.7-2.6c-0.1-0.3-0.2-0.5-0.2-0.8s-0.1-0.3,0.1-0.4S60.8,103,60.9,103.1z"/>
<path class="st122" d="M60.7,103.2c-0.1,0.2,0,0.5,0.1,0.7c0.2,0.8,0.4,1.7,0.7,2.5c0,0.3,0.1,0.5,0.2,0.8c-0.1,0.1-0.3,0.1-0.4,0.1
	c-0.1-0.6-0.3-1.2-0.4-1.8s-0.3-1.4-0.5-2.1C60.4,103.1,60.5,103.1,60.7,103.2z"/>
<path class="st14" d="M58.2,76.2c-0.2,0-0.3,0-0.5,0C57.9,76.2,58.1,76.1,58.2,76.2z"/>
<path class="st123" d="M81.6,74.9h8.4c2.2,0,4.4,0.7,6.3,2c1.4,1.1,2.3,2.7,2.5,4.4c0.4,2.2-0.2,4.5-1.4,6.4c-1.2,1.6-3,2.7-4.9,3.2
	c-2.2,0.6-4.5,0.4-6.8,0.4V99h-4L81.6,74.9 M85.6,78.5v9.1c1.3,0,2.6,0,3.9,0c1.7,0,3.3-0.7,4.4-1.9c0.8-1.1,1.1-2.6,0.7-3.9
	c-0.2-0.9-0.7-1.7-1.5-2.3c-1-0.7-2.3-1-3.5-1L85.6,78.5 M104.5,82.7c1.8-0.9,3.8-1.1,5.8-0.6c1.3,0.3,2.5,1.1,3.4,2.2
	c0-0.7,0-1.4,0-2.2h3.8c0,5.6,0,11.2,0,16.8h-3.7c0-0.8,0-1.6,0-2.4c-1.2,1.6-3.1,2.6-5.1,2.7c-1.6,0.2-3.3-0.1-4.8-0.8
	c-1.7-0.9-3-2.5-3.7-4.3c-0.7-2.1-0.7-4.3,0-6.3C100.9,85.5,102.4,83.7,104.5,82.7 M107.5,85.4c-2.1,0.6-3.7,2.3-4,4.5
	c-0.2,1.9,0.5,3.8,2,5c2.2,1.5,5.1,1.1,6.8-0.8c2-2.3,1.8-5.8-0.5-7.8C110.6,85.3,109.1,85,107.5,85.4 M144.9,81.9
	c1.9-0.2,3.8,0.3,5.4,1.3c1.7,1,3,2.6,3.6,4.5c0.8,2.3,0.6,4.9-0.5,7.1c-0.9,1.7-2.4,3.1-4.1,3.8c-4.4,2-9.5,0.2-11.6-4.2
	c-1.4-2.9-1-6.4,1-9C140.1,83.4,142.4,82.1,144.9,81.9 M144.5,85.6c-1.2,0.3-2.2,1-2.8,2c-1,1.5-1.2,3.3-0.5,5
	c0.4,0.9,1,1.7,1.8,2.3c1.4,0.9,3.1,1.1,4.7,0.4c1.1-0.5,2-1.4,2.5-2.5c0.7-1.5,0.7-3.1,0-4.6C149,86.2,146.7,85.1,144.5,85.6
	 M160.8,84.3c1.4-1.7,3.5-2.6,5.7-2.5c1.7,0,3.4,0.6,4.6,1.9c1.2,1.5,1.9,3.5,1.8,5.4c0,3.3,0,6.5,0,9.8H169v-9.3
	c0-1.1-0.2-2.1-0.8-3c-0.4-0.6-1.1-1.1-1.8-1.2c-1.3-0.3-2.7,0-3.8,0.8c-0.8,0.6-1.4,1.5-1.6,2.5c-0.1,0.7-0.2,1.5-0.1,2.3V99H157
	V82.2h3.8L160.8,84.3 M182,82.1c2.4-0.6,4.9-0.1,6.9,1.2c1.6,1.1,2.6,2.7,3,4.6c0.2,1.2,0.3,2.5,0.1,3.7h-12.8
	c0.2,1.5,1,2.8,2.2,3.6c2.4,1.3,5.4,0.7,7-1.5l3,1.7c-0.9,1.5-2.2,2.6-3.8,3.2c-1.8,0.7-3.8,0.9-5.8,0.5c-1.8-0.3-3.4-1.3-4.6-2.7
	c-1.2-1.5-1.9-3.4-2-5.4c-0.1-1.9,0.3-3.7,1.3-5.3C177.9,83.9,179.8,82.6,182,82.1 M181.6,85.7c-1.1,0.7-1.9,1.7-2.1,3h8.7
	c-0.1-1-0.6-2-1.5-2.6C185.2,85,183.2,84.8,181.6,85.7 M198,83.5c1.7-1.2,3.7-1.8,5.7-1.6c2.1,0.1,4.1,1,5.6,2.6
	c1.3,1.4,2,3.2,2,5.1c0,0.7,0,1.4-0.1,2.1h-12.8c0.2,1.5,1,2.8,2.2,3.6c2.4,1.4,5.4,0.8,7.1-1.4l3,1.7c-1.1,1.8-2.9,3.2-5,3.6
	c-2.2,0.6-4.6,0.4-6.7-0.6c-1.6-0.8-2.8-2.1-3.6-3.8c-0.8-1.8-1-3.7-0.7-5.6C195,86.9,196.2,84.9,198,83.5 M200.6,85.8
	c-1,0.7-1.8,1.7-2,2.9h8.7c-0.1-1.1-0.7-2.1-1.6-2.8C204.2,84.9,202.2,84.8,200.6,85.8 M220.6,82.2c1-0.3,2-0.3,3,0
	c0,1.2,0,2.4,0,3.6c-1.3-0.3-2.7-0.2-3.9,0.3c-0.9,0.5-1.5,1.3-1.8,2.3c-0.2,0.9-0.3,1.8-0.2,2.7V99h-3.8c0-5.6,0-11.2,0-16.8
	c1.3,0,2.5,0,3.8,0v2.4C218.4,83.4,219.4,82.6,220.6,82.2 M119.6,82.2h4.4l4.1,12l4.6-12h4.1c-3.1,7.6-6.3,15.2-9.5,22.8h-4.1
	c0.9-2,1.7-3.9,2.6-5.9C123.8,93.4,121.7,87.8,119.6,82.2L119.6,82.2z"/>
<rect x="33.9" y="67.8" class="st124" width="195.1" height="44.2"/>
</svg>
