<?xml version="1.0" encoding="utf-8"?>
<!-- Generator: Adobe Illustrator 27.5.0, SVG Export Plug-In . SVG Version: 6.00 Build 0)  -->
<svg version="1.1" xmlns="http://www.w3.org/2000/svg" xmlns:xlink="http://www.w3.org/1999/xlink" x="0px" y="0px"
	 viewBox="0 0 3710 3710" style="enable-background:new 0 0 3710 3710;" xml:space="preserve">
<g id="Background">
	<g>
		<g>
			<rect style="fill:#FFFFFF;" width="3710" height="3710"/>
		</g>
	</g>
</g>
<g id="Illustration">
	<g>
		<linearGradient id="SVGID_1_" gradientUnits="userSpaceOnUse" x1="3570.6108" y1="3984.1721" x2="1138.025" y2="963.0531">
			<stop  offset="0" style="stop-color:#DAE3FE"/>
			<stop  offset="1" style="stop-color:#E9EFFD"/>
		</linearGradient>
		<path style="fill:url(#SVGID_1_);" d="M2915.412,2782.988c-56.644,58.29-110.24,95.881-152.585,125.58
			c-497.76,349.11-1086.742,247.346-1211.918,222.494c-184.845-36.698-542.145-107.634-800.467-404.578
			c-390.82-449.252-329.963-1157.035-26.817-1624.253c55.45-85.462,348.354-559.796,943.68-635.865
			c360.285-46.036,780.261,46.813,1084.396,295.883C3390.109,1285.07,3344.661,2341.26,2915.412,2782.988z"/>
		<g>
			<path style="fill:#91B3FA;" d="M1983.549,1805.535c-48.251-211.353-161.566-386.005-304.134-494.98
				c-127.447-97.417-213.117-239.772-235.857-397.883c-2.39-16.62-5.489-33.346-9.32-50.126
				c-58.03-254.188-262.089-424.403-455.781-380.184C784.766,526.58,674.79,768.487,732.82,1022.675
				c11.866,51.977,29.842,100.429,52.587,144.252c72.592,139.855,91.852,301.969,47.84,453.567
				c-39.332,135.479-45.06,291.22-8.885,449.677c53.952,236.329,189.254,426.781,355.839,530.832
				c63.01,39.356,118.549,89.857,163.066,149.006c73.976,98.293,185.551,150.87,294.294,126.045
				c117.309-26.782,198.489-136.144,215.083-270.225c9.391-75.875,33.704-148.989,68.979-217.093
				C2004.9,2227.963,2032.333,2019.224,1983.549,1805.535z"/>
			<path style="opacity:0.57;fill:#FFFFFF;" d="M1108.014,737.286c63.655,162.215,122.002,326.349,178.617,491.093
				c14.172,41.179,27.675,82.583,41.313,123.942l20.447,62.042l19.922,62.213c13.12,41.528,26.818,82.873,39.464,124.552
				l37.946,125.026c24.223,83.674,49.162,167.138,71.815,251.264c11.386,42.043,23.597,83.857,34.122,126.136l32.159,126.66
				c41.156,169.306,78.042,339.735,106.163,511.712l-7.459,1.303l-25.977-127.86l-6.423-31.967l-7.227-31.807l-14.575-63.579
				l-14.45-63.594c-4.778-21.205-10.351-42.233-15.487-63.358c-10.557-42.183-20.776-84.444-31.607-126.553
				c-44.43-168.169-91.111-335.744-141.272-502.33c-25.723-83.1-50.724-166.414-77.031-249.34l-19.557-62.246l-20.083-62.082
				c-13.364-41.397-26.729-82.794-40.515-124.055c-26.861-82.755-54.321-165.326-82.461-247.667
				c-27.703-82.489-56.198-164.737-84.937-246.859L1108.014,737.286z"/>
		</g>
		<g>
			<path style="fill:#BDD0FB;" d="M1267.863,2019.728c-66.28-37.686-107.194-107.732-107.724-183.975
				c-0.566-81.396-20.805-170.714-62.31-257.569c-108.921-227.938-323.04-352.592-478.251-278.424
				c-155.21,74.167-192.736,319.072-83.814,547.01c21.143,44.246,46.252,84.6,74.125,120.36
				c42.265,54.228,55.948,125.423,35.563,191.086c-19.364,62.37-16.181,131.917,14.197,195.49
				c41.478,86.803,123.475,141.152,212.506,151.228c52.738,5.969,101.238,31.16,135.994,71.271
				c98.618,113.813,237.339,162.322,347.717,109.579c141.463-67.599,182.789-275.904,92.305-465.259
				C1405.033,2130.251,1339.725,2060.591,1267.863,2019.728z"/>
			
				<linearGradient id="SVGID_00000103262942965854716910000014139206637311406982_" gradientUnits="userSpaceOnUse" x1="1362.9624" y1="2381.7173" x2="2069.8582" y2="2381.7173" gradientTransform="matrix(-1 0 0 1 2847.4529 0)">
				<stop  offset="0" style="stop-color:#CE1567"/>
				<stop  offset="1" style="stop-color:#7A1DBC"/>
			</linearGradient>
			<path style="opacity:0.52;fill:url(#SVGID_00000103262942965854716910000014139206637311406982_);" d="M1584.52,2901.616
				c-3.587,1.618-7.943,1.117-11.103-1.639c-156.199-136.104-335.161-407.422-457.785-611.062
				c-132.637-220.266-229.803-411.021-230.767-412.921c-2.599-5.116-0.561-11.369,4.555-13.968
				c5.096-2.594,11.369-0.562,13.968,4.554c3.849,7.573,388.238,760.299,683.679,1017.732c4.327,3.769,4.777,10.331,1.008,14.657
				C1587.059,2900.135,1585.842,2901.019,1584.52,2901.616z"/>
		</g>
		<g>
			
				<linearGradient id="SVGID_00000115507888020492884510000016802054944476099002_" gradientUnits="userSpaceOnUse" x1="2244.9712" y1="1500.86" x2="3324.2837" y2="861.2667">
				<stop  offset="0" style="stop-color:#09005D"/>
				<stop  offset="1" style="stop-color:#1A0F91"/>
			</linearGradient>
			<path style="fill:url(#SVGID_00000115507888020492884510000016802054944476099002_);" d="M2893.341,1364.18
				c0,236.469-191.314,438.706-432.439,451.99c-246.983,13.607-455.618-175.329-455.618-422.304s208.635-449.656,455.618-452.636
				C2702.027,938.322,2893.341,1127.71,2893.341,1364.18z"/>
			
				<linearGradient id="SVGID_00000112594166060969085300000001220083278210916246_" gradientUnits="userSpaceOnUse" x1="2462.353" y1="3184.8645" x2="2487.3362" y2="1331.0431">
				<stop  offset="0" style="stop-color:#09005D"/>
				<stop  offset="1" style="stop-color:#1A0F91"/>
			</linearGradient>
			<path style="fill:url(#SVGID_00000112594166060969085300000001220083278210916246_);" d="M2928.764,1361.918
				c0,236.469-191.313,438.706-432.438,451.99c-246.983,13.607-451.649-175.329-451.649-422.304s204.666-449.656,451.649-452.636
				C2737.451,936.06,2928.764,1125.448,2928.764,1361.918z"/>
			
				<linearGradient id="SVGID_00000153678899274387168020000005227570901319678143_" gradientUnits="userSpaceOnUse" x1="1959.438" y1="179.3788" x2="2572.6123" y2="1745.0608">
				<stop  offset="0" style="stop-color:#FF928E"/>
				<stop  offset="1" style="stop-color:#FE7062"/>
			</linearGradient>
			<path style="fill:url(#SVGID_00000153678899274387168020000005227570901319678143_);" d="M2454.168,646.151
				c-415.313,0-763.809,338.59-763.809,756.26c0,417.673,348.496,732.858,763.809,704.967
				c400.041-26.866,713.7-364.308,713.7-754.581C3167.868,962.528,2854.208,646.151,2454.168,646.151z M2454.168,735.613
				c122.076-0.503,220.037,96.637,220.037,216.96c0,120.32-97.961,220.247-220.037,223.219
				c-123.462,3.006-224.58-94.088-224.58-216.894C2229.587,836.092,2330.706,736.12,2454.168,735.613z M2506.565,1375.004
				c0,28.653-23.428,52.723-52.397,53.765c-29.048,1.045-52.652-21.445-52.652-50.237c0-28.791,23.605-52.867,52.652-53.773
				C2483.137,1323.854,2506.565,1346.352,2506.565,1375.004z M2020.427,1615.806c-128.448,5.613-233.672-91.35-233.672-216.632
				c0-125.281,105.224-229.308,233.672-232.322c126.978-2.98,228.852,94.094,228.852,216.791
				C2249.279,1506.341,2147.405,1610.258,2020.427,1615.806z M2454.168,2017.916c-123.462,7.784-224.58-85.396-224.58-208.203
				c0-122.807,101.118-226.693,224.58-231.979c122.076-5.227,220.037,88.12,220.037,208.444
				C2674.205,1906.502,2576.244,2010.22,2454.168,2017.916z M2871.278,1578.629c-118.76,5.189-216.01-88.189-216.01-208.618
				c0-120.429,97.25-220.336,216.01-223.122c117.454-2.756,211.724,90.72,211.724,208.759
				C3083.001,1473.688,2988.731,1573.497,2871.278,1578.629z"/>
			
				<linearGradient id="SVGID_00000028291315919928322020000008550417297116650420_" gradientUnits="userSpaceOnUse" x1="2309.0674" y1="919.0129" x2="3002.5037" y2="2975.9424">
				<stop  offset="0" style="stop-color:#FF928E"/>
				<stop  offset="1" style="stop-color:#FE7062"/>
			</linearGradient>
			<path style="fill:url(#SVGID_00000028291315919928322020000008550417297116650420_);" d="M2489.063,646.151
				c-415.313,0-763.809,338.59-763.809,756.26c0,417.673,348.496,732.858,763.809,704.967
				c400.041-26.866,713.7-364.308,713.7-754.581C3202.762,962.528,2889.104,646.151,2489.063,646.151z M2489.063,735.613
				c122.076-0.503,220.037,96.637,220.037,216.96c0,120.32-97.962,220.247-220.037,223.219
				c-123.462,3.006-224.58-94.088-224.58-216.894C2264.482,836.092,2365.601,736.12,2489.063,735.613z M2541.46,1375.004
				c0,28.653-23.428,52.723-52.397,53.765c-29.048,1.045-52.652-21.445-52.652-50.237c0-28.791,23.604-52.867,52.652-53.773
				C2518.032,1323.854,2541.46,1346.352,2541.46,1375.004z M2055.322,1615.806c-128.448,5.613-233.672-91.35-233.672-216.632
				c0-125.281,105.224-229.308,233.672-232.322c126.978-2.98,228.852,94.094,228.852,216.791
				C2284.174,1506.341,2182.3,1610.258,2055.322,1615.806z M2489.063,2017.916c-123.462,7.784-224.58-85.396-224.58-208.203
				c0-122.807,101.118-226.693,224.58-231.979c122.076-5.227,220.037,88.12,220.037,208.444
				C2709.1,1906.502,2611.138,2010.22,2489.063,2017.916z M2906.173,1578.629c-118.76,5.189-216.01-88.189-216.01-208.618
				c0-120.429,97.25-220.336,216.01-223.122c117.454-2.756,211.724,90.72,211.724,208.759
				C3117.896,1473.688,3023.626,1573.497,2906.173,1578.629z"/>
		</g>
		<g>
			
				<linearGradient id="SVGID_00000081638457346977086330000001457068671155533720_" gradientUnits="userSpaceOnUse" x1="1900.0548" y1="1450.2563" x2="1865.0759" y2="3014.2634">
				<stop  offset="0" style="stop-color:#09005D"/>
				<stop  offset="1" style="stop-color:#1A0F91"/>
			</linearGradient>
			<path style="fill:url(#SVGID_00000081638457346977086330000001457068671155533720_);" d="M3054.651,2835.027
				c0,22.785-18.66,41.427-41.467,41.427H770.805c-22.807,0-41.467-18.642-41.467-41.427l-18.659-1288.633
				c0-22.785,26.845-67.267,76.042-63.924l2191.5-56.705c28.616-0.74,56.284,10.274,76.548,30.472
				c20.264,20.198,31.352,47.814,30.676,76.404L3054.651,2835.027z"/>
			<path style="fill:#7D97F4;" d="M3013.712,2795.282c0,21.577-17.654,39.231-39.231,39.231H824.881
				c-21.577,0-39.23-17.654-39.23-39.231l-17.607-1169.833c2.074-70.398,63.793-95.699,101.206-94.205l2100.415-56.351
				c20.104-0.54,39.548,7.201,53.781,21.409c14.234,14.208,22.008,33.639,21.503,53.744L3013.712,2795.282z"/>
			<path style="fill:#91B3FA;" d="M853.522,2760.331c2.28-102.096,1.431-1006.18-4.189-1084.26
				c-5.619-78.081,111.026-92.726,290.112-101.513c179.086-8.787,1690.103-43.576,1729.008-46.865
				c87.451-7.392,105.552,128.878,96.803,424.712c-6.573,222.256-17.467,588.385-22.48,756.759
				c-1.492,50.135-40.798,89.912-88.91,90.05c-363.613,1.042-1757.233,5.206-1850.007,8.086
				C897.097,2810.614,852.618,2800.814,853.522,2760.331z"/>
			
				<linearGradient id="SVGID_00000008108328971135274570000017513239256618237839_" gradientUnits="userSpaceOnUse" x1="1915.2346" y1="2915.8767" x2="1950.2129" y2="2166.3508">
				<stop  offset="0" style="stop-color:#09005D"/>
				<stop  offset="1" style="stop-color:#1A0F91"/>
			</linearGradient>
			<path style="fill:url(#SVGID_00000008108328971135274570000017513239256618237839_);" d="M3179.95,2983.426H649.498
				c-31.137,0-56.612-25.475-56.612-56.612l0,0c0-31.136,25.475-56.612,56.612-56.612H3179.95c31.136,0,56.612,25.475,56.612,56.612
				l0,0C3236.562,2957.951,3211.087,2983.426,3179.95,2983.426z"/>
			
				<linearGradient id="SVGID_00000003064757970118493260000013696531005307416497_" gradientUnits="userSpaceOnUse" x1="1530.8724" y1="2385.1824" x2="1570.849" y2="1632.2913">
				<stop  offset="0" style="stop-color:#4F52FF"/>
				<stop  offset="1" style="stop-color:#4042E2"/>
			</linearGradient>
			<path style="fill:url(#SVGID_00000003064757970118493260000013696531005307416497_);" d="M2158.143,2355.309H943.945
				c-21.199,0-38.384-16.381-38.384-36.587v-626.126c0-35.768,29.973-64.986,67.488-65.788l1185.093-25.33
				c21.199,0,38.384,16.38,38.384,36.587v680.656C2196.527,2338.928,2179.342,2355.309,2158.143,2355.309z"/>
			<path style="fill:#BDD0FB;" d="M1494.801,1877.185v223.591c0,5.278,5.938,8.375,10.266,5.353l166.32-116.132
				c3.803-2.656,3.701-8.319-0.195-10.836l-166.32-107.458C1500.528,1868.895,1494.801,1872.013,1494.801,1877.185z"/>
			<g>
				<path style="fill:#BDD0FB;" d="M2874.971,1977.855H2268.74c-10.584,0-19.165-8.179-19.165-18.267v-312.615
					c0-17.858,14.965-32.447,33.696-32.847l591.7-12.647c10.584,0,19.165,8.179,19.165,18.267v339.842
					C2894.136,1969.677,2885.556,1977.855,2874.971,1977.855z"/>
				<path style="opacity:0.69;fill:#FFFFFF;" d="M2543.774,1739.135v111.636c0,2.635,2.965,4.181,5.126,2.673l83.041-57.983
					c1.899-1.326,1.848-4.154-0.097-5.41l-83.041-53.652C2546.634,1734.996,2543.774,1736.553,2543.774,1739.135z"/>
			</g>
			<g>
				
					<linearGradient id="SVGID_00000179638727631690803980000000104692152620087717_" gradientUnits="userSpaceOnUse" x1="1091.6106" y1="2426.793" x2="943.6011" y2="2834.3264">
					<stop  offset="0" style="stop-color:#FF928E"/>
					<stop  offset="1" style="stop-color:#FE7062"/>
				</linearGradient>
				<path style="fill:url(#SVGID_00000179638727631690803980000000104692152620087717_);" d="M1049.078,2728.512
					c0,35.654-28.903,64.557-64.557,64.557c-35.654,0-70.807-27.028-70.807-62.682c0-35.654,35.153-66.432,70.807-66.432
					C1020.175,2663.955,1049.078,2692.858,1049.078,2728.512z"/>
				<path style="opacity:0.69;fill:#FFFFFF;" d="M964.645,2688.508v81.388c0,1.921,2.162,3.048,3.737,1.948l60.541-42.272
					c1.384-0.967,1.347-3.028-0.071-3.945l-60.541-39.115C966.729,2685.49,964.645,2686.625,964.645,2688.508z"/>
			</g>
			<path style="opacity:0.69;fill:#FFFFFF;" d="M2741.31,2765.614H1099.271c-1.979,0-3.583-1.604-3.583-3.583v-53.398
				c0-1.979,1.604-3.583,3.583-3.583H2741.31c1.979,0,3.583,1.604,3.583,3.583v53.398
				C2744.893,2764.009,2743.289,2765.614,2741.31,2765.614z"/>
			
				<linearGradient id="SVGID_00000002374448983564056750000009925419435951713980_" gradientUnits="userSpaceOnUse" x1="1734.1133" y1="2258.7268" x2="1329.3723" y2="2853.3469">
				<stop  offset="0" style="stop-color:#FF928E"/>
				<stop  offset="1" style="stop-color:#FE7062"/>
			</linearGradient>
			<path style="fill:url(#SVGID_00000002374448983564056750000009925419435951713980_);" d="M1717.175,2705.049h-607.73
				c-6.857,0-12.416,4.844-12.416,10.819v38.927c0,5.975,5.559,10.819,12.416,10.819h607.588
				C1716.83,2745.425,1716.708,2725.237,1717.175,2705.049z"/>
			<path style="opacity:0.69;fill:#FFFFFF;" d="M2865.684,2631.224H860.934c-6.514,0-11.795-5.281-11.795-11.795v-225.917
				c0-6.514,5.281-11.794,11.795-11.794h2004.75c6.514,0,11.795,5.281,11.795,11.794v225.917
				C2877.479,2625.943,2872.198,2631.224,2865.684,2631.224z"/>
			<path style="fill:#7D97F4;" d="M1215.908,2612.309H889.237c-5.703,0-10.327-4.407-10.327-9.844v-168.455
				c0-9.623,8.064-17.484,18.157-17.7l318.841-6.815c5.703,0,10.327,4.407,10.327,9.844v183.125
				C1226.235,2607.902,1221.611,2612.309,1215.908,2612.309z"/>
			<path style="fill:#7D97F4;" d="M1595.685,2612.309h-326.671c-5.703,0-10.327-4.407-10.327-9.844v-168.455
				c0-9.623,8.064-17.484,18.157-17.7l318.84-6.815c5.703,0,10.327,4.407,10.327,9.844v183.125
				C1606.012,2607.902,1601.388,2612.309,1595.685,2612.309z"/>
			<path style="fill:#7D97F4;" d="M1978.731,2612.309h-326.671c-5.703,0-10.327-4.407-10.327-9.844v-168.455
				c0-9.623,8.064-17.484,18.157-17.7l318.841-6.815c5.703,0,10.327,4.407,10.327,9.844v183.125
				C1989.058,2607.902,1984.435,2612.309,1978.731,2612.309z"/>
			<path style="fill:#7D97F4;" d="M2358.508,2612.309h-326.671c-5.703,0-10.327-4.407-10.327-9.844v-168.455
				c0-9.623,8.064-17.484,18.157-17.7l318.841-6.815c5.703,0,10.327,4.407,10.327,9.844v183.125
				C2368.835,2607.902,2364.212,2612.309,2358.508,2612.309z"/>
			<path style="fill:#7D97F4;" d="M2735.182,2612.309h-326.671c-5.703,0-10.327-4.407-10.327-9.844v-168.455
				c0-9.623,8.064-17.484,18.157-17.7l318.841-6.815c5.703,0,10.327,4.407,10.327,9.844v183.125
				C2745.509,2607.902,2740.885,2612.309,2735.182,2612.309z"/>
		</g>
		<g>
			
				<linearGradient id="SVGID_00000012439994697774653760000013494693874855563667_" gradientUnits="userSpaceOnUse" x1="-698.0986" y1="2048.3645" x2="-1412.7816" y2="2840.7312" gradientTransform="matrix(-1 0 0 1 1453.6371 0)">
				<stop  offset="0" style="stop-color:#09005D"/>
				<stop  offset="1" style="stop-color:#1A0F91"/>
			</linearGradient>
			<path style="fill:url(#SVGID_00000012439994697774653760000013494693874855563667_);" d="M2351,2314.986
				c11.646,69.837,101.245,169.801,120.112,205.943c25.622,49.186,18.362,196.704,83.076,266.621
				c30.086,32.531,68.985,40.333,103.962,38.821c25.389-1.126,55.125-14.171,78.922-22.4
				c48.72-16.849,102.914-36.142,126.788-85.756c23.448-48.797,20.109-108.62-0.466-157.884
				c-17.12-40.955-48.409-73.526-85.367-96.818c-57.028-35.947-124.304-53.301-178.342-94.373
				c-39.131-29.735-58.425-78.146-97.828-107.028c-30.009-22.051-63.86-26.553-97.285-17.625
				c-9.666,2.563-19.255,6.249-28.766,10.987c-0.077,0-0.116,0.038-0.194,0.078c-1.902,0.97-3.804,2.25-5.707,3.687
				c-5.668,4.115-10.016,8.89-13.199,14.171c-0.738,1.202-1.397,2.483-1.98,3.765
				C2349.486,2288.042,2348.671,2300.892,2351,2314.986z"/>
			
				<linearGradient id="SVGID_00000181798842107814319170000006529723766562927793_" gradientUnits="userSpaceOnUse" x1="7260.0762" y1="2791.2673" x2="6940.8696" y2="2973.4661" gradientTransform="matrix(-1 0 0 1 9285.3369 0)">
				<stop  offset="0" style="stop-color:#FEBBBA"/>
				<stop  offset="1" style="stop-color:#FF928E"/>
			</linearGradient>
			<path style="fill:url(#SVGID_00000181798842107814319170000006529723766562927793_);" d="M2073.791,3088.294
				c0.376-0.145,202.846-354.717,230.205-388.085c4.603-5.612,11.726-8.47,18.935-7.611l56.512,6.734l66.391,143.627
				l-110.604-64.414c10.944,75.692-131.142,188.18-179.872,229.225c-4.945,4.166-5.351,11.626-0.885,16.302l19.454,20.365
				c-31.939,32.374-68.794,53.162-110.39,62.776L2073.791,3088.294z"/>
			
				<linearGradient id="SVGID_00000117669778119504101700000012280143076693716630_" gradientUnits="userSpaceOnUse" x1="1505.4778" y1="1645.3207" x2="1480.9734" y2="2021.0536" gradientTransform="matrix(0.8974 -0.4412 0.4412 0.8974 -9.9421 2161.1482)">
				<stop  offset="0" style="stop-color:#4F52FF"/>
				<stop  offset="1" style="stop-color:#4042E2"/>
			</linearGradient>
			<path style="fill:url(#SVGID_00000117669778119504101700000012280143076693716630_);" d="M2162.674,3033.445
				c0,0,12.416,4.011,16.62,15.069c2.011,5.291-0.157,11.283-4.758,14.58c-20.445,14.647-87.883,61.937-119.004,71.199
				c-2.551,0.759-4.978-1.549-4.404-4.148c1.597-7.229,6.762-21.667,23.405-42.801l-1.493,3.02
				c-1.889,3.822,2.272,7.802,5.986,5.706C2099.841,3084.319,2142.238,3058.601,2162.674,3033.445z"/>
			
				<linearGradient id="SVGID_00000055665138960510913860000001527697855948983474_" gradientUnits="userSpaceOnUse" x1="7229.1973" y1="2836.7065" x2="8321.3643" y2="2152.9932" gradientTransform="matrix(-1 0 0 1 9285.3369 0)">
				<stop  offset="0" style="stop-color:#FEBBBA"/>
				<stop  offset="1" style="stop-color:#FF928E"/>
			</linearGradient>
			<path style="fill:url(#SVGID_00000055665138960510913860000001527697855948983474_);" d="M2152.654,3175.318
				c0.339-0.218,30.717-73.407,31.056-73.623c27.852-169.576,95.806-314.805,115.847-353.02c3.372-6.427,9.769-10.668,17.002-11.286
				l56.706-4.842l94.083,127.219l-121.351-40.698c26.036,71.911-90.345,210.825-129.76,260.883c-4,5.08-2.888,12.469,2.432,16.144
				l23.173,16.007c-24.726,38.167-56.611,65.984-95.401,83.818L2152.654,3175.318z"/>
			
				<linearGradient id="SVGID_00000140706098943938274790000010306879173657305485_" gradientUnits="userSpaceOnUse" x1="1747.8446" y1="1197.9496" x2="1723.342" y2="1573.6563" gradientTransform="matrix(0.7895 -0.6137 0.6137 0.7895 7.647 3191.1018)">
				<stop  offset="0" style="stop-color:#4F52FF"/>
				<stop  offset="1" style="stop-color:#4042E2"/>
			</linearGradient>
			<path style="fill:url(#SVGID_00000140706098943938274790000010306879173657305485_);" d="M2228.598,3103.615
				c0,0,12.971,1.415,19.326,11.394c3.041,4.774,2.13,11.082-1.709,15.241c-17.057,18.481-73.53,78.44-102.133,93.809
				c-2.344,1.26-5.188-0.509-5.152-3.171c0.101-7.403,2.238-22.587,14.259-46.652l-0.851,3.26c-1.077,4.126,3.804,7.18,7.016,4.376
				C2177.361,3166.153,2213.675,3132.387,2228.598,3103.615z"/>
			<g>
				
					<linearGradient id="SVGID_00000080902022032337033990000003683913546296288660_" gradientUnits="userSpaceOnUse" x1="-65.2833" y1="1314.1583" x2="-210.1911" y2="1529.0212" gradientTransform="matrix(-1 0 0 1 1453.6371 0)">
					<stop  offset="0" style="stop-color:#4F52FF"/>
					<stop  offset="1" style="stop-color:#4042E2"/>
				</linearGradient>
				<path style="fill:url(#SVGID_00000080902022032337033990000003683913546296288660_);" d="M2638.699,2705.754
					c0,0,51.298,76.3,55.507,111.104c4.209,34.804-14.184,46.84-67.877,51.279c-159.777,13.208-238.541-34.677-238.541-34.677
					c-10.93-69.689-18.708-87.418-109.991-125.31c0,0,115.459,9.166,138.695,0.149
					C2439.729,2699.282,2638.699,2705.754,2638.699,2705.754z"/>
			</g>
			
				<linearGradient id="SVGID_00000114073385385656824050000016509539377993978517_" gradientUnits="userSpaceOnUse" x1="2864.1118" y1="2058.8892" x2="2564.3032" y2="2538.5825">
				<stop  offset="0" style="stop-color:#FF928E"/>
				<stop  offset="1" style="stop-color:#FE7062"/>
			</linearGradient>
			<path style="fill:url(#SVGID_00000114073385385656824050000016509539377993978517_);" d="M2499.969,2695.654
				c0,0-59.737-56.882-89.143-94.557c-15.895-20.366-20.886-47.176-13.535-71.942c13.425-45.229,37.283-92.074,39.459-99.365
				c3.335-11.176,70.316-10.71,70.316-10.71s131.804,85.542,183.591,230.445l-58.159,18.106c0,0-34.415-57.736-68.418-94.444
				c0,0,58.838,77.727,60.91,109.546L2499.969,2695.654z"/>
			
				<linearGradient id="SVGID_00000022550095102983064190000012684221223259046562_" gradientUnits="userSpaceOnUse" x1="1595.3582" y1="2508.8167" x2="1573.6702" y2="2369.6528" gradientTransform="matrix(1 0 0 1 888.874 0)">
				<stop  offset="0" style="stop-color:#FEBBBA"/>
				<stop  offset="1" style="stop-color:#FF928E"/>
			</linearGradient>
			<path style="fill:url(#SVGID_00000022550095102983064190000012684221223259046562_);" d="M2428.65,2367.333
				c0.699,2.323,18.182,60.279,19.549,61.482c1.368,1.203,38.34,3.191,55.742-8.702l-35.52-78.575L2428.65,2367.333z"/>
			
				<linearGradient id="SVGID_00000029034420466985134920000017303307712060062362_" gradientUnits="userSpaceOnUse" x1="2286.4304" y1="506.1507" x2="2426.5764" y2="601.3441" gradientTransform="matrix(0.723 -0.6909 0.6909 0.723 368.0431 3572.7656)">
				<stop  offset="0" style="stop-color:#FEBBBA"/>
				<stop  offset="1" style="stop-color:#FF928E"/>
			</linearGradient>
			<path style="fill:url(#SVGID_00000029034420466985134920000017303307712060062362_);" d="M2380.569,2302.231
				c0,0-12.447,28.75,2.177,72.458c14.624,43.709,38.522,47.507,53.656,36.701c15.135-10.805,34.759-30.114,37.199-69.708
				C2476.041,2302.089,2397.714,2265.868,2380.569,2302.231z"/>
			
				<linearGradient id="SVGID_00000017509874304614353250000005627588277948517781_" gradientUnits="userSpaceOnUse" x1="-720.6589" y1="2028.5621" x2="-1434.6031" y2="2820.1099" gradientTransform="matrix(-1 0 0 1 1453.6371 0)">
				<stop  offset="0" style="stop-color:#09005D"/>
				<stop  offset="1" style="stop-color:#1A0F91"/>
			</linearGradient>
			<path style="fill:url(#SVGID_00000017509874304614353250000005627588277948517781_);" d="M2351.796,2314.986
				c7.609,12.966,21.425,18.861,21.425,18.861l0,0c0-11.142,12.971-21.501,23.841-24.957c10.87-3.454,22.351-0.737,30.62,7.066
				c10.715,10.132,16.572,23.719,16.572,23.719l3.55-1.049c0,0-0.282-17.314,10.704-13.276
				c10.948,4.075,15.426,26.941,15.426,26.941s23.28,10.676,25.454-20.458c2.174-31.097-11.536-57.223-51.91-79.35
				c-14.247-7.842-29.119-10.016-42.9-7.997c-10.443,1.475-20.266,5.357-28.768,10.987c-8.657,5.667-15.558,13.121-20.683,21.7
				C2349.885,2288.042,2349.467,2300.892,2351.796,2314.986z"/>
			
				<linearGradient id="SVGID_00000170991870646430582850000007784912687161936537_" gradientUnits="userSpaceOnUse" x1="2294.8289" y1="493.7846" x2="2434.9771" y2="588.9796" gradientTransform="matrix(0.723 -0.6909 0.6909 0.723 368.0431 3572.7656)">
				<stop  offset="0" style="stop-color:#FEBBBA"/>
				<stop  offset="1" style="stop-color:#FF928E"/>
			</linearGradient>
			<path style="fill:url(#SVGID_00000170991870646430582850000007784912687161936537_);" d="M2453.149,2339.83
				c0,0-13.754-30.329,5.511-31.426c19.266-1.097,11.428,29.237,7.588,40.305L2453.149,2339.83z"/>
			
				<linearGradient id="SVGID_00000146463549381823737100000016824459388210853766_" gradientUnits="userSpaceOnUse" x1="1695.4648" y1="2686.2463" x2="2013.4423" y2="2686.2463" gradientTransform="matrix(1 0 0 1 888.874 0)">
				<stop  offset="0" style="stop-color:#FEBBBA"/>
				<stop  offset="1" style="stop-color:#FF928E"/>
			</linearGradient>
			<path style="fill:url(#SVGID_00000146463549381823737100000016824459388210853766_);" d="M2386.151,2718.101l44.886-48.837
				l51.839,13.959c0,0,60.436,9.364,95.026,0c34.59-9.363,34.59-9.363,34.59-9.363l78.165-24.335l12.277,34.695
				c3.117,8.808-0.015,18.588-7.632,24c-6.762,4.805-14.689,10.087-19.742,12.297c-10.293,4.503-237.125,1.424-237.125,1.424
				L2386.151,2718.101z"/>
			<g>
				
					<linearGradient id="SVGID_00000153696496739800569260000015265171393479511963_" gradientUnits="userSpaceOnUse" x1="1584.9821" y1="2819.2876" x2="1418.6385" y2="2864.8782" gradientTransform="matrix(0.9988 -0.0494 0.0494 0.9988 847.405 -55.0328)">
					<stop  offset="0" style="stop-color:#09005D"/>
					<stop  offset="1" style="stop-color:#1A0F91"/>
				</linearGradient>
				<path style="fill:url(#SVGID_00000153696496739800569260000015265171393479511963_);" d="M2534.73,2737.429
					c-0.158,0.008-0.315,0.012-0.475,0.011l-206.457-0.225c-5.104-0.004-9.237-4.146-9.231-9.25
					c0.005-5.106,4.162-9.323,9.252-9.232l206.457,0.225c5.104,0.004,9.237,4.146,9.231,9.25
					C2543.501,2733.153,2539.613,2737.188,2534.73,2737.429z"/>
				
					<linearGradient id="SVGID_00000086674517223030840510000001951736380873071759_" gradientUnits="userSpaceOnUse" x1="1455.7457" y1="2575.1143" x2="1337.7174" y2="2699.8628" gradientTransform="matrix(1 0 0 1 888.874 0)">
					<stop  offset="0" style="stop-color:#09005D"/>
					<stop  offset="1" style="stop-color:#1A0F91"/>
				</linearGradient>
				<path style="fill:url(#SVGID_00000086674517223030840510000001951736380873071759_);" d="M2142.202,2549.979h171.939
					c12.684,0,24.229,7.32,29.639,18.792l79.487,168.548h-213.674c-8.174,0-15.518-4.994-18.522-12.596l-61.639-155.966
					C2125.871,2559.745,2132.512,2549.979,2142.202,2549.979z"/>
			</g>
			<g style="opacity:0.7;">
				
					<linearGradient id="SVGID_00000098187353168244970200000014652902855612050560_" gradientUnits="userSpaceOnUse" x1="2439.4009" y1="2378.592" x2="2801.313" y2="2378.592">
					<stop  offset="0" style="stop-color:#DAE3FE"/>
					<stop  offset="1" style="stop-color:#E9EFFD"/>
				</linearGradient>
				<path style="fill:url(#SVGID_00000098187353168244970200000014652902855612050560_);" d="M2800.053,2509.249
					c-0.406,0-0.801-0.194-1.046-0.553c-25.002-36.909-68.891-51.177-115.358-66.282c-52.466-17.056-106.718-34.693-131.896-87.815
					c-23.891-50.405-52.865-76.04-72.966-88.667c-21.758-13.67-38.09-15.465-38.252-15.481c-0.693-0.071-1.197-0.688-1.128-1.381
					c0.071-0.693,0.68-1.19,1.381-1.128c0.681,0.067,16.96,1.834,39.19,15.76c20.43,12.799,49.86,38.77,74.055,89.817
					c24.713,52.141,78.439,69.607,130.397,86.497c44.826,14.573,91.178,29.641,116.666,67.266c0.391,0.576,0.24,1.361-0.336,1.752
					C2800.542,2509.178,2800.296,2509.249,2800.053,2509.249z"/>
				
					<linearGradient id="SVGID_00000182527047031664614960000010033008983241213869_" gradientUnits="userSpaceOnUse" x1="2780.0273" y1="2699.0181" x2="2848.5354" y2="2699.0181">
					<stop  offset="0" style="stop-color:#DAE3FE"/>
					<stop  offset="1" style="stop-color:#E9EFFD"/>
				</linearGradient>
				<path style="fill:url(#SVGID_00000182527047031664614960000010033008983241213869_);" d="M2781.288,2762.878
					c-0.519,0-1.006-0.323-1.189-0.841c-0.231-0.657,0.112-1.378,0.768-1.609c77.703-27.48,64.342-122.861,64.197-123.822
					c-0.102-0.689,0.373-1.332,1.061-1.433c0.686-0.11,1.33,0.369,1.435,1.059c0.146,0.98,13.79,98.407-65.852,126.573
					C2781.569,2762.855,2781.428,2762.878,2781.288,2762.878z"/>
			</g>
		</g>
	</g>
</g>
</svg>
