<?xml version="1.0" standalone="no"?>
<!DOCTYPE svg PUBLIC "-//W3C//DTD SVG 20010904//EN"
 "http://www.w3.org/TR/2001/REC-SVG-20010904/DTD/svg10.dtd">
<svg version="1.0" xmlns="http://www.w3.org/2000/svg"
 width="1080.000000pt" height="1080.000000pt" viewBox="0 0 1080.000000 1080.000000"
 preserveAspectRatio="xMidYMid meet">

<g transform="translate(0.000000,1080.000000) scale(0.100000,-0.100000)"
fill="#000000" stroke="none">
<path d="M5025 10360 c-629 -36 -1280 -207 -1852 -489 -224 -111 -307 -157
-507 -289 -311 -202 -512 -367 -787 -641 -263 -263 -448 -490 -631 -771 -430
-661 -680 -1368 -768 -2175 -18 -165 -24 -622 -11 -805 96 -1312 682 -2480
1681 -3350 188 -164 523 -399 759 -534 343 -196 787 -376 1176 -476 833 -215
1702 -208 2525 20 1053 291 2003 962 2647 1868 583 820 893 1792 893 2802 0
1156 -409 2265 -1159 3145 -125 147 -368 391 -516 520 -772 667 -1740 1077
-2755 1164 -175 15 -516 20 -695 11z m100 -3613 c99 -19 200 -75 336 -185 48
-40 96 -72 106 -72 11 0 32 14 49 31 37 40 175 144 228 172 74 39 130 46 356
46 251 1 367 -15 499 -68 102 -41 221 -137 221 -177 0 -16 7 -24 22 -26 17 -2
28 -23 60 -113 21 -60 46 -132 55 -160 40 -127 56 -173 71 -205 23 -48 27
-245 12 -578 -15 -346 -5 -394 88 -427 92 -33 124 -49 137 -70 10 -15 13 -90
13 -316 0 -163 -3 -300 -7 -305 -23 -34 -60 -36 -645 -35 -655 2 -594 -7 -614
90 -38 188 -51 786 -23 1066 8 72 14 182 14 245 0 96 -4 123 -22 163 -11 27
-21 58 -21 69 0 11 -13 33 -29 49 -58 57 -157 33 -222 -55 -42 -55 -73 -141
-72 -201 0 -22 7 -87 14 -145 14 -113 15 -204 4 -402 -7 -125 -7 -126 16 -141
13 -8 63 -19 111 -25 47 -6 102 -17 120 -25 33 -14 34 -16 46 -99 27 -188 8
-537 -32 -577 -12 -11 -121 -14 -620 -15 -594 -1 -605 -1 -620 19 -36 49 -39
105 -40 770 -1 578 -3 658 -19 719 -23 93 -66 229 -77 240 -14 14 -110 -38
-160 -86 -33 -31 -49 -57 -58 -93 -8 -28 -18 -63 -23 -80 -5 -16 -12 -75 -16
-131 -6 -98 -5 -105 21 -155 30 -57 30 -65 6 -249 -17 -122 -8 -180 31 -219
31 -31 97 -51 172 -51 87 0 90 -11 88 -314 -2 -250 -9 -315 -38 -348 -29 -32
-115 -41 -298 -32 -218 11 -601 11 -777 0 -153 -10 -296 4 -345 34 -42 25 -53
83 -53 279 0 219 23 349 67 378 12 8 47 17 77 20 31 3 61 11 66 18 38 46 58
791 25 903 -23 75 -68 119 -134 128 -80 10 -82 17 -88 313 -7 287 -4 315 38
340 55 34 278 46 594 33 306 -13 332 -19 354 -77 6 -19 25 -48 41 -65 37 -39
52 -36 137 35 72 60 131 91 188 100 22 4 55 16 73 27 19 11 59 26 90 33 79 17
321 18 407 2z"/>
<path d="M3985 6360 c3 -5 8 -10 11 -10 2 0 4 5 4 10 0 6 -5 10 -11 10 -5 0
-7 -4 -4 -10z"/>
<path d="M4940 6279 c0 -5 5 -7 10 -4 6 3 10 8 10 11 0 2 -4 4 -10 4 -5 0 -10
-5 -10 -11z"/>
<path d="M6330 6261 c-10 -19 -8 -21 16 -21 24 0 25 2 13 18 -7 9 -14 19 -15
20 -1 2 -7 -6 -14 -17z"/>
<path d="M3870 6234 c0 -8 5 -12 10 -9 6 3 10 10 10 16 0 5 -4 9 -10 9 -5 0
-10 -7 -10 -16z"/>
<path d="M5016 6243 c-11 -11 -6 -23 9 -23 8 0 15 4 15 9 0 13 -16 22 -24 14z"/>
<path d="M6503 6164 c-18 -19 -16 -37 3 -30 9 3 18 6 20 6 7 0 4 29 -3 33 -5
3 -14 -1 -20 -9z"/>
<path d="M5140 6150 c0 -5 7 -10 15 -10 8 0 15 5 15 10 0 6 -7 10 -15 10 -8 0
-15 -4 -15 -10z"/>
<path d="M4105 6130 c-3 -5 -1 -10 4 -10 6 0 11 5 11 10 0 6 -2 10 -4 10 -3 0
-8 -4 -11 -10z"/>
<path d="M3884 6106 c-7 -29 4 -69 17 -61 12 8 12 85 -1 85 -5 0 -12 -11 -16
-24z"/>
<path d="M5175 6110 c-3 -5 -1 -19 6 -32 11 -20 12 -21 25 -4 7 10 10 24 7 32
-6 16 -29 19 -38 4z"/>
<path d="M5066 6095 c4 -9 11 -14 16 -13 15 5 11 23 -6 26 -11 2 -14 -2 -10
-13z"/>
<path d="M4197 6082 c-8 -12 5 -62 14 -56 12 7 12 64 0 64 -6 0 -12 -3 -14 -8z"/>
<path d="M6710 6025 c-13 -16 -7 -45 9 -45 14 0 29 32 24 48 -6 16 -18 15 -33
-3z"/>
<path d="M4960 6004 c0 -9 5 -14 12 -12 18 6 21 28 4 28 -9 0 -16 -7 -16 -16z"/>
<path d="M3803 5971 c-10 -15 -9 -22 6 -35 22 -20 29 -14 23 24 -5 35 -12 38
-29 11z"/>
<path d="M5150 5960 c0 -5 5 -10 10 -10 6 0 10 5 10 10 0 6 -4 10 -10 10 -5 0
-10 -4 -10 -10z"/>
<path d="M6610 5944 c0 -20 22 -74 31 -74 16 0 10 37 -11 61 -10 13 -19 19
-20 13z"/>
<path d="M6720 5940 c0 -5 5 -10 10 -10 6 0 10 5 10 10 0 6 -4 10 -10 10 -5 0
-10 -4 -10 -10z"/>
<path d="M5347 5933 c-10 -10 -8 -51 3 -58 13 -8 25 44 13 56 -5 5 -12 6 -16
2z"/>
<path d="M5222 5918 c-14 -14 -16 -68 -3 -68 5 0 11 10 14 23 2 12 8 30 12 40
8 20 -5 23 -23 5z"/>
<path d="M4027 5882 c-46 -47 -47 -58 -4 -32 17 11 40 20 49 20 23 0 32 18 18
35 -17 21 -22 20 -63 -23z"/>
<path d="M5490 5858 c-7 -18 -15 -37 -18 -41 -2 -5 6 -7 19 -5 20 2 25 10 27
41 4 46 -9 48 -28 5z"/>
<path d="M3860 5860 c0 -5 7 -10 15 -10 8 0 15 5 15 10 0 6 -7 10 -15 10 -8 0
-15 -4 -15 -10z"/>
<path d="M5124 5815 c3 -27 13 -56 22 -65 15 -14 16 -11 10 35 -3 27 -13 56
-22 65 -15 14 -16 11 -10 -35z"/>
<path d="M6700 5830 c0 -11 5 -20 10 -20 6 0 10 9 10 20 0 11 -4 20 -10 20 -5
0 -10 -9 -10 -20z"/>
<path d="M5251 5824 c0 -11 3 -14 6 -6 3 7 2 16 -1 19 -3 4 -6 -2 -5 -13z"/>
<path d="M3910 5820 c0 -5 5 -10 10 -10 6 0 10 5 10 10 0 6 -4 10 -10 10 -5 0
-10 -4 -10 -10z"/>
<path d="M3755 5740 c3 -5 13 -10 21 -10 8 0 12 5 9 10 -3 6 -13 10 -21 10 -8
0 -12 -4 -9 -10z"/>
<path d="M4095 5740 c3 -5 13 -10 21 -10 8 0 14 5 14 10 0 6 -9 10 -21 10 -11
0 -17 -4 -14 -10z"/>
<path d="M3738 5674 c-10 -10 36 -74 52 -71 23 4 23 30 0 55 -20 21 -41 28
-52 16z"/>
<path d="M6557 5673 c-14 -13 -6 -24 15 -21 27 4 36 28 11 28 -11 0 -23 -3
-26 -7z"/>
<path d="M6665 5651 c-3 -5 -1 -12 5 -16 5 -3 10 1 10 9 0 18 -6 21 -15 7z"/>
<path d="M3985 5643 c11 -3 24 -9 30 -14 15 -15 28 -10 15 6 -7 8 -24 14 -39
14 -20 -1 -22 -2 -6 -6z"/>
<path d="M3797 5563 c-11 -10 -8 -43 3 -43 6 0 10 11 10 25 0 26 -2 29 -13 18z"/>
<path d="M6530 5550 c0 -5 5 -10 11 -10 5 0 7 5 4 10 -3 6 -8 10 -11 10 -2 0
-4 -4 -4 -10z"/>
<path d="M6725 5540 c3 -5 8 -10 11 -10 2 0 4 5 4 10 0 6 -5 10 -11 10 -5 0
-7 -4 -4 -10z"/>
<path d="M5250 5481 c0 -20 17 -37 27 -28 7 8 -7 47 -18 47 -5 0 -9 -9 -9 -19z"/>
<path d="M6820 5470 c0 -5 5 -10 10 -10 6 0 10 5 10 10 0 6 -4 10 -10 10 -5 0
-10 -4 -10 -10z"/>
<path d="M6532 5447 c-16 -19 11 -58 28 -41 14 14 10 46 -6 51 -6 2 -16 -2
-22 -10z"/>
<path d="M3830 5425 c0 -9 7 -18 15 -21 23 -9 45 3 39 21 -8 20 -54 20 -54 0z"/>
<path d="M4051 5414 c0 -11 3 -14 6 -6 3 7 2 16 -1 19 -3 4 -6 -2 -5 -13z"/>
<path d="M5060 5405 c0 -9 6 -12 15 -9 8 4 15 10 15 15 0 5 -7 9 -15 9 -8 0
-15 -7 -15 -15z"/>
<path d="M4085 5390 c4 -6 11 -8 16 -5 14 9 11 15 -7 15 -8 0 -12 -5 -9 -10z"/>
<path d="M5319 5328 c7 -36 31 -51 31 -20 0 30 -11 52 -25 52 -9 0 -11 -9 -6
-32z"/>
<path d="M5250 5321 c0 -17 5 -31 10 -31 6 0 10 11 10 24 0 14 -4 28 -10 31
-6 4 -10 -7 -10 -24z"/>
<path d="M6334 5316 c-9 -23 17 -128 31 -126 14 1 6 89 -10 120 -12 23 -14 24
-21 6z"/>
<path d="M5420 5290 c0 -13 5 -20 13 -17 6 2 12 10 12 17 0 7 -6 15 -12 18 -8
2 -13 -5 -13 -18z"/>
<path d="M3735 5290 c4 -6 11 -8 16 -5 14 9 11 15 -7 15 -8 0 -12 -5 -9 -10z"/>
<path d="M5398 5245 c-8 -9 3 -128 12 -139 9 -9 24 90 18 119 -3 19 -20 30
-30 20z"/>
<path d="M4140 5222 c0 -14 11 -21 26 -15 8 3 11 9 8 14 -7 11 -34 12 -34 1z"/>
<path d="M5160 5192 c0 -19 12 -42 22 -42 14 0 5 43 -9 48 -7 2 -13 -1 -13 -6z"/>
<path d="M6555 5150 c-21 -23 -12 -60 16 -60 15 0 19 7 19 34 0 43 -12 52 -35
26z"/>
<path d="M6690 5159 c0 -5 5 -7 10 -4 6 3 10 8 10 11 0 2 -4 4 -10 4 -5 0 -10
-5 -10 -11z"/>
<path d="M5240 5140 c0 -5 5 -10 10 -10 6 0 10 5 10 10 0 6 -4 10 -10 10 -5 0
-10 -4 -10 -10z"/>
<path d="M5306 5105 c4 -8 8 -15 10 -15 2 0 4 7 4 15 0 8 -4 15 -10 15 -5 0
-7 -7 -4 -15z"/>
<path d="M3720 5015 c0 -8 2 -15 4 -15 2 0 6 7 10 15 3 8 1 15 -4 15 -6 0 -10
-7 -10 -15z"/>
<path d="M6385 5019 c-4 -6 -4 -13 -1 -16 8 -8 36 5 36 17 0 13 -27 13 -35 -1z"/>
<path d="M6662 4991 c10 -16 9 -23 -5 -39 -9 -10 -14 -22 -10 -25 11 -11 33
14 33 37 0 12 5 27 12 34 9 9 6 12 -15 12 -24 0 -26 -2 -15 -19z"/>
<path d="M3970 4990 c-20 -6 -15 -8 25 -9 36 0 46 2 35 9 -17 11 -25 11 -60 0z"/>
<path d="M6450 4944 c0 -21 19 -54 31 -54 19 0 21 31 4 50 -22 24 -35 26 -35
4z"/>
<path d="M6795 4950 c-3 -5 1 -10 9 -10 9 0 16 5 16 10 0 6 -4 10 -9 10 -6 0
-13 -4 -16 -10z"/>
<path d="M3767 4935 c-5 -11 0 -15 19 -15 16 0 24 5 22 13 -7 18 -35 20 -41 2z"/>
<path d="M3930 4929 c0 -22 25 -52 40 -47 9 3 5 13 -13 33 -18 21 -26 25 -27
14z"/>
<path d="M4190 4895 c0 -8 7 -15 15 -15 9 0 12 6 9 15 -4 8 -10 15 -15 15 -5
0 -9 -7 -9 -15z"/>
<path d="M5283 4884 c-8 -21 23 -52 38 -37 14 14 2 53 -17 53 -8 0 -17 -7 -21
-16z"/>
<path d="M6430 4830 c0 -5 9 -10 20 -10 11 0 20 5 20 10 0 6 -9 10 -20 10 -11
0 -20 -4 -20 -10z"/>
<path d="M3760 4776 c0 -2 7 -9 15 -16 12 -10 15 -10 15 4 0 9 -7 16 -15 16
-8 0 -15 -2 -15 -4z"/>
<path d="M6620 4761 c-17 -33 -11 -48 10 -22 11 13 20 27 20 32 0 16 -19 9
-30 -10z"/>
<path d="M5480 4756 c0 -11 9 -16 26 -16 31 0 28 23 -4 28 -15 2 -22 -2 -22
-12z"/>
<path d="M5425 4730 c4 -6 11 -8 16 -5 14 9 11 15 -7 15 -8 0 -12 -5 -9 -10z"/>
<path d="M3850 4674 c0 -9 7 -14 17 -12 25 5 28 28 4 28 -12 0 -21 -6 -21 -16z"/>
<path d="M6510 4645 c0 -8 5 -15 10 -15 6 0 10 7 10 15 0 8 -4 15 -10 15 -5 0
-10 -7 -10 -15z"/>
</g>
</svg>
