<?xml version="1.0" standalone="no"?>
<!DOCTYPE svg PUBLIC "-//W3C//DTD SVG 20010904//EN"
 "http://www.w3.org/TR/2001/REC-SVG-20010904/DTD/svg10.dtd">
<svg version="1.0" xmlns="http://www.w3.org/2000/svg"
 width="256.000000pt" height="256.000000pt" viewBox="0 0 256.000000 256.000000"
 preserveAspectRatio="xMidYMid meet">

<g transform="translate(0.000000,256.000000) scale(0.100000,-0.100000)"
fill="#000000" stroke="none">
<path d="M1162 2550 c-366 -37 -691 -222 -908 -516 -373 -503 -319 -1211 125
-1655 497 -496 1305 -496 1802 0 496 497 496 1305 0 1802 -266 265 -653 405
-1019 369z m764 -852 c171 -63 274 -216 274 -408 0 -251 -176 -431 -420 -431
-97 0 -169 21 -249 75 l-48 33 -23 -146 c-12 -80 -27 -172 -32 -203 l-10 -58
-99 0 c-54 0 -99 2 -99 4 0 2 22 133 50 291 l49 287 -23 37 c-42 66 -98 184
-127 266 l-29 80 0 -155 c0 -229 -31 -323 -137 -420 -71 -65 -142 -91 -248
-91 -192 0 -322 100 -379 290 -13 44 -16 104 -16 303 l0 248 94 0 94 0 4 -247
3 -248 28 -58 c62 -126 206 -154 297 -58 57 60 62 88 67 364 l5 247 164 0 c90
0 164 -2 164 -4 0 -14 64 -215 76 -239 l15 -29 29 61 c93 196 319 286 526 209z"/>
<path d="M1711 1535 c-82 -26 -138 -101 -171 -230 -11 -43 -20 -89 -20 -102 0
-34 73 -108 137 -140 222 -108 424 110 322 347 -11 25 -30 55 -42 68 -53 57
-150 82 -226 57z"/>
</g>
</svg>
