<?xml version="1.0" encoding="utf-8"?>
<!-- Generator: Adobe Illustrator 27.5.0, SVG Export Plug-In . SVG Version: 6.00 Build 0)  -->
<svg version="1.1" xmlns="http://www.w3.org/2000/svg" xmlns:xlink="http://www.w3.org/1999/xlink" x="0px" y="0px"
	 viewBox="0 0 500 500" style="enable-background:new 0 0 500 500;" xml:space="preserve">
<g id="Background_Complete">
	<g>
		<g>
			<g>
				<g>
					<path style="fill:#F5F5F5;" d="M220.795,468.831c-1.496-1.283-4.834-5.348-2.26-10.077c0.944-1.734,2.947-2.591,4.762-3.355
						c1.814-0.764,3.72-1.428,5.221-2.705c2.831-2.408,3.612-6.409,5.491-9.622c2.157-3.688,6.184-6.451,10.438-6.258
						c4.872,0.221,8.934,4.2,10.776,8.737c1.842,4.536,1.906,9.574,1.944,14.473c0.021,2.709-0.099,5.763-2.088,7.592
						c-1.834,1.687-4.594,1.708-7.079,1.631c-8.874-0.273-17.748-0.545-26.622-0.818"/>
				</g>
			</g>
		</g>
		<g>
			<g>
				<g>
					<g>
						<path style="fill:#E0E0E0;" d="M271.712,395.626h-70.011l12.611,75.199c0.551,3.284,2.928,5.816,5.977,6.695
							c0.081,0.025,0.164,0.044,0.245,0.067c0.208,0.053,0.409,0.124,0.623,0.161c0.462,0.095,0.939,0.144,1.424,0.164
							c0.004,0.023,0.008,0.049,0.011,0.072l0.341-0.054c0.001,0,0.002,0,0.002,0h31.203c0.587,0,1.16-0.06,1.715-0.171
							c3.685-0.57,6.634-3.527,7.083-7.35l6.079-51.813l0.274-2.06h-0.032l2.408-20.52L271.712,395.626z M258.504,443.594h-7.185
							l0.725-21.824h8.324L258.504,443.594z M261.066,421.769h6.878l-2.561,21.824h-6.182L261.066,421.769z M240.54,467.787
							l-0.437-18.96h10.346l-0.63,18.96H240.54z M229.355,448.827h10.053l0.437,18.96h-9.017L229.355,448.827z M230.132,467.787
							h-8.429c-0.801-5.119-1.843-11.772-2.972-18.96h9.927L230.132,467.787z M228.948,443.594l-1.696-21.824h11.533l0.503,21.824
							H228.948z M239.983,443.594l-0.503-21.824h11.869l-0.725,21.824H239.983z M239.36,416.535l-0.465-20.211h13.3l-0.671,20.211
							H239.36z M238.665,416.535h-11.82l-1.571-20.211h12.924L238.665,416.535z M226.149,416.535h-12.505
							c-0.443-2.791-0.863-5.434-1.242-7.811c-1.305-8.172-1.795-11.244-2.067-12.4h14.243L226.149,416.535z M226.555,421.769
							l1.696,21.824H217.91c-0.348-2.214-0.7-4.454-1.053-6.696c-0.811-5.152-1.622-10.302-2.385-15.128H226.555z M217.206,443.594
							h-6.756l-3.661-21.824h6.978C214.834,428.514,216.016,436.021,217.206,443.594z M218.028,448.827
							c1.03,6.561,2.043,13.03,2.971,18.96h-6.491l-3.18-18.96H218.028z M250.516,467.787l0.63-18.96h6.911l-1.62,18.96H250.516z
							 M252.218,416.535l0.671-20.211h9.653l-1.727,20.211H252.218z M209.672,396.324c0.278,1.461,1.555,9.414,3.267,20.211h-7.027
							l-3.39-20.211H209.672z M262.546,467.787h-5.411l1.62-18.96h6.016L262.546,467.787z M268.559,416.535h-7.045l1.727-20.211
							h7.69L268.559,416.535z"/>
					</g>
				</g>
			</g>
		</g>
	</g>
	<g>
		<g>
			<g>
				<g>
					<g>
						<g>
							<g>
								<g>
									<path style="fill:#EBEBEB;" d="M275.117,321.299l-37.767,11.771c-2.61,0.813-5.385-0.643-6.198-3.253l-16.293-52.274
										c-0.813-2.61,0.643-5.385,3.253-6.198l23.952-7.465l24.497,13.331l11.81,37.89
										C279.183,317.71,277.727,320.485,275.117,321.299z"/>
								</g>
							</g>
						</g>
					</g>
				</g>
			</g>
			<g>
				<g>
					<g>
						<g>
							<g>
								<g>
									<path style="fill:#E0E0E0;" d="M242.063,263.879l4.585,14.712c0.757,2.427,3.337,3.782,5.764,3.026l14.147-4.407
										L242.063,263.879z"/>
								</g>
							</g>
						</g>
					</g>
				</g>
			</g>
		</g>
		<g>
			<g>
				<g>
					<g>
						<g>
							<path style="fill:#FAFAFA;" d="M243.294,278.978c0.059,0.189-3.805,1.561-8.629,3.065c-4.826,1.504-8.784,2.57-8.843,2.381
								c-0.059-0.189,3.804-1.561,8.63-3.065C239.276,279.855,243.235,278.789,243.294,278.978z"/>
						</g>
					</g>
				</g>
			</g>
		</g>
		<g>
			<g>
				<g>
					<g>
						<g>
							<path style="fill:#FAFAFA;" d="M257.171,283.779c0.059,0.189-6.331,2.349-14.271,4.823
								c-7.943,2.476-14.427,4.329-14.486,4.14c-0.059-0.189,6.33-2.349,14.273-4.824
								C250.627,285.443,257.112,283.59,257.171,283.779z"/>
						</g>
					</g>
				</g>
			</g>
		</g>
		<g>
			<g>
				<g>
					<g>
						<g>
							<path style="fill:#FAFAFA;" d="M261.926,289.918c0.059,0.189-6.911,2.53-15.566,5.227
								c-8.658,2.698-15.722,4.732-15.781,4.543c-0.059-0.189,6.91-2.529,15.568-5.227
								C254.802,291.763,261.867,289.729,261.926,289.918z"/>
						</g>
					</g>
				</g>
			</g>
		</g>
		<g>
			<g>
				<g>
					<g>
						<g>
							<path style="fill:#FAFAFA;" d="M263.969,296.471c0.059,0.189-6.911,2.53-15.566,5.227
								c-8.658,2.699-15.722,4.732-15.781,4.543c-0.059-0.189,6.91-2.529,15.568-5.228
								C256.844,298.316,263.91,296.282,263.969,296.471z"/>
						</g>
					</g>
				</g>
			</g>
		</g>
		<g>
			<g>
				<g>
					<g>
						<g>
							<path style="fill:#FAFAFA;" d="M266.011,303.025c0.059,0.189-6.911,2.53-15.566,5.227
								c-8.658,2.699-15.722,4.732-15.781,4.543c-0.059-0.189,6.91-2.529,15.568-5.228
								C258.887,304.87,265.952,302.836,266.011,303.025z"/>
						</g>
					</g>
				</g>
			</g>
		</g>
		<g>
			<g>
				<g>
					<g>
						<g>
							<path style="fill:#FAFAFA;" d="M268.054,309.578c0.059,0.189-6.911,2.53-15.566,5.227
								c-8.658,2.698-15.722,4.732-15.781,4.543c-0.059-0.189,6.91-2.529,15.568-5.228
								C260.929,311.423,267.995,309.389,268.054,309.578z"/>
						</g>
					</g>
				</g>
			</g>
		</g>
	</g>
	<g>
		<g>
			<g>
				<g>
					<g>
						<g>
							<g>
								<g>
									<path style="fill:#EBEBEB;" d="M435.382,117.311l-36.868-14.342c-2.547-0.991-3.81-3.86-2.818-6.407l19.851-51.03
										c0.991-2.548,3.86-3.81,6.407-2.819l23.382,9.095l10.842,25.695l-14.388,36.988
										C440.798,117.04,437.929,118.301,435.382,117.311z"/>
								</g>
							</g>
						</g>
					</g>
				</g>
			</g>
			<g>
				<g>
					<g>
						<g>
							<g>
								<g>
									<path style="fill:#E0E0E0;" d="M445.335,51.808l-5.587,14.362c-0.922,2.369,0.252,5.037,2.621,5.959l13.808,5.374
										L445.335,51.808z"/>
								</g>
							</g>
						</g>
					</g>
				</g>
			</g>
		</g>
		<g>
			<g>
				<g>
					<g>
						<g>
							<path style="fill:#FAFAFA;" d="M436.885,64.382c-0.072,0.184-3.949-1.151-8.658-2.983c-4.711-1.833-8.47-3.467-8.399-3.652
								c0.072-0.185,3.948,1.151,8.659,2.983C433.196,62.562,436.957,64.197,436.885,64.382z"/>
						</g>
					</g>
				</g>
			</g>
		</g>
		<g>
			<g>
				<g>
					<g>
						<g>
							<path style="fill:#FAFAFA;" d="M444.742,76.787c-0.072,0.184-6.415-2.111-14.165-5.126
								c-7.754-3.016-13.979-5.61-13.907-5.795c0.072-0.185,6.413,2.11,14.167,5.126C438.587,74.008,444.814,76.602,444.742,76.787z
								"/>
						</g>
					</g>
				</g>
			</g>
		</g>
		<g>
			<g>
				<g>
					<g>
						<g>
							<path style="fill:#FAFAFA;" d="M444.632,84.551c-0.072,0.185-6.981-2.331-15.43-5.617
								c-8.452-3.288-15.243-6.102-15.171-6.286c0.072-0.184,6.979,2.33,15.431,5.618C437.911,81.552,444.704,84.367,444.632,84.551
								z"/>
						</g>
					</g>
				</g>
			</g>
		</g>
		<g>
			<g>
				<g>
					<g>
						<g>
							<path style="fill:#FAFAFA;" d="M442.144,90.948c-0.072,0.185-6.981-2.331-15.429-5.617
								c-8.452-3.288-15.243-6.102-15.171-6.286c0.072-0.184,6.979,2.33,15.431,5.618C435.423,87.949,442.215,90.764,442.144,90.948
								z"/>
						</g>
					</g>
				</g>
			</g>
		</g>
		<g>
			<g>
				<g>
					<g>
						<g>
							<path style="fill:#FAFAFA;" d="M439.655,97.346c-0.072,0.185-6.981-2.331-15.43-5.617
								c-8.452-3.288-15.243-6.102-15.171-6.286c0.072-0.185,6.979,2.33,15.431,5.618C432.934,94.347,439.727,97.161,439.655,97.346
								z"/>
						</g>
					</g>
				</g>
			</g>
		</g>
		<g>
			<g>
				<g>
					<g>
						<g>
							<path style="fill:#FAFAFA;" d="M437.166,103.743c-0.072,0.185-6.981-2.331-15.429-5.617
								c-8.452-3.288-15.243-6.102-15.171-6.286c0.072-0.185,6.979,2.33,15.431,5.618
								C430.446,100.744,437.238,103.559,437.166,103.743z"/>
						</g>
					</g>
				</g>
			</g>
		</g>
	</g>
	<g>
		<g>
			<path style="fill:#E0E0E0;" d="M88.998,263.298c1.604,0.233,2.714,1.734,2.48,3.355c-0.148,1.027-0.295,2.035-0.362,2.48
				l-3.393,22.31c-0.163,1.069-1.152,1.805-2.21,1.644l-51.067-7.768c-1.012-0.154-1.729-1.077-1.636-2.107l2.607-28.915
				c0.101-1.124,1.12-1.931,2.225-1.763l11.551,1.757c1.091,0.166,2.088,0.715,2.815,1.551l2.075,2.387L88.998,263.298z"/>
		</g>
		<g>
			
				<rect x="33.669" y="262.449" transform="matrix(0.9886 0.1504 -0.1504 0.9886 42.7311 -6.1285)" style="fill:#F5F5F5;" width="56.439" height="34.061"/>
		</g>
		<g>
			<path style="fill:#EBEBEB;" d="M31.652,260.746l-1.081,35.764c-0.019,0.635,0.434,1.184,1.057,1.279l54.377,8.271
				c0.643,0.098,1.254-0.32,1.403-0.96l8.079-34.699c0.166-0.715-0.305-1.419-1.024-1.529l-61.375-9.336
				C32.348,259.424,31.675,259.991,31.652,260.746z"/>
		</g>
	</g>
</g>
<g id="Background_Simple" style="display:none;">
	<path style="display:inline;fill:#F5F5F5;" d="M411.19,97.274l-2.065-3.403c-17.41-28.69-48.887-45.984-82.075-43.886
		c-4.266,0.27-8.514,0.847-12.705,1.744c-30.174,6.459-56.429,29.277-67.312,58.5c-6.4,17.187-8.188,36.975-20.334,50.617
		c-15.807,17.754-42.643,18.312-66.238,17.576c-23.594-0.736-50.449-0.108-66.179,17.716c-9.852,11.163-12.982,27.038-12.188,41.987
		c2.103,39.58,29.683,74.97,64.758,92.561c35.075,17.591,76.371,19.166,114.758,11.428c53.776-10.84,104.916-40.61,135.655-86.59
		C428.005,209.545,435.785,146.902,411.19,97.274z"/>
</g>
<g id="Plant">
	<g>
		<path style="fill:#455A64;" d="M162.303,266.263c-11.031,5.714-19.489,15.552-25.571,26.384
			c-6.082,10.832-10.002,22.718-13.885,34.518l-3.398,60.859c12.835-21.835,23.137-47.504,25.92-72.679
			c-2.847-0.254-5.694-0.507-8.541-0.761c5.727-0.874,10.534-5.024,13.592-9.944c3.058-4.92,4.633-10.594,6.169-16.179
			c-3.474,0.516-6.947,1.033-10.421,1.549C154.33,284.564,160.246,275.856,162.303,266.263z"/>
		<g style="opacity:0.3;">
			<path d="M162.303,266.263c-11.031,5.714-19.489,15.552-25.571,26.384c-6.082,10.832-10.002,22.718-13.885,34.518l-3.398,60.859
				c12.835-21.835,23.137-47.504,25.92-72.679c-2.847-0.254-5.694-0.507-8.541-0.761c5.727-0.874,10.534-5.024,13.592-9.944
				c3.058-4.92,4.633-10.594,6.169-16.179c-3.474,0.516-6.947,1.033-10.421,1.549C154.33,284.564,160.246,275.856,162.303,266.263z"
				/>
		</g>
		<path style="fill:#455A64;" d="M117.55,402.284c0,0-27.859-33.345-27.537-65.176h11.254c0,0-12.224-8.038-11.256-12.54
			c0.967-4.502,1.289-21.543,1.289-21.543l10.289,2.572c0,0-7.717-3.858-8.681-9.967c-0.965-6.109,2.251-34.404,2.251-34.404
			s12.54,13.183,16.398,26.687s13.986,29.259,11.012,70.416C119.594,399.485,117.55,402.284,117.55,402.284z"/>
		<path style="fill:#455A64;" d="M131.673,405.431c0,0,30.182-20.107,36.888-45.769l-9.048-2.462c0,0,11.586-3.788,11.793-7.619
			c0.207-3.831,3.677-17.602,3.677-17.602l-8.835-0.183c0,0,7.048-1.414,9.16-6.114c2.112-4.701,5.718-28.152,5.718-28.152
			s-12.966,7.855-19.023,17.868s-17.646,20.464-24.26,54.203C131.132,403.34,131.673,405.431,131.673,405.431z"/>
		<g>
			<path style="fill:#263238;" d="M102.767,290.298c0.009-0.002,0.043,0.115,0.1,0.346c0.061,0.257,0.141,0.596,0.243,1.026
				c0.209,0.935,0.505,2.263,0.884,3.957c0.386,1.718,0.835,3.824,1.322,6.277c0.495,2.451,1.073,5.24,1.638,8.337
				c1.193,6.182,2.452,13.574,3.748,21.797c1.256,8.229,2.51,17.297,3.625,26.839c1.092,9.548,1.94,18.665,2.595,26.965
				c0.614,8.303,1.075,15.788,1.324,22.079c0.157,3.144,0.23,5.991,0.307,8.491c0.086,2.499,0.129,4.653,0.145,6.413
				c0.018,1.736,0.032,3.095,0.042,4.054c-0.001,0.442-0.002,0.79-0.002,1.054c-0.003,0.238-0.01,0.359-0.019,0.359
				c-0.009,0-0.021-0.121-0.035-0.358c-0.012-0.264-0.029-0.612-0.049-1.053c-0.033-0.957-0.08-2.316-0.14-4.051
				c-0.047-1.759-0.12-3.911-0.233-6.408c-0.104-2.498-0.204-5.342-0.384-8.484c-0.296-6.286-0.795-13.763-1.435-22.059
				c-0.681-8.293-1.542-17.401-2.634-26.943c-1.114-9.536-2.353-18.598-3.582-26.827c-1.269-8.222-2.489-15.615-3.635-21.803
				c-0.542-3.1-1.094-5.892-1.562-8.348c-0.46-2.457-0.88-4.569-1.235-6.293c-0.337-1.703-0.602-3.036-0.788-3.976
				c-0.081-0.434-0.144-0.777-0.192-1.037C102.775,290.421,102.759,290.3,102.767,290.298z"/>
		</g>
		<path style="fill:#455A64;" d="M113.686,422.703c0,0-25.494-28.927-33.41-46.413l5.976-2.553
			c-4.332,0.715-8.769-1.147-12.128-3.974c-3.359-2.827-5.825-6.546-8.244-10.21l7.872-1.33c-7.159-2.009-13.466-6.895-17.2-13.324
			c9.29,1.528,17.694,6.63,24.619,13.008c5.609,5.165,10.358,11.16,14.919,17.286c2.225,2.988,4.172,6.172,5.794,9.526
			C106.167,393.575,113.7,412.08,113.686,422.703z"/>
		<g>
			<path style="fill:#263238;" d="M168.962,314.367c0.008,0.004-0.032,0.104-0.118,0.294c-0.1,0.215-0.23,0.492-0.392,0.841
				c-0.37,0.765-0.89,1.84-1.552,3.209c-1.367,2.777-3.303,6.816-5.646,11.83c-2.351,5.01-5.055,11.019-7.961,17.733
				c-2.882,6.724-5.951,14.159-9.005,22.03c-3.036,7.88-5.768,15.448-8.16,22.363c-2.367,6.924-4.409,13.189-6.039,18.477
				c-1.639,5.285-2.924,9.576-3.781,12.55c-0.431,1.458-0.77,2.603-1.011,3.418c-0.114,0.367-0.205,0.659-0.275,0.885
				c-0.065,0.199-0.102,0.299-0.111,0.297c-0.009-0.002,0.012-0.108,0.06-0.311c0.058-0.23,0.132-0.527,0.226-0.899
				c0.219-0.822,0.526-1.976,0.917-3.445c0.797-2.992,2.029-7.3,3.624-12.603c1.587-5.305,3.594-11.587,5.937-18.525
				c2.369-6.929,5.089-14.508,8.128-22.396c3.056-7.877,6.142-15.314,9.05-22.033c2.933-6.709,5.673-12.706,8.068-17.699
				c2.387-4.996,4.374-9.013,5.798-11.763c0.699-1.351,1.249-2.411,1.64-3.166c0.181-0.339,0.326-0.608,0.438-0.817
				C168.898,314.454,168.954,314.363,168.962,314.367z"/>
		</g>
		<g>
			<path style="fill:#263238;" d="M115.848,435.098c-0.018,0.002-0.059-0.181-0.122-0.532c-0.066-0.409-0.149-0.916-0.249-1.535
				c-0.194-1.335-0.526-3.261-0.993-5.626c-0.458-2.368-1.113-5.164-1.948-8.239c-0.862-3.067-1.919-6.409-3.208-9.853
				c-1.309-3.438-2.724-6.645-4.105-9.517c-1.406-2.86-2.763-5.392-3.984-7.471c-1.213-2.083-2.236-3.748-2.973-4.878
				c-0.334-0.531-0.607-0.966-0.828-1.317c-0.184-0.305-0.274-0.469-0.26-0.48c0.015-0.01,0.133,0.135,0.346,0.42
				c0.242,0.336,0.543,0.754,0.91,1.264c0.79,1.098,1.864,2.736,3.121,4.803c1.266,2.062,2.662,4.586,4.098,7.447
				c1.41,2.873,2.846,6.091,4.162,9.545c1.295,3.46,2.344,6.823,3.184,9.911c0.813,3.096,1.434,5.912,1.847,8.297
				c0.422,2.382,0.7,4.321,0.832,5.668c0.061,0.625,0.112,1.137,0.152,1.55C115.86,434.909,115.866,435.096,115.848,435.098z"/>
		</g>
		<rect x="93.691" y="428.294" style="fill:#FF725E;" width="55.798" height="11.382"/>
		<polygon style="fill:#FF725E;" points="99.007,439.676 105.043,477.96 138.759,477.96 144.385,439.676 		"/>
		<g>
			<path style="fill:#263238;" d="M146.065,439.676c0,0.144-10.555,0.26-23.573,0.26c-13.022,0-23.575-0.116-23.575-0.26
				c0-0.144,10.553-0.26,23.575-0.26C135.51,439.416,146.065,439.532,146.065,439.676z"/>
		</g>
	</g>
</g>
<g id="Screen">
	<g>
		<g>
			<rect x="82.672" y="57.191" style="fill:#FFFFFF;" width="249.166" height="156.074"/>
			<rect x="82.672" y="57.191" style="fill:#455A64;" width="249.166" height="14.303"/>
			<rect x="82.578" y="210.165" style="fill:#F5F5F5;" width="249.26" height="28.139"/>
			<polygon style="fill:none;" points="115.328,222.796 113.498,222.529 112.678,220.869 111.86,222.529 110.028,222.796 
				111.354,224.087 111.338,224.176 111.04,225.911 112.678,225.048 114.315,225.911 114.004,224.087 114.067,224.025 			"/>
			<path style="fill:none;" d="M100.844,221.299c-0.606,0-1.097,0.491-1.097,1.097c0,0.606,0.491,1.097,1.097,1.097
				c0.606,0,1.096-0.491,1.096-1.097C101.94,221.79,101.449,221.299,100.844,221.299z"/>
			<path style="fill:#263238;" d="M133.818,223.784h2.229l0.703,1.459h0.479l-2.23-4.658h-0.123l-2.236,4.658h0.484L133.818,223.784
				z M134.935,221.461l0.902,1.888h-1.807L134.935,221.461z"/>
			<rect x="132.282" y="226.235" style="fill:#263238;" width="5.278" height="0.372"/>
			<path style="fill:#263238;" d="M101.022,220.324c-0.005,0-0.01,0-0.015,0h-0.326c-0.005,0-0.01,0-0.015,0
				c-1.024,0-1.854,0.946-1.854,2.001c0,1.056,1.137,3.23,1.854,3.97c0,0,0.139,0.244,0.357,0c0.717-0.739,1.854-2.914,1.854-3.97
				C102.875,221.27,102.046,220.324,101.022,220.324z M100.844,223.493c-0.606,0-1.097-0.491-1.097-1.097
				c0-0.606,0.491-1.097,1.097-1.097c0.606,0,1.096,0.491,1.096,1.097C101.94,223.002,101.449,223.493,100.844,223.493z"/>
			<path style="fill:#263238;" d="M125.737,224.979c0,0.623-0.507,1.129-1.129,1.129c-0.623,0-1.129-0.507-1.129-1.129v-3.65
				c0-0.403,0.328-0.731,0.731-0.731c0.403,0,0.731,0.328,0.731,0.731v3.095h0.003c-0.048,0.186-0.21,0.324-0.405,0.324
				c-0.196,0-0.36-0.141-0.406-0.33v-2.384h-0.273v2.278v0.002v0.11h0.011c0.053,0.33,0.331,0.584,0.668,0.584
				c0.337,0,0.616-0.254,0.669-0.584h0.006v-0.061c0.001-0.017,0.005-0.033,0.005-0.051h-0.005v-3.017h-0.002
				c-0.018-0.538-0.46-0.971-1.003-0.971c-0.542,0-0.984,0.432-1.002,0.971h-0.002v3.812h0.007c0.065,0.714,0.666,1.275,1.396,1.275
				c0.73,0,1.331-0.561,1.396-1.275h0.006v-3.072h-0.273V224.979z"/>
			<path style="fill:#263238;" d="M113.723,222.216l-1.045-2.116l-1.045,2.116l-2.337,0.34l1.691,1.649l-0.399,2.328l2.091-1.099
				l2.091,1.099l-0.399-2.328l1.691-1.649L113.723,222.216z M114.315,225.911l-1.638-0.863l-1.638,0.863l0.298-1.735l0.017-0.088
				l-1.327-1.292l1.833-0.267l0.817-1.66l0.821,1.66l1.829,0.267l-1.261,1.229l-0.063,0.063L114.315,225.911z"/>
			<path style="fill:#263238;" d="M154.873,217.498h-0.34v10.847h0.34V217.498z M154.702,228.344v-10.846V228.344z"/>
			<rect x="143.916" y="221.337" style="fill:#263238;" width="4.318" height="4.602"/>
			<polygon style="fill:#263238;" points="145.28,220.259 145.28,220.613 146.871,220.613 146.871,220.259 148.234,220.259 
				148.234,220.967 143.916,220.967 143.916,220.259 			"/>
			<rect x="145.28" y="219.905" style="fill:#263238;" width="1.591" height="0.354"/>
			<rect x="145.28" y="220.259" style="fill:#263238;" width="1.591" height="0.354"/>
			<polygon style="fill:#263238;" points="164.648,223.802 165.974,222.476 166.135,222.637 164.648,224.123 163.161,222.637 
				163.322,222.476 			"/>
			<path style="fill:#263238;" d="M318.1,112.021c-0.793,0-1.44,0.633-1.467,1.42h-0.003v5.578h0.01
				c0.095,1.044,0.974,1.865,2.042,1.865c1.068,0,1.948-0.821,2.043-1.865h0.009v-4.495h-0.4v4.308c0,0.911-0.741,1.652-1.653,1.652
				c-0.911,0-1.652-0.741-1.652-1.652v-5.341c0-0.59,0.48-1.07,1.07-1.07c0.59,0,1.07,0.48,1.07,1.07v4.529h0.005
				c-0.07,0.272-0.308,0.474-0.592,0.474c-0.287,0-0.527-0.206-0.595-0.483v-3.488h-0.4v3.333h0l0,0.002v0.162h0.016
				c0.077,0.483,0.485,0.854,0.978,0.854c0.494,0,0.901-0.371,0.978-0.854h0.009v-0.09c0.002-0.025,0.007-0.049,0.007-0.074h-0.007
				v-4.415h-0.002C319.541,112.654,318.894,112.021,318.1,112.021z"/>
			<path style="fill:#263238;" d="M90.871,79.458h-1.703v-0.617h4.108v0.617h-1.703v4.35h-0.702V79.458z"/>
			<path style="fill:#263238;" d="M93.208,81.927c0-1.121,0.83-1.915,1.958-1.915c1.128,0,1.951,0.794,1.951,1.915
				s-0.823,1.923-1.951,1.923C94.038,83.85,93.208,83.048,93.208,81.927z M96.429,81.927c0-0.802-0.539-1.32-1.263-1.32
				c-0.724,0-1.27,0.518-1.27,1.32c0,0.802,0.546,1.327,1.27,1.327C95.89,83.255,96.429,82.729,96.429,81.927z"/>
			<path style="fill:#263238;" d="M99.643,80.494c0-0.284,0.22-0.482,0.483-0.482c0.255,0,0.468,0.199,0.468,0.482
				s-0.213,0.49-0.468,0.49C99.864,80.984,99.643,80.778,99.643,80.494z M99.643,83.361c0-0.284,0.22-0.483,0.483-0.483
				c0.255,0,0.468,0.199,0.468,0.483c0,0.284-0.213,0.489-0.468,0.489C99.864,83.85,99.643,83.645,99.643,83.361z"/>
			<path style="fill:#263238;" d="M90.179,98.031c0-1.469,1.121-2.54,2.633-2.54c0.766,0,1.433,0.263,1.887,0.773l-0.461,0.447
				c-0.383-0.404-0.851-0.589-1.397-0.589c-1.121,0-1.951,0.809-1.951,1.909c0,1.1,0.83,1.909,1.951,1.909
				c0.546,0,1.015-0.191,1.397-0.596l0.461,0.447c-0.454,0.511-1.121,0.78-1.895,0.78C91.3,100.571,90.179,99.5,90.179,98.031z"/>
			<path style="fill:#263238;" d="M95.105,98.634c0-1.121,0.83-1.916,1.987-1.916c0.674,0,1.234,0.276,1.533,0.802l-0.518,0.334
				c-0.241-0.369-0.61-0.54-1.022-0.54c-0.738,0-1.291,0.518-1.291,1.32c0,0.816,0.553,1.327,1.291,1.327
				c0.411,0,0.78-0.17,1.022-0.54l0.518,0.327c-0.298,0.525-0.858,0.809-1.533,0.809C95.935,100.557,95.105,99.756,95.105,98.634z"
				/>
			<path style="fill:#263238;" d="M101.087,97.201c0-0.284,0.22-0.482,0.483-0.482c0.255,0,0.468,0.199,0.468,0.482
				c0,0.284-0.213,0.49-0.468,0.49C101.307,97.691,101.087,97.485,101.087,97.201z M101.087,100.068c0-0.284,0.22-0.483,0.483-0.483
				c0.255,0,0.468,0.199,0.468,0.483c0,0.284-0.213,0.489-0.468,0.489C101.307,100.557,101.087,100.352,101.087,100.068z"/>
			<path style="fill:#263238;" d="M89.43,116.872l0.262-0.554c0.369,0.334,1.001,0.575,1.639,0.575c0.858,0,1.228-0.333,1.228-0.766
				c0-1.213-3.008-0.447-3.008-2.292c0-0.766,0.596-1.419,1.901-1.419c0.582,0,1.185,0.156,1.597,0.44l-0.234,0.567
				c-0.433-0.276-0.923-0.404-1.362-0.404c-0.844,0-1.206,0.355-1.206,0.788c0,1.213,3.008,0.454,3.008,2.278
				c0,0.759-0.61,1.412-1.923,1.412C90.573,117.496,89.828,117.241,89.43,116.872z"/>
			<path style="fill:#263238;" d="M97.692,113.679v3.761h-0.646v-0.567c-0.276,0.39-0.745,0.61-1.277,0.61
				c-0.972,0-1.618-0.532-1.618-1.639v-2.164h0.681v2.086c0,0.738,0.369,1.107,1.015,1.107c0.709,0,1.164-0.44,1.164-1.249v-1.944
				H97.692z"/>
			<path style="fill:#263238;" d="M102.88,115.559c0,1.149-0.802,1.923-1.901,1.923c-0.554,0-1.036-0.213-1.341-0.639v0.596h-0.653
				v-5.265h0.681v2.072c0.312-0.404,0.781-0.603,1.313-0.603C102.078,113.644,102.88,114.41,102.88,115.559z M102.192,115.559
				c0-0.802-0.546-1.32-1.27-1.32c-0.716,0-1.263,0.518-1.263,1.32c0,0.802,0.546,1.327,1.263,1.327
				C101.646,116.886,102.192,116.361,102.192,115.559z"/>
			<path style="fill:#263238;" d="M102.52,118.631l0.22-0.525c0.135,0.113,0.333,0.177,0.553,0.177c0.362,0,0.56-0.227,0.56-0.66
				v-3.945h0.681v3.931c0,0.766-0.426,1.249-1.199,1.249C103.024,118.858,102.712,118.788,102.52,118.631z M103.734,112.515
				c0-0.248,0.199-0.447,0.461-0.447c0.263,0,0.461,0.191,0.461,0.433c0,0.255-0.191,0.454-0.461,0.454
				C103.932,112.955,103.734,112.764,103.734,112.515z"/>
			<path style="fill:#263238;" d="M109.216,115.786h-3.051c0.085,0.66,0.618,1.1,1.362,1.1c0.44,0,0.809-0.149,1.086-0.454
				l0.376,0.44c-0.341,0.397-0.859,0.61-1.483,0.61c-1.213,0-2.022-0.802-2.022-1.923c0-1.114,0.802-1.916,1.888-1.916
				c1.085,0,1.859,0.78,1.859,1.937C109.23,115.637,109.223,115.722,109.216,115.786z M106.165,115.297h2.413
				c-0.071-0.632-0.546-1.079-1.206-1.079C106.719,114.218,106.236,114.658,106.165,115.297z"/>
			<path style="fill:#263238;" d="M109.822,115.559c0-1.121,0.83-1.916,1.987-1.916c0.674,0,1.235,0.276,1.533,0.802l-0.518,0.334
				c-0.241-0.369-0.61-0.54-1.021-0.54c-0.738,0-1.292,0.518-1.292,1.32c0,0.816,0.553,1.327,1.292,1.327
				c0.411,0,0.78-0.17,1.021-0.539l0.518,0.327c-0.298,0.525-0.858,0.809-1.533,0.809
				C110.652,117.482,109.822,116.68,109.822,115.559z"/>
			<path style="fill:#263238;" d="M116.381,117.22c-0.206,0.177-0.518,0.262-0.823,0.262c-0.759,0-1.192-0.418-1.192-1.178v-2.065
				h-0.639v-0.561h0.639v-0.823h0.681v0.823h1.079v0.561h-1.079v2.037c0,0.404,0.213,0.631,0.589,0.631
				c0.199,0,0.39-0.064,0.532-0.177L116.381,117.22z"/>
			<path style="fill:#263238;" d="M118.787,114.126c0-0.284,0.22-0.482,0.483-0.482c0.255,0,0.468,0.199,0.468,0.482
				c0,0.284-0.213,0.49-0.468,0.49C119.008,114.616,118.787,114.41,118.787,114.126z M118.787,116.993
				c0-0.284,0.22-0.483,0.483-0.483c0.255,0,0.468,0.199,0.468,0.483c0,0.284-0.213,0.489-0.468,0.489
				C119.008,117.482,118.787,117.276,118.787,116.993z"/>
			<path style="fill:#263238;" d="M181.053,82.916c0,0.144-15.924,0.26-35.562,0.26c-19.645,0-35.565-0.117-35.565-0.26
				s15.92-0.26,35.565-0.26C165.13,82.656,181.053,82.772,181.053,82.916z"/>
			<path style="fill:#263238;" d="M212.812,99.144c0,0.144-23.034,0.261-51.441,0.261c-28.417,0-51.445-0.117-51.445-0.261
				c0-0.144,23.029-0.26,51.445-0.26C189.779,98.884,212.812,99,212.812,99.144z"/>
			<path style="fill:#263238;" d="M174.769,115.246c0,0.018-0.162,0.036-0.472,0.052c-0.37,0.013-0.817,0.03-1.353,0.049
				c-1.259,0.021-2.939,0.049-4.977,0.083c-4.202,0.047-10.008,0.076-16.419,0.076c-6.414,0-12.22-0.029-16.422-0.076
				c-2.038-0.034-3.718-0.062-4.977-0.083c-0.537-0.019-0.983-0.036-1.353-0.049c-0.309-0.017-0.472-0.035-0.472-0.052
				c0-0.018,0.163-0.035,0.472-0.052c0.37-0.013,0.816-0.03,1.353-0.049c1.259-0.021,2.939-0.049,4.977-0.083
				c4.202-0.047,10.008-0.076,16.422-0.076c6.412,0,12.217,0.029,16.419,0.076c2.038,0.034,3.718,0.062,4.977,0.083
				c0.537,0.019,0.983,0.035,1.353,0.049C174.606,115.211,174.769,115.228,174.769,115.246z"/>
			<path style="fill:#E0E0E0;" d="M329.149,124.007c0,0.144-55.18,0.26-123.232,0.26c-68.076,0-123.244-0.117-123.244-0.26
				s55.168-0.26,123.244-0.26C273.969,123.746,329.149,123.863,329.149,124.007z"/>
			<path style="fill:#E0E0E0;" d="M329.149,106.442c0,0.144-55.201,0.26-123.279,0.26c-68.102,0-123.291-0.117-123.291-0.26
				c0-0.144,55.189-0.26,123.291-0.26C273.947,106.181,329.149,106.298,329.149,106.442z"/>
			<path style="fill:#E0E0E0;" d="M329.149,91.03c0,0.144-55.18,0.26-123.232,0.26c-68.076,0-123.244-0.117-123.244-0.26
				s55.168-0.26,123.244-0.26C273.969,90.77,329.149,90.886,329.149,91.03z"/>
			<path style="fill:#263238;" d="M115.763,145.431c0,0.144-3.795,0.26-8.475,0.26c-4.682,0-8.476-0.117-8.476-0.26
				c0-0.144,3.794-0.26,8.476-0.26C111.968,145.171,115.763,145.287,115.763,145.431z"/>
			<path style="fill:#263238;" d="M212.269,155.241c0,0.144-25.654,0.26-57.292,0.26c-31.649,0-57.298-0.117-57.298-0.26
				s25.648-0.26,57.298-0.26C186.615,154.981,212.269,155.097,212.269,155.241z"/>
			<path style="fill:#263238;" d="M193.261,162.095c0,0.122-21.399,0.22-47.789,0.22c-26.399,0-47.793-0.099-47.793-0.22
				c0-0.122,21.394-0.22,47.793-0.22C171.862,161.875,193.261,161.974,193.261,162.095z"/>
			<g>
				<circle style="fill:#FFFFFF;" cx="89.651" cy="64.342" r="1.549"/>
				<circle style="fill:#FFFFFF;" cx="95.163" cy="64.342" r="1.549"/>
				<circle style="fill:#FFFFFF;" cx="100.674" cy="64.342" r="1.549"/>
			</g>
		</g>
		<g>
			<path style="fill:#263238;" d="M332.837,238.304c-0.002-1.746-0.083-71.287-0.212-181.113l0.212,0.212
				c-70.051,0.014-156.624,0.03-250.144,0.049h-0.021l0.26-0.26c-0.009,64.932-0.017,126.508-0.024,181.113l-0.236-0.236
				C230.618,238.208,330.745,238.302,332.837,238.304c-2.09,0.002-102.22,0.096-250.165,0.236l-0.236,0v-0.236
				c-0.007-54.606-0.016-116.181-0.024-181.113v-0.26h0.26h0.021c93.52,0.018,180.093,0.035,250.144,0.049h0.212l0,0.212
				C332.921,167.017,332.839,236.559,332.837,238.304z"/>
		</g>
	</g>
</g>
<g id="Character">
	<g>
		<g>
			<rect x="403.665" y="420.126" style="fill:#E0E0E0;" width="5.783" height="3.114"/>
			<rect x="394.116" y="341.747" style="fill:#EBEBEB;" width="13.347" height="66.213"/>
			<path style="fill:#455A64;" d="M431.092,345.239h-62.664c-6.668,0-12.073-5.405-12.073-12.072l0,0
				c0-6.668,5.405-12.073,12.073-12.073h62.664c6.667,0,12.072,5.405,12.072,12.073l0,0
				C443.164,339.834,437.759,345.239,431.092,345.239z"/>
			<rect x="396.61" y="407.96" style="fill:#E0E0E0;" width="8.458" height="46.997"/>
			<path style="fill:#E0E0E0;" d="M366.911,477.866c-1.664,0.212,71.286,0,71.286,0s-31.122-3.481-33.13-22.909h-8.458
				C396.61,454.957,394.482,474.357,366.911,477.866z"/>
			<g>
				<path style="fill:#263238;" d="M433.572,345.239c0,0.144-14.489,0.26-32.358,0.26c-17.875,0-32.362-0.117-32.362-0.26
					s14.486-0.26,32.362-0.26C419.083,344.978,433.572,345.095,433.572,345.239z"/>
			</g>
			<g>
				<path style="fill:#263238;" d="M407.463,407.96c0,0.144-3.015,0.26-6.734,0.26c-3.72,0-6.735-0.117-6.735-0.26
					s3.015-0.26,6.735-0.26C404.447,407.7,407.463,407.816,407.463,407.96z"/>
			</g>
			<path style="fill:#E0E0E0;" d="M409.448,426.724L409.448,426.724c-0.943,0-1.707-0.764-1.707-1.707v-6.668
				c0-0.943,0.764-1.707,1.707-1.707l0,0c0.943,0,1.707,0.764,1.707,1.707v6.668C411.155,425.96,410.391,426.724,409.448,426.724z"
				/>
		</g>
		<g>
			<g>
				<g>
					<path style="fill:#FFBE9D;" d="M276.119,152.698c0,0,2.933-3.206,3.82-3.274c0.887-0.068,10.027,2.66,10.027,2.66
						s2.046,0.409,2.865,1.364c0.819,0.955,9.829,10.755,9.829,10.755l-10.025,8.818c0,0-11.741-2.111-12.764-3.339
						c-1.023-1.228-1.842-3.206-1.091-3.82c0,0-0.955-1.705-0.682-2.865c0.273-1.159,0.614-2.081,0.614-2.081
						s-1.773-1.261-1.842-2.148c-0.068-0.887-0.341-1.364-0.341-1.364l-0.409-0.682V152.698z"/>
					<g>
						<path style="fill:#EB996E;" d="M280.206,154.61c0.052,0.02,0.011,0.313-0.16,0.76c-0.172,0.439-0.492,1.063-1.105,1.536
							c-0.625,0.475-1.38,0.564-1.867,0.436c-0.501-0.127-0.702-0.399-0.667-0.432c0.039-0.056,0.286,0.103,0.716,0.136
							c0.423,0.039,1.042-0.083,1.561-0.477c0.524-0.402,0.86-0.939,1.092-1.329C280.008,154.845,280.149,154.588,280.206,154.61z"
							/>
					</g>
				</g>
				<g>
					<g>
						<path style="fill:#E0E0E0;" d="M240.1,131.71c-3.011-0.024-5.471,2.398-5.495,5.409l-0.476,60.312
							c-0.024,3.011,2.398,5.471,5.409,5.495l43.574,0.344c3.011,0.024,5.471-2.398,5.495-5.409l0.296-60.345
							c0.015-3.087-2.476-5.601-5.563-5.615L240.1,131.71z"/>
						<g>
							<g>
								<g>
									<g>
										<g>
											<path style="fill:#E0E0E0;" d="M263.952,150.031c-0.002,0.218-4.516,0.359-10.082,0.315
												c-5.568-0.044-10.078-0.256-10.077-0.474c0.002-0.218,4.515-0.359,10.083-0.316
												C259.442,149.6,263.954,149.813,263.952,150.031z"/>
										</g>
									</g>
								</g>
							</g>
						</g>
						<g>
							<g>
								<g>
									<g>
										<g>
											<path style="fill:#E0E0E0;" d="M276.896,157.881c-0.002,0.218-7.431,0.336-16.592,0.264
												c-9.164-0.072-16.588-0.308-16.587-0.526c0.002-0.218,7.429-0.336,16.593-0.264
												C269.471,157.427,276.897,157.663,276.896,157.881z"/>
										</g>
									</g>
								</g>
							</g>
						</g>
						<g>
							<g>
								<g>
									<g>
										<g>
											<path style="fill:#E0E0E0;" d="M279.82,165.918c-0.002,0.218-8.1,0.331-18.086,0.252
												c-9.989-0.079-18.083-0.319-18.081-0.538c0.002-0.218,8.098-0.331,18.087-0.252
												C271.727,165.46,279.822,165.7,279.82,165.918z"/>
										</g>
									</g>
								</g>
							</g>
						</g>
						<g>
							<g>
								<g>
									<g>
										<g>
											<path style="fill:#E0E0E0;" d="M279.761,173.479c-0.002,0.218-8.1,0.331-18.085,0.253
												c-9.989-0.079-18.083-0.32-18.081-0.538c0.002-0.218,8.098-0.331,18.087-0.252
												C271.667,173.02,279.762,173.261,279.761,173.479z"/>
										</g>
									</g>
								</g>
							</g>
						</g>
						<g>
							<g>
								<g>
									<g>
										<g>
											<path style="fill:#E0E0E0;" d="M279.701,181.04c-0.002,0.218-8.1,0.331-18.085,0.253
												c-9.989-0.079-18.083-0.32-18.081-0.538c0.002-0.218,8.098-0.331,18.087-0.252
												C271.607,180.581,279.703,180.822,279.701,181.04z"/>
										</g>
									</g>
								</g>
							</g>
						</g>
						<g>
							<g>
								<g>
									<g>
										<g>
											<path style="fill:#E0E0E0;" d="M279.641,188.601c-0.002,0.218-8.1,0.331-18.085,0.252
												c-9.989-0.079-18.083-0.32-18.081-0.538c0.002-0.218,8.098-0.331,18.087-0.252
												C271.548,188.143,279.643,188.383,279.641,188.601z"/>
										</g>
									</g>
								</g>
							</g>
						</g>
					</g>
					<g>
						<g>
							<path style="fill:#FFFFFF;" d="M238.085,129.91c-3.011-0.024-5.471,2.398-5.495,5.409l-0.476,60.312
								c-0.024,3.011,2.398,5.471,5.409,5.495l43.574,0.344c3.011,0.024,5.471-2.398,5.495-5.409l0.296-60.345
								c0.015-3.087-2.476-5.601-5.562-5.615L238.085,129.91z"/>
							<g>
								<path style="fill:#263238;" d="M238.085,129.91c0,0,0.212-0.017,0.625-0.024c0.432-0.004,1.041-0.01,1.833-0.018
									c1.631-0.004,4.003-0.01,7.049-0.018c6.14,0.008,14.993,0.018,25.925,0.032c1.368,0.003,2.769,0.007,4.201,0.01
									c0.716,0.002,1.44,0.004,2.172,0.006c0.732,0.014,1.463-0.033,2.242,0.068c1.534,0.209,2.999,1.088,3.922,2.412
									c0.463,0.658,0.795,1.421,0.943,2.229c0.159,0.82,0.088,1.631,0.1,2.427c-0.024,6.436-0.05,13.312-0.077,20.547
									c-0.031,7.236-0.063,14.832-0.096,22.705c-0.018,3.937-0.036,7.944-0.055,12.01c-0.005,1.017-0.01,2.037-0.014,3.061
									c0.03,0.999-0.067,2.154-0.56,3.112c-0.908,1.971-3.039,3.314-5.237,3.262c-8.352-0.068-16.507-0.134-24.383-0.198
									c-3.938-0.033-7.806-0.066-11.594-0.098c-1.894-0.016-3.768-0.033-5.621-0.048c-0.933-0.031-1.828,0.04-2.795-0.096
									c-0.947-0.144-1.843-0.542-2.586-1.125c-1.515-1.143-2.315-3.083-2.196-4.889c0.016-1.763,0.032-3.502,0.047-5.216
									c0.031-3.428,0.062-6.756,0.092-9.974c0.062-6.434,0.12-12.428,0.173-17.903c0.121-10.931,0.219-19.783,0.287-25.922
									c0.011-0.758-0.003-1.501,0.171-2.174c0.161-0.671,0.433-1.266,0.771-1.759c0.67-0.995,1.525-1.603,2.262-1.936
									c0.741-0.34,1.363-0.436,1.774-0.477C237.873,129.894,238.085,129.91,238.085,129.91c0.017,0.061-0.892-0.098-2.355,0.578
									c-0.716,0.342-1.54,0.949-2.178,1.926c-0.321,0.483-0.578,1.064-0.726,1.715c-0.16,0.65-0.14,1.366-0.143,2.134
									c-0.029,6.139-0.07,14.991-0.122,25.923c-0.033,5.474-0.07,11.469-0.109,17.903c-0.021,3.218-0.043,6.546-0.066,9.974
									c-0.012,1.714-0.023,3.453-0.035,5.216c-0.105,1.716,0.631,3.447,2.022,4.506c0.681,0.533,1.501,0.896,2.367,1.025
									c0.849,0.122,1.806,0.058,2.723,0.085c1.853,0.013,3.727,0.027,5.621,0.04c3.788,0.028,7.656,0.056,11.594,0.085
									c7.876,0.06,16.03,0.123,24.383,0.187c2.005,0.047,3.936-1.173,4.764-2.965c0.448-0.898,0.535-1.855,0.51-2.892
									c0.005-1.024,0.01-2.044,0.016-3.061c0.021-4.066,0.042-8.073,0.063-12.009c0.044-7.873,0.086-15.469,0.127-22.705
									c0.044-7.235,0.086-14.11,0.125-20.547c-0.008-0.809,0.059-1.607-0.086-2.346c-0.135-0.749-0.44-1.457-0.868-2.069
									c-0.853-1.231-2.211-2.053-3.637-2.253c-0.703-0.097-1.458-0.056-2.186-0.072c-0.732-0.005-1.455-0.009-2.171-0.014
									c-1.432-0.009-2.833-0.018-4.201-0.027c-10.932-0.083-19.785-0.15-25.924-0.197c-3.046-0.035-5.418-0.061-7.049-0.08
									c-0.792-0.015-1.401-0.026-1.833-0.034C238.296,129.929,238.085,129.91,238.085,129.91z"/>
							</g>
						</g>
						<g>
							<g>
								<g>
									<g>
										<g>
											<path style="fill:#263238;" d="M261.937,148.23c-0.002,0.218-4.516,0.359-10.082,0.315
												c-5.568-0.044-10.078-0.256-10.077-0.474c0.002-0.218,4.515-0.359,10.083-0.316
												C257.427,147.799,261.939,148.012,261.937,148.23z"/>
										</g>
									</g>
								</g>
							</g>
						</g>
						<g>
							<g>
								<g>
									<g>
										<g>
											<path style="fill:#263238;" d="M274.881,156.08c-0.002,0.218-7.431,0.336-16.592,0.264
												c-9.164-0.072-16.589-0.308-16.587-0.526c0.002-0.218,7.429-0.337,16.593-0.264
												C267.456,155.626,274.882,155.862,274.881,156.08z"/>
										</g>
									</g>
								</g>
							</g>
						</g>
						<g>
							<g>
								<g>
									<g>
										<g>
											<path style="fill:#263238;" d="M277.805,164.118c-0.002,0.218-8.1,0.331-18.085,0.252
												c-9.989-0.079-18.083-0.319-18.081-0.538c0.002-0.218,8.098-0.331,18.087-0.252
												C269.712,163.659,277.807,163.9,277.805,164.118z"/>
										</g>
									</g>
								</g>
							</g>
						</g>
						<g>
							<g>
								<g>
									<g>
										<g>
											<path style="fill:#263238;" d="M277.746,171.679c-0.002,0.218-8.1,0.331-18.085,0.253
												c-9.989-0.079-18.083-0.32-18.081-0.538c0.002-0.218,8.098-0.331,18.087-0.252
												C269.652,171.22,277.747,171.461,277.746,171.679z"/>
										</g>
									</g>
								</g>
							</g>
						</g>
						<g>
							<g>
								<g>
									<g>
										<g>
											<path style="fill:#263238;" d="M277.686,179.24c-0.002,0.218-8.1,0.331-18.085,0.253
												c-9.989-0.079-18.083-0.319-18.081-0.538c0.002-0.218,8.098-0.331,18.087-0.252
												C269.592,178.781,277.688,179.022,277.686,179.24z"/>
										</g>
									</g>
								</g>
							</g>
						</g>
						<g>
							<g>
								<g>
									<g>
										<g>
											<path style="fill:#263238;" d="M277.626,186.801c-0.002,0.218-8.1,0.331-18.085,0.252
												c-9.989-0.079-18.083-0.319-18.081-0.538c0.002-0.218,8.098-0.331,18.087-0.252
												C269.533,186.342,277.628,186.583,277.626,186.801z"/>
										</g>
									</g>
								</g>
							</g>
						</g>
					</g>
					
						<path style="fill:none;stroke:#263238;stroke-width:0.75;stroke-linecap:round;stroke-linejoin:round;stroke-miterlimit:10;" d="
						M244.155,136.341v-5.02c0-0.838-0.679-1.517-1.517-1.517l0,0c-0.838,0-1.517,0.679-1.517,1.517v7.033
						c0,1.344,1.09,2.435,2.435,2.435l0,0c1.344,0,2.434-1.09,2.434-2.435v-8.075c0-1.871-1.516-3.387-3.387-3.387l0,0
						c-1.472,0-2.724,0.938-3.191,2.25v0.395"/>
				</g>
				<path style="fill:#FFBE9D;" d="M296.778,159.617L292,156.648l-12.236-6.457c0,0-2.432,2.361,1.674,5.758l5.062,4.009
					c0,0,4.497,8.249,5.461,8.855c0.964,0.606,5.38,2.207,5.38,2.207L296.778,159.617z"/>
				<g>
					<path style="fill:#EB996E;" d="M297.809,171.212c-0.004,0.014-0.175-0.022-0.494-0.109c-0.319-0.088-0.787-0.228-1.383-0.43
						c-0.595-0.204-1.321-0.463-2.141-0.829c-0.41-0.181-0.842-0.396-1.285-0.657c-0.444-0.248-0.893-0.623-1.235-1.077
						c-1.402-1.794-2.677-4.155-4.131-6.74c-0.183-0.32-0.369-0.644-0.556-0.971c-0.177-0.328-0.426-0.546-0.723-0.81
						c-0.576-0.502-1.207-0.983-1.845-1.476c-1.274-0.992-2.635-1.964-3.891-3.179c-1.321-1.299-1.712-3.463-0.695-4.989
						l0.101-0.152l0.168,0.095c4.895,2.762,9.109,5.287,12.3,6.761c1.547,0.849,2.728,1.607,3.545,2.124
						c0.375,0.247,0.68,0.448,0.926,0.61c0.208,0.143,0.313,0.224,0.307,0.235c-0.007,0.011-0.125-0.049-0.346-0.171
						c-0.256-0.146-0.573-0.327-0.963-0.55c-0.838-0.477-2.045-1.201-3.595-2.01c-3.22-1.406-7.482-3.897-12.379-6.638l0.269-0.057
						c-0.407,0.625-0.579,1.477-0.447,2.27c0.144,0.797,0.501,1.593,1.111,2.173c1.208,1.169,2.574,2.154,3.843,3.148
						c0.639,0.496,1.268,0.98,1.86,1.502c0.15,0.127,0.292,0.27,0.433,0.411c0.144,0.156,0.27,0.331,0.362,0.496
						c0.188,0.333,0.373,0.662,0.557,0.987c1.432,2.594,2.685,4.971,4.022,6.742c0.639,0.898,1.609,1.303,2.386,1.707
						c0.8,0.382,1.514,0.663,2.097,0.889c0.553,0.206,1.001,0.373,1.353,0.504C297.652,171.135,297.814,171.198,297.809,171.212z"/>
				</g>
			</g>
			<g>
				<g>
					<path style="fill:#263238;" d="M429.836,136.339c-0.169-2.969-0.54-17.419-0.711-19.615c-0.231-2.965-1.456-5.922-3.635-7.947
						c-2.178-2.025-5.567-2.892-8.241-1.59l0,0c-1.769,0.447-3.152,1.814-3.646,3.57c-6.082,21.624-5.122,44.647-7.808,67.01
						c7.937,1.291,18.619,0.763,26.649,0.343C432.444,160.253,430.933,155.616,429.836,136.339z"/>
					<g>
						<path style="fill:#455A64;" d="M426.49,166.826c-0.018,0-0.039-0.199-0.062-0.577c-0.02-0.436-0.046-0.985-0.077-1.658
							c-0.046-1.511-0.11-3.578-0.187-6.099c-0.109-5.215-0.258-12.299-0.421-20.126c-0.06-3.929-0.117-7.669-0.17-11.083
							c-0.021-1.7-0.04-3.318-0.059-4.836c-0.013-1.512-0.051-2.916-0.287-4.164c-0.409-2.533-1.861-4.216-3.095-4.889
							c-1.248-0.699-2.11-0.566-2.093-0.638c0-0.009,0.049-0.017,0.147-0.023c0.098-0.005,0.245-0.018,0.436,0.004
							c0.382,0.027,0.952,0.141,1.608,0.479c0.651,0.338,1.376,0.909,1.998,1.751c0.631,0.837,1.103,1.964,1.36,3.245
							c0.267,1.283,0.326,2.714,0.358,4.227c0.034,1.518,0.069,3.136,0.107,4.835c0.065,3.414,0.136,7.153,0.211,11.082
							c0.105,7.828,0.199,14.913,0.269,20.129c0.009,2.523,0.017,4.59,0.022,6.102c-0.008,0.674-0.015,1.223-0.02,1.66
							C426.522,166.626,426.507,166.825,426.49,166.826z"/>
					</g>
					<g>
						<path style="fill:#455A64;" d="M419.273,158.628c-0.036,0-0.069-0.464-0.097-1.303c-0.028-0.839-0.047-2.053-0.047-3.553
							c-0.007-3,0.059-7.143,0.173-11.717c0.126-4.52,0.239-8.607,0.326-11.711c0.047-1.417,0.087-2.606,0.118-3.549
							c0.034-0.838,0.07-1.302,0.106-1.302c0.036,0,0.069,0.464,0.097,1.303c0.027,0.839,0.046,2.053,0.047,3.553
							c0.007,3-0.059,7.144-0.173,11.719c-0.126,4.518-0.239,8.605-0.326,11.709c-0.047,1.417-0.087,2.607-0.118,3.549
							C419.345,158.164,419.309,158.628,419.273,158.628z"/>
					</g>
				</g>
				<g>
					<g>
						<g>
							<path style="fill:#263238;" d="M392.752,90.556c5.957-0.616,10.988,1.992,15.739,5.638c4.751,3.646,8.165,8.904,9.961,14.617
								c1.891,6.018,1.914,14.547-0.231,20.479c-2.145,5.932-6.697,10.074-12.34,11.668c-8.29,2.342-17.632,1.392-24.149-4.241
								c-6.517-5.633-9.876-14.461-9.643-23.072c0.161-5.933,1.971-11.894,5.6-16.591C381.319,94.358,386.836,91.033,392.752,90.556
								"/>
						</g>
						<g>
							<g>
								<g>
									<path style="fill:#263238;" d="M408.197,111.688c-0.714-2.311-0.215-4.805-0.4-7.216c-0.407-5.31-4.369-9.805-9.137-12.177
										c-4.435-2.206-10.032-2.155-15.642-0.739c-3.845,0.971-7.529,2.862-10.239,5.756c-3.598,3.842-5.147,9.501-4.009,14.639
										l27.172-2.158c2.383,2.25,4.824,4.539,7.805,5.901c0.875,0.4,1.823,0.72,2.78,0.632c0.957-0.088,1.921-0.672,2.207-1.59
										C409.045,113.733,408.507,112.692,408.197,111.688z"/>
								</g>
							</g>
							<g>
								<g>
									<path style="fill:#FFBE9D;" d="M381.956,98.949l23.172,6.516c2.263,0.3,3.92,2.283,3.815,4.563l-3.611,50.834
										c-0.246,3.473-1.631,6.767-3.94,9.373l-2.43,2.744c-5.541,6.255-15.847,4.914-19.268-2.71
										c-0.239-0.533-0.398-0.996-0.454-1.367c-0.049-0.463-0.15-0.773-0.146-1.163c-0.412-3.982,0.096-7.727,0.096-7.727
										c0.068-4.543,0.118-6.406,0.114-6.363c0,0-9.537-1.845-11.19-14.396c-0.822-6.242-0.239-16.425,0.507-24.741
										C369.293,107.028,374.505,97.96,381.956,98.949z"/>
								</g>
							</g>
							<g>
								<g>
									<g>
										<g>
											<g>
												<g>
													<g>
														<g>
															<g>
																<g>
																	<g>
																		<g>
																			<g>
																				<g>
																					<g>
																						<g>
																							<g>
																								<g>
																									<path style="fill:#263238;" d="M371.572,124.291c-0.053,0.846,0.62,1.588,1.503,1.658
																										c0.88,0.071,1.638-0.555,1.691-1.401c0.052-0.846-0.621-1.588-1.501-1.659
																										C372.382,122.818,371.624,123.445,371.572,124.291z"/>
																								</g>
																							</g>
																						</g>
																					</g>
																				</g>
																			</g>
																		</g>
																	</g>
																</g>
															</g>
														</g>
													</g>
												</g>
											</g>
										</g>
										<g>
											<g>
												<g>
													<g>
														<g>
															<g>
																<g>
																	<g>
																		<g>
																			<g>
																				<g>
																					<g>
																						<g>
																							<g>
																								<g>
																									<g>
																										<path style="fill:#263238;" d="M370.691,119.874c0.193,0.214,1.431-0.652,3.156-0.602
																											c1.723,0.026,2.966,0.947,3.158,0.74c0.095-0.091-0.098-0.473-0.638-0.89
																											c-0.532-0.414-1.447-0.827-2.522-0.851c-1.075-0.023-1.989,0.349-2.519,0.74
																											C370.786,119.404,370.596,119.777,370.691,119.874z"/>
																									</g>
																								</g>
																							</g>
																						</g>
																					</g>
																				</g>
																			</g>
																		</g>
																	</g>
																</g>
															</g>
														</g>
													</g>
												</g>
											</g>
										</g>
									</g>
									<g>
										<g>
											<g>
												<g>
													<g>
														<g>
															<g>
																<g>
																	<g>
																		<g>
																			<g>
																				<g>
																					<g>
																						<g>
																							<g>
																								<g>
																									<path style="fill:#263238;" d="M387.018,124.914c-0.053,0.846,0.62,1.587,1.502,1.658
																										c0.88,0.071,1.638-0.555,1.691-1.401c0.053-0.846-0.62-1.589-1.501-1.659
																										C387.828,123.441,387.07,124.068,387.018,124.914z"/>
																								</g>
																							</g>
																						</g>
																					</g>
																				</g>
																			</g>
																		</g>
																	</g>
																</g>
															</g>
														</g>
													</g>
												</g>
											</g>
										</g>
										<g>
											<g>
												<g>
													<g>
														<g>
															<g>
																<g>
																	<g>
																		<g>
																			<g>
																				<g>
																					<g>
																						<g>
																							<g>
																								<g>
																									<g>
																										<path style="fill:#263238;" d="M387.056,120.524c0.194,0.214,1.433-0.652,3.157-0.601
																											c1.723,0.025,2.966,0.946,3.159,0.74c0.094-0.091-0.096-0.474-0.639-0.89
																											c-0.532-0.414-1.447-0.827-2.521-0.852c-1.075-0.022-1.989,0.349-2.519,0.74
																											C387.152,120.054,386.961,120.428,387.056,120.524z"/>
																									</g>
																								</g>
																							</g>
																						</g>
																					</g>
																				</g>
																			</g>
																		</g>
																	</g>
																</g>
															</g>
														</g>
													</g>
												</g>
											</g>
										</g>
									</g>
									<g>
										<g>
											<g>
												<g>
													<g>
														<g>
															<g>
																<g>
																	<g>
																		<g>
																			<g>
																				<g>
																					<g>
																						<g>
																							<g>
																								<g>
																									<path style="fill:#263238;" d="M381.038,133.271c0.011-0.098-1.056-0.311-2.788-0.58
																										c-0.439-0.057-0.854-0.156-0.92-0.458c-0.095-0.322,0.102-0.791,0.329-1.298
																										c0.442-1.055,0.905-2.161,1.392-3.319c1.935-4.727,3.349-8.619,3.158-8.695
																										c-0.191-0.076-1.915,3.693-3.851,8.42c-0.466,1.166-0.913,2.277-1.337,3.341
																										c-0.18,0.496-0.482,1.056-0.275,1.723c0.11,0.332,0.427,0.58,0.707,0.663
																										c0.28,0.094,0.528,0.105,0.745,0.124C379.944,133.332,381.029,133.369,381.038,133.271z"/>
																								</g>
																							</g>
																						</g>
																					</g>
																				</g>
																			</g>
																		</g>
																	</g>
																</g>
															</g>
														</g>
													</g>
												</g>
											</g>
										</g>
									</g>
									<g>
										<g>
											<g>
												<g>
													<g>
														<g>
															<g>
																<g>
																	<g>
																		<g>
																			<g>
																				<g>
																					<g>
																						<g>
																							<g>
																								<path style="fill:#EB996E;" d="M379.304,153.65c0,0,8.393,0.766,16.857-4.02c0,0-4.438,8.54-16.917,7.038
																									L379.304,153.65z"/>
																							</g>
																						</g>
																					</g>
																				</g>
																			</g>
																		</g>
																	</g>
																</g>
															</g>
														</g>
													</g>
												</g>
											</g>
										</g>
									</g>
									<g>
										<g>
											<g>
												<g>
													<g>
														<g>
															<g>
																<g>
																	<g>
																		<g>
																			<g>
																				<g>
																					<g>
																						<g>
																							<g>
																								<path style="fill:#EB996E;" d="M381.657,137.447c0.642-0.804,1.741-1.225,2.817-1.08
																									c0.746,0.101,1.493,0.481,1.931,1.103c0.439,0.621,0.511,1.489,0.082,2.059
																									c-0.483,0.642-1.46,0.768-2.276,0.512c-0.817-0.256-1.511-0.817-2.17-1.374
																									c-0.182-0.154-0.368-0.315-0.479-0.523c-0.111-0.208-0.129-0.476,0.02-0.642"/>
																							</g>
																						</g>
																					</g>
																				</g>
																			</g>
																		</g>
																	</g>
																</g>
															</g>
														</g>
													</g>
												</g>
											</g>
										</g>
									</g>
									<g>
										<g>
											<g>
												<g>
													<g>
														<g>
															<g>
																<g>
																	<g>
																		<g>
																			<g>
																				<g>
																					<g>
																						<g>
																							<g>
																								<g>
																									<path style="fill:#263238;" d="M386.082,134.599c-0.28-0.024-0.333,1.848-1.971,3.135
																										c-1.635,1.291-3.625,1.028-3.646,1.289c-0.029,0.117,0.435,0.376,1.276,0.421
																										c0.826,0.05,2.039-0.183,3.041-0.97c1-0.789,1.449-1.865,1.533-2.631
																										C386.407,135.061,386.21,134.592,386.082,134.599z"/>
																								</g>
																							</g>
																						</g>
																					</g>
																				</g>
																			</g>
																		</g>
																	</g>
																</g>
															</g>
														</g>
													</g>
												</g>
											</g>
										</g>
									</g>
								</g>
							</g>
							<g>
								<g>
									<g>
										<g>
											<g>
												<g>
													<g>
														<g>
															<g>
																<g>
																	<g>
																		<g>
																			<g>
																				<g>
																					<path style="fill:#263238;" d="M387.487,115.423c0.157,0.473,1.886,0.297,3.902,0.595
																						c2.024,0.257,3.64,0.893,3.92,0.479c0.125-0.198-0.148-0.647-0.796-1.118
																						c-0.642-0.471-1.674-0.929-2.885-1.097c-1.211-0.165-2.329-0.002-3.074,0.278
																						C387.804,114.84,387.42,115.199,387.487,115.423z"/>
																				</g>
																			</g>
																		</g>
																	</g>
																</g>
															</g>
														</g>
													</g>
												</g>
											</g>
										</g>
									</g>
								</g>
							</g>
							<g>
								<g>
									<g>
										<g>
											<g>
												<g>
													<g>
														<g>
															<g>
																<g>
																	<g>
																		<g>
																			<g>
																				<g>
																					<path style="fill:#263238;" d="M371.392,112.344c0.293,0.399,1.492,0.025,2.921,0.043
																						c1.43-0.031,2.632,0.333,2.921-0.069c0.128-0.196-0.053-0.593-0.572-0.978
																						c-0.511-0.383-1.375-0.709-2.357-0.705c-0.982,0.005-1.843,0.338-2.35,0.725
																						C371.44,111.75,371.264,112.149,371.392,112.344z"/>
																				</g>
																			</g>
																		</g>
																	</g>
																</g>
															</g>
														</g>
													</g>
												</g>
											</g>
										</g>
									</g>
								</g>
							</g>
							<g>
								<g>
									<path style="fill:#263238;" d="M412.741,108.341c-1.968-7.315-11.966-17.761-19.539-17.577l-12.383,6.682
										c0.543,4.141,3.552,7.862,7.488,9.258c2.102,0.746,4.66,1.041,5.844,2.932c1.209,1.93,0.329,4.621,1.445,6.606
										c1.548,2.751,6.117,2.832,7.238,5.783c0.49,1.289,0.135,2.787,0.648,4.067c0.683,1.706,4.817,4.017,6.592,3.542
										s1.916-3.454,2.559-4.99c1.099-2.623,0.759-4.024,0.505-5.529C412.537,115.552,413.68,111.831,412.741,108.341z"/>
								</g>
							</g>
							<g>
								<g>
									<g>
										<g>
											<g>
												<path style="fill:#FFBE9D;" d="M404.845,130.874c0.027-0.931,1.161-3.096,2.084-3.216
													c2.465-0.317,6.884-0.003,6.759,6.232c-0.17,8.523-8.692,6.594-8.702,6.349
													C404.978,140.049,404.752,134.088,404.845,130.874z"/>
											</g>
										</g>
									</g>
								</g>
							</g>
							<g>
								<g>
									<g>
										<g>
											<g>
												<g>
													<path style="fill:#EB996E;" d="M407.654,137.063c0.038-0.026,0.146,0.107,0.395,0.227
														c0.243,0.117,0.662,0.203,1.11,0.045c0.907-0.312,1.694-1.727,1.766-3.262c0.037-0.776-0.111-1.517-0.373-2.135
														c-0.248-0.629-0.642-1.072-1.094-1.161c-0.449-0.114-0.775,0.151-0.884,0.389c-0.119,0.236-0.068,0.408-0.114,0.421
														c-0.024,0.021-0.18-0.146-0.104-0.496c0.039-0.169,0.143-0.368,0.346-0.528c0.208-0.162,0.51-0.241,0.826-0.201
														c0.656,0.059,1.236,0.675,1.524,1.352c0.325,0.681,0.509,1.516,0.467,2.386c-0.089,1.716-1,3.306-2.24,3.637
														c-0.602,0.144-1.099-0.046-1.353-0.253C407.665,137.27,407.624,137.078,407.654,137.063z"/>
												</g>
											</g>
										</g>
									</g>
								</g>
							</g>
						</g>
						<g>
							<g>
								<path style="fill:#FF725E;" d="M419.72,120.158c0.06,0.014,0.35-0.936,0.485-2.53c0.138-1.589,0.048-3.828-0.577-6.197
									c-0.633-2.368-1.665-4.357-2.574-5.668c-0.907-1.317-1.63-1.997-1.676-1.956c-0.164,0.1,2.502,3.11,3.704,7.768
									C420.349,116.216,419.528,120.152,419.72,120.158z"/>
							</g>
						</g>
						<g>
							<path style="fill:#263238;" d="M383.457,95.038c-1.009,3.409-6.558,7.501-9.042,10.044c-4.74,4.851-5.621,5.554-6.579,21.042
								c-1.82-4.104-3.008-11.146-2.555-15.612c0.453-4.467,2.395-8.844,5.719-11.862C374.322,95.631,379.065,94.105,383.457,95.038
								"/>
						</g>
					</g>
					<g>
						<path style="fill:#455A64;" d="M417.081,108.513c0.005,0.035-0.517,0.127-1.468,0.264c-0.475,0.075-1.058,0.151-1.74,0.188
							c-0.681,0.044-1.456,0.127-2.316,0.116c-1.719,0.051-3.771-0.055-6.03-0.332c-2.254-0.312-4.713-0.814-7.225-1.589
							c-2.506-0.8-4.811-1.792-6.84-2.824c-2.012-1.064-3.757-2.149-5.139-3.173c-0.712-0.482-1.301-0.993-1.835-1.418
							c-0.538-0.42-0.974-0.815-1.32-1.148c-0.702-0.656-1.077-1.029-1.054-1.055c0.024-0.025,0.445,0.299,1.183,0.906
							c0.365,0.308,0.816,0.679,1.367,1.075c0.547,0.401,1.146,0.888,1.866,1.348c1.397,0.978,3.143,2.02,5.145,3.049
							c2.018,0.998,4.302,1.965,6.779,2.756c2.484,0.766,4.91,1.276,7.137,1.61c2.231,0.298,4.259,0.441,5.965,0.436
							c0.853,0.034,1.623-0.024,2.301-0.04c0.679-0.01,1.261-0.056,1.737-0.101C416.546,108.505,417.076,108.479,417.081,108.513z"
							/>
					</g>
					<g>
						<path style="fill:#455A64;" d="M417.569,114.665c0.004,0.035-0.352,0.096-1.001,0.177c-0.648,0.089-1.594,0.151-2.763,0.169
							c-2.338,0.041-5.592-0.224-9.057-1.136c-3.463-0.922-6.423-2.302-8.434-3.494c-1.008-0.594-1.798-1.117-2.317-1.514
							c-0.524-0.391-0.803-0.62-0.783-0.649c0.051-0.073,1.235,0.751,3.275,1.85c2.036,1.101,4.974,2.408,8.389,3.317
							c3.416,0.899,6.615,1.217,8.93,1.267C416.124,114.708,417.561,114.577,417.569,114.665z"/>
					</g>
				</g>
				<g>
					<path style="fill:#455A64;" d="M419.703,115.016c0.029-0.004,0.125,0.456,0.204,1.298c0.088,0.842,0.135,2.065,0.12,3.576
						c-0.019,1.511-0.11,3.311-0.342,5.298c-0.246,1.983-0.576,4.17-1.286,6.387c-1.485,4.471-4.596,7.673-7.217,9.197
						c-1.31,0.782-2.463,1.226-3.264,1.495c-0.802,0.27-1.261,0.367-1.27,0.339c-0.013-0.04,0.424-0.203,1.198-0.528
						c0.772-0.324,1.887-0.814,3.142-1.618c1.261-0.789,2.623-1.95,3.853-3.484c1.191-1.56,2.424-3.38,3.062-5.559
						c0.694-2.163,1.037-4.327,1.306-6.287c0.255-1.966,0.384-3.75,0.45-5.249c0.062-1.499,0.07-2.715,0.045-3.555
						C419.688,115.485,419.661,115.02,419.703,115.016z"/>
				</g>
			</g>
			<g>
				<g>
					<path style="fill:#FFBE9D;" d="M302.659,164.202l24.719,25.028c3.253-0.75,43.142-24.596,43.142-24.596l6.305,30.682
						c0,0-40.824,18.768-52.059,16.491c-1.834-0.372-4.852-0.606-6.743-3.037c-8.987-11.55-26.062-35.875-26.062-35.875
						L302.659,164.202z"/>
				</g>
			</g>
			<g>
				<g>
					<g>
						<g>
							<g>
								<polygon style="fill:#FFBE9D;" points="335.077,393.594 347.279,420.04 366.969,410.943 354.348,378.213 								"/>
							</g>
						</g>
					</g>
				</g>
				<g>
					<g>
						<g>
							<g>
								<g>
									<g>
										<g>
											<g>
												<g>
													<g>
														<g>
															<g>
																<g>
																	<g>
																		<path style="fill:#455A64;" d="M344.973,418.275l7.129,13.595c0,0-18.249,18.869-16.535,23.087l42.9-20.569
																			l-11.786-27.269L344.973,418.275z"/>
																	</g>
																</g>
															</g>
														</g>
													</g>
												</g>
											</g>
										</g>
									</g>
								</g>
							</g>
							<g>
								<g>
									<g>
										<g>
											<g>
												<g>
													<g>
														<g>
															<g>
																<g>
																	<g>
																		<g>
																			<path style="fill:#E0E0E0;" d="M364.477,423.651c0.939-0.171,1.96,0.487,2.17,1.418
																				c0.209,0.931-0.451,1.976-1.387,2.163c-0.936,0.188-2.186-0.565-2.29-1.514c-0.104-0.949,0.739-2.133,1.692-2.09
																				"/>
																		</g>
																	</g>
																</g>
															</g>
														</g>
													</g>
												</g>
											</g>
										</g>
									</g>
								</g>
							</g>
							<g style="opacity:0.6;">
								<g>
									<g>
										<g>
											<g>
												<g>
													<g>
														<g>
															<g>
																<g>
																	<g>
																		<path style="fill:#FFFFFF;" d="M378.467,434.388l-1.785-3.419l-40.464,21c0,0-1.512,1.747-0.651,2.989
																			L378.467,434.388z"/>
																	</g>
																</g>
															</g>
														</g>
													</g>
												</g>
											</g>
										</g>
									</g>
								</g>
							</g>
							<g>
								<g>
									<g>
										<g>
											<g>
												<g>
													<g>
														<g>
															<g>
																<g>
																	<g>
																		<g>
																			<path style="fill:#263238;" d="M351.302,431.985c0.107,0.207,1.2-0.201,2.554-0.021
																				c1.358,0.144,2.325,0.797,2.478,0.621c0.173-0.133-0.739-1.236-2.382-1.424
																				C352.311,430.957,351.164,431.815,351.302,431.985z"/>
																		</g>
																	</g>
																</g>
															</g>
														</g>
													</g>
												</g>
											</g>
										</g>
									</g>
								</g>
							</g>
							<g>
								<g>
									<g>
										<g>
											<g>
												<g>
													<g>
														<g>
															<g>
																<g>
																	<g>
																		<g>
																			<path style="fill:#263238;" d="M347.695,436.004c0.049,0.226,1.127,0.147,2.264,0.692
																				c1.152,0.512,1.791,1.384,1.995,1.274c0.213-0.061-0.231-1.358-1.656-2.008
																				C348.878,435.298,347.604,435.802,347.695,436.004z"/>
																		</g>
																	</g>
																</g>
															</g>
														</g>
													</g>
												</g>
											</g>
										</g>
									</g>
								</g>
							</g>
							<g>
								<g>
									<g>
										<g>
											<g>
												<g>
													<g>
														<g>
															<g>
																<g>
																	<g>
																		<g>
																			<path style="fill:#263238;" d="M347.721,442.614c0.212-0.047,0.001-1.233-1.086-2.122
																				c-1.082-0.897-2.287-0.876-2.292-0.659c-0.036,0.229,0.895,0.54,1.777,1.283
																				C347.02,441.839,347.503,442.693,347.721,442.614z"/>
																		</g>
																	</g>
																</g>
															</g>
														</g>
													</g>
												</g>
											</g>
										</g>
									</g>
								</g>
							</g>
							<g>
								<g>
									<g>
										<g>
											<g>
												<g>
													<g>
														<g>
															<g>
																<g>
																	<g>
																		<g>
																			<path style="fill:#263238;" d="M349.256,426.748c0.179,0.149,1.002-0.601,2.224-1.088
																				c1.213-0.512,2.325-0.556,2.348-0.789c0.049-0.21-1.223-0.554-2.655,0.041
																				C349.737,425.495,349.074,426.633,349.256,426.748z"/>
																		</g>
																	</g>
																</g>
															</g>
														</g>
													</g>
												</g>
											</g>
										</g>
									</g>
								</g>
							</g>
						</g>
					</g>
				</g>
				<g>
					<g>
						<g>
							<g>
								<path style="fill:#263238;" d="M334.108,407.96l-30.39-82.629c0,0,0.723-13.734,3.253-18.071
									c2.53-4.337,79.151-29.637,79.151-29.637s19.517-4.699,32.528,0c13.011,4.698,26.232,10.499,24.934,19.621
									c-0.185,1.297-0.532,2.677-1,4.099c-4.341,13.201-16.746,22.081-30.636,22.493l-10.126,1.133l-51.65,9.859
									c-2.308,0.44-3.728,2.781-3.053,5.032l16.685,55.587C363.805,395.447,345.578,404.34,334.108,407.96z"/>
							</g>
						</g>
					</g>
				</g>
				<g>
					<g>
						<g>
							<g>
								<polygon style="fill:#FFBE9D;" points="307.274,350.821 306.548,379.937 328.232,380.467 331.356,345.527 								"/>
							</g>
						</g>
					</g>
				</g>
				<g>
					<g>
						<g>
							<g>
								<g>
									<g>
										<g>
											<g>
												<g>
													<g>
														<g>
															<g>
																<g>
																	<g>
																		<path style="fill:#455A64;" d="M306.548,376.061l-0.895,16.62c0,0-24.704,8.875-25.029,13.416l47.574,0.482
																			l1.463-29.671L306.548,376.061z"/>
																	</g>
																</g>
															</g>
														</g>
													</g>
												</g>
											</g>
										</g>
									</g>
								</g>
							</g>
							<g>
								<g>
									<g>
										<g>
											<g>
												<g>
													<path style="fill:#263238;" d="M305.43,383.309c-0.034-0.001-0.067-0.306,0.028-0.85
														c0.099-0.539,0.346-1.328,0.958-2.163c0.157-0.204,0.314-0.424,0.571-0.625c0.244-0.199,0.666-0.352,1.073-0.217
														c0.202,0.059,0.404,0.224,0.474,0.427c0.076,0.207,0.038,0.41-0.022,0.577c-0.133,0.342-0.332,0.586-0.499,0.868
														c-0.372,0.562-0.679,1.121-1.154,1.753c-0.241,0.323-0.78,0.59-1.273,0.514c-0.485-0.055-0.877-0.266-1.23-0.489
														c-0.685-0.446-1.288-0.953-1.807-1.494c-0.259-0.27-0.496-0.549-0.712-0.832c-0.204-0.28-0.445-0.565-0.535-0.955
														c-0.092-0.376,0.067-0.87,0.543-1.041c0.483-0.156,0.876,0.061,1.145,0.232c0.546,0.406,0.874,0.823,1.207,1.227
														c0.635,0.806,0.985,1.544,1.183,2.059c0.194,0.519,0.24,0.819,0.206,0.828c-0.098,0.037-0.423-1.161-1.711-2.674
														c-0.32-0.359-0.716-0.795-1.16-1.099c-0.226-0.145-0.509-0.238-0.68-0.161c-0.181,0.058-0.281,0.301-0.222,0.535
														c0.056,0.242,0.259,0.502,0.468,0.771c0.209,0.266,0.438,0.528,0.686,0.782c0.497,0.508,1.074,0.988,1.719,1.408
														c0.31,0.2,0.648,0.365,0.963,0.399c0.316,0.035,0.564-0.077,0.772-0.319c0.395-0.515,0.774-1.152,1.139-1.681
														c0.175-0.276,0.386-0.544,0.478-0.775c0.096-0.243,0.043-0.4-0.146-0.468c-0.434-0.161-0.856,0.279-1.149,0.652
														C305.525,382.052,305.541,383.341,305.43,383.309z"/>
												</g>
											</g>
										</g>
									</g>
								</g>
							</g>
							<g>
								<g>
									<g>
										<g>
											<g>
												<g>
													<g>
														<g>
															<g>
																<g>
																	<g>
																		<g>
																			<path style="fill:#E0E0E0;" d="M320.385,390.769c0.918,0.261,1.544,1.303,1.321,2.231
																				c-0.223,0.928-1.277,1.574-2.2,1.329c-0.922-0.245-1.712-1.472-1.387-2.37c0.326-0.897,1.605-1.587,2.441-1.128"
																				/>
																		</g>
																	</g>
																</g>
															</g>
														</g>
													</g>
												</g>
											</g>
										</g>
									</g>
								</g>
							</g>
							<g style="opacity:0.6;">
								<g>
									<g>
										<g>
											<g>
												<g>
													<g>
														<g>
															<g>
																<g>
																	<g>
																		<path style="fill:#FFFFFF;" d="M328.199,406.579l-0.092-3.856l-45.579,0.98c0,0-2.127,0.9-1.903,2.394
																			L328.199,406.579z"/>
																	</g>
																</g>
															</g>
														</g>
													</g>
												</g>
											</g>
										</g>
									</g>
								</g>
							</g>
							<g>
								<g>
									<g>
										<g>
											<g>
												<g>
													<g>
														<g>
															<g>
																<g>
																	<g>
																		<g>
																			<path style="fill:#263238;" d="M304.885,392.431c0.005,0.233,1.166,0.349,2.301,1.108
																				c1.155,0.729,1.735,1.741,1.949,1.651c0.215-0.043-0.118-1.435-1.509-2.329
																				C306.244,391.955,304.837,392.217,304.885,392.431z"/>
																		</g>
																	</g>
																</g>
															</g>
														</g>
													</g>
												</g>
											</g>
										</g>
									</g>
								</g>
							</g>
							<g>
								<g>
									<g>
										<g>
											<g>
												<g>
													<g>
														<g>
															<g>
																<g>
																	<g>
																		<g>
																			<path style="fill:#263238;" d="M299.874,394.444c-0.055,0.224,0.947,0.63,1.726,1.62
																				c0.808,0.968,0.996,2.032,1.228,2.024c0.218,0.039,0.393-1.32-0.6-2.533
																				C301.247,394.334,299.882,394.223,299.874,394.444z"/>
																		</g>
																	</g>
																</g>
															</g>
														</g>
													</g>
												</g>
											</g>
										</g>
									</g>
								</g>
							</g>
							<g>
								<g>
									<g>
										<g>
											<g>
												<g>
													<g>
														<g>
															<g>
																<g>
																	<g>
																		<g>
																			<path style="fill:#263238;" d="M296.98,400.388c0.21,0.052,0.546-1.106-0.038-2.384
																				c-0.575-1.283-1.665-1.796-1.765-1.603c-0.133,0.19,0.565,0.879,1.028,1.936
																				C296.693,399.382,296.749,400.362,296.98,400.388z"/>
																		</g>
																	</g>
																</g>
															</g>
														</g>
													</g>
												</g>
											</g>
										</g>
									</g>
								</g>
							</g>
							<g>
								<g>
									<g>
										<g>
											<g>
												<g>
													<g>
														<g>
															<g>
																<g>
																	<g>
																		<g>
																			<path style="fill:#263238;" d="M305.361,386.829c0.095,0.213,1.164-0.097,2.476,0.006
																				c1.314,0.076,2.332,0.527,2.455,0.329c0.136-0.167-0.852-1.036-2.4-1.135
																				C306.346,385.917,305.249,386.645,305.361,386.829z"/>
																		</g>
																	</g>
																</g>
															</g>
														</g>
													</g>
												</g>
											</g>
										</g>
									</g>
								</g>
							</g>
						</g>
					</g>
				</g>
				<g>
					<g>
						<g>
							<g>
								<path style="fill:#263238;" d="M319.936,269.986c0,0-12.991-1.039-14.437,13.057c-1.446,14.096-8.23,79.429-8.23,79.429
									l35.725,2.977l4.698-67.224l48.431-20.601C386.122,277.623,328.61,268.179,319.936,269.986z"/>
							</g>
						</g>
					</g>
				</g>
				<g>
					<g>
						<g>
							<g>
								<path style="fill:#263238;" d="M373.484,250.965c0,0-7.885,22.106-6.383,24.57c1.502,2.464,21.777,12.601,21.777,12.601
									l50.734,19.485c0,0,5.211-8.289,5.211-21.021s-17.647-35.635-17.647-35.635H373.484z"/>
							</g>
						</g>
					</g>
				</g>
				<g>
					<g>
						<g>
							<g>
								<g>
									<path style="fill:#455A64;" d="M388.522,276.495c0.003,0.008-0.077,0.051-0.238,0.128c-0.185,0.086-0.423,0.196-0.72,0.333
										c-0.669,0.298-1.608,0.715-2.81,1.25c-2.491,1.085-6.068,2.643-10.546,4.594c-9.049,3.895-21.733,9.355-36.41,15.673
										l0.164-0.231c-0.461,6.64-0.958,13.812-1.473,21.232c-1.234,17.345-2.372,33.337-3.272,45.989l-0.016,0.229l-0.228-0.02
										c-9.234-0.81-16.811-1.475-22.117-1.941c-2.609-0.244-4.658-0.435-6.09-0.569c-0.674-0.07-1.202-0.125-1.592-0.165
										c-0.359-0.041-0.543-0.068-0.542-0.079c0.001-0.012,0.187-0.007,0.548,0.011c0.391,0.025,0.921,0.058,1.597,0.1
										c1.435,0.105,3.487,0.256,6.1,0.447c5.31,0.419,12.893,1.017,22.134,1.747l-0.244,0.209
										c0.869-12.655,1.966-28.65,3.157-45.997c0.522-7.419,1.027-14.591,1.495-21.23l0.012-0.166l0.153-0.065
										c14.709-6.243,27.42-11.639,36.488-15.488c4.505-1.889,8.103-3.398,10.608-4.448c1.217-0.499,2.168-0.889,2.845-1.167
										c0.305-0.12,0.549-0.216,0.739-0.29C388.432,276.517,388.519,276.488,388.522,276.495z"/>
								</g>
							</g>
						</g>
					</g>
				</g>
				<g>
					<g>
						<g>
							<g>
								<g>
									<path style="fill:#455A64;" d="M428.871,278.707c-0.013,0.037-0.52-0.104-1.424-0.389c-1.008-0.325-2.289-0.738-3.82-1.232
										c-3.223-1.023-7.695-2.448-12.784-3.23c-5.089-0.785-9.798-0.543-13.087,0.168c-3.304,0.683-5.203,1.626-5.245,1.519
										c-0.014-0.03,0.445-0.289,1.32-0.668c0.873-0.382,2.178-0.845,3.839-1.243c3.313-0.823,8.106-1.133,13.258-0.337
										c5.15,0.793,9.631,2.29,12.828,3.411c1.6,0.568,2.883,1.055,3.766,1.403C428.403,278.459,428.884,278.67,428.871,278.707z"
										/>
								</g>
							</g>
						</g>
					</g>
				</g>
				<g>
					<g>
						<g>
							<g>
								<g>
									<path style="fill:#455A64;" d="M421.699,267.054c-0.014,0.09-1.699-0.239-4.435-0.025
										c-1.366,0.095-2.992,0.305-4.802,0.514c-1.807,0.215-3.792,0.458-5.845,0.847c-4.122,0.734-7.669,2.171-9.941,3.688
										c-2.294,1.493-3.369,2.854-3.447,2.777c-0.022-0.018,0.21-0.383,0.737-0.954c0.526-0.569,1.341-1.359,2.486-2.155
										c2.26-1.637,5.886-3.171,10.059-3.912c2.08-0.394,4.079-0.623,5.894-0.81c1.813-0.181,3.45-0.35,4.839-0.396
										c1.387-0.05,2.515,0.03,3.283,0.146C421.295,266.892,421.706,267.021,421.699,267.054z"/>
								</g>
							</g>
						</g>
					</g>
				</g>
				<g>
					<g>
						<g>
							<g>
								<g>
									<g>
										<path style="fill:#263238;" d="M347.996,424.031c-0.031,0.013-0.211-0.277-0.393-0.863
											c-0.176-0.583-0.342-1.481-0.205-2.586c0.04-0.273,0.072-0.563,0.205-0.877c0.121-0.307,0.425-0.646,0.856-0.69
											c0.21-0.03,0.472,0.046,0.636,0.218c0.17,0.173,0.236,0.394,0.264,0.587c0.049,0.401-0.009,0.733-0.021,1.089
											c-0.057,0.726-0.058,1.421-0.173,2.263c-0.057,0.43-0.409,0.935-0.889,1.076c-0.463,0.159-0.918,0.121-1.344,0.054
											c-0.834-0.144-1.625-0.385-2.356-0.696c-0.365-0.156-0.715-0.331-1.048-0.518c-0.321-0.19-0.677-0.369-0.951-0.719
											c-0.268-0.336-0.368-0.9-0.025-1.281c0.356-0.37,0.816-0.326,1.142-0.273c0.69,0.165,1.189,0.438,1.686,0.694
											c0.966,0.526,1.644,1.11,2.075,1.538c0.429,0.433,0.619,0.714,0.593,0.737c-0.07,0.08-0.951-0.974-2.852-1.919
											c-0.463-0.217-1.034-0.478-1.581-0.587c-0.275-0.045-0.574-0.014-0.689,0.139c-0.133,0.138-0.104,0.425,0.065,0.633
											c0.169,0.218,0.48,0.387,0.8,0.565c0.319,0.173,0.653,0.335,1.001,0.48c0.696,0.289,1.45,0.514,2.235,0.649
											c0.377,0.063,0.762,0.079,1.061-0.026c0.301-0.104,0.468-0.326,0.536-0.66c0.101-0.69,0.128-1.494,0.195-2.185
											c0.021-0.354,0.079-0.715,0.047-0.986c-0.033-0.285-0.158-0.419-0.361-0.404c-0.468,0.031-0.63,0.657-0.71,1.159
											C347.463,422.731,348.111,424.013,347.996,424.031z"/>
									</g>
								</g>
							</g>
						</g>
					</g>
				</g>
			</g>
			<g>
				<g>
					<g>
						<g>
							<g>
								<path style="fill:#FFBE9D;" d="M372.231,163.869c0,0-5.235,1.669-8.426,7.323c-3.163,5.603-2.319,8.37-1.491,11.68
									c0.827,3.31,2.285,9.882,2.367,9.459C364.762,191.907,372.231,163.869,372.231,163.869z"/>
							</g>
						</g>
					</g>
					<path style="fill:#FF725E;" d="M425.712,173.862c0,0-4.138-9.993-4.971-10.92l-15.283-3.861l-9.552,4.677
						c-2.767,1.355-5.847,2.061-8.915,1.771c-3.424-0.324-6.423-1.702-7.932-4.225l0,0l-5.97,1.613c0,0-9.481,28.617-9.285,36.538
						c0.196,7.921,3.483,30.415,3.107,34.851c-0.376,4.436,1.167,16.66,6.573,16.66s53.692,0,53.692,0s12.126-3.353,12.652-10.64
						C440.355,233.038,425.712,173.862,425.712,173.862z"/>
					<g>
						<g>
							<g>
								<g>
									<g>
										<path style="fill:#263238;" d="M408.598,217.277c0.021,0.028-0.289,0.311-0.9,0.761c-0.612,0.448-1.543,1.042-2.779,1.619
											c-1.232,0.58-2.79,1.104-4.583,1.375c-1.79,0.252-3.82,0.238-5.859-0.253c-4.12-0.957-7.219-3.386-9.115-5.288
											c-0.958-0.965-1.643-1.827-2.095-2.434c-0.44-0.617-0.659-0.974-0.629-0.996c0.081-0.064,1.055,1.304,3.003,3.141
											c1.937,1.801,4.992,4.104,8.965,5.025c3.967,0.96,7.73,0.112,10.151-0.936
											C407.218,218.245,408.535,217.183,408.598,217.277z"/>
									</g>
								</g>
							</g>
						</g>
					</g>
					<g style="opacity:0.3;">
						<g>
							<g>
								<g>
									<g>
										<path d="M383.535,213.298c0.408,4.053,2.347,7.991,5.516,10.551c3.169,2.56,7.573,3.624,11.49,2.504
											c3.917-1.12,7.169-4.509,7.847-8.526c-2.761,1.258-5.567,2.529-8.568,2.983c-6.396,0.968-13.226-2.257-16.544-7.809
											c0.146,0.154,0.292,0.308,0.437,0.462"/>
									</g>
								</g>
							</g>
						</g>
					</g>
					<g style="opacity:0.3;">
						<path d="M428.722,222.005c-5.673-11.003-11.67-22.396-21.591-29.8l0,0c2.198,7.529,4.168,14.593,6.603,22.048
							c0.689,2.111,1.772,4.563,3.965,4.913c0.807,0.129,1.643-0.069,2.444,0.091c1.372,0.274,2.321,1.506,3.059,2.695
							c0.738,1.189,1.473,2.496,2.73,3.11c1.258,0.614,3.176,0.027,3.293-1.367C429.276,223.101,428.995,222.535,428.722,222.005z"
							/>
					</g>
					<g>
						<path style="fill:#FF725E;" d="M444.823,201.038l-27.057,12.685c0,0-11.976-23.995-12.924-27.33
							c-0.948-3.335-2.979-9.021,0.072-15.977s11.139-9.134,16.244-7.342C433.087,167.261,444.823,201.038,444.823,201.038z"/>
					</g>
					<g>
						<path style="fill:#FF725E;" d="M366.38,200.953c-1.263,0-15.769,7.588-15.769,7.588l-9.646-27.824
							c12.468-6.76,26.321-16.3,33.539-18.239l-6.272,21.767L366.38,200.953z"/>
					</g>
					<g>
						<g>
							<g>
								<g>
									<g>
										<path style="fill:#FFBE9D;" d="M434.486,179.232"/>
									</g>
									<g>
										<path style="fill:#FFBE9D;" d="M420.42,212.001c5.124,8.419,8.699,13.262,8.699,13.262l-45.952,27.986l5.355,12.438
											l55.857-22.99c3.78-1.556,6.732-4.759,7.671-8.738c0.404-1.715,0.476-3.621-0.129-5.586l-9.503-26.227L420.42,212.001z"/>
									</g>
								</g>
							</g>
						</g>
					</g>
					<g>
						<g>
							<g>
								<g>
									<g>
										<g>
											<path style="fill:#EB996E;" d="M440.297,229.539c-0.108,0.143-2.279-1.682-5.5-2.857
												c-3.209-1.211-6.044-1.244-6.033-1.423c-0.027-0.134,2.904-0.36,6.23,0.891
												C438.33,227.372,440.405,229.456,440.297,229.539z"/>
										</g>
									</g>
								</g>
							</g>
						</g>
					</g>
					<g>
						<g>
							<path style="fill:#263238;" d="M368.046,176.206c-0.04-0.015-0.313,0.441-0.775,1.285c-0.435,0.851-0.989,2.113-1.494,3.71
								c-1.061,3.188-1.884,7.712-2.272,12.728c-0.351,5.021-0.219,9.582,0.154,12.863c0.172,1.641,0.403,2.963,0.596,3.87
								c0.209,0.906,0.344,1.403,0.388,1.396c0.043-0.006-0.01-0.514-0.142-1.425c-0.117-0.912-0.279-2.232-0.392-3.869
								c-0.258-3.271-0.317-7.809,0.032-12.804c0.387-4.99,1.133-9.489,2.073-12.671c0.446-1.595,0.928-2.861,1.289-3.727
								C367.89,176.706,368.086,176.221,368.046,176.206z"/>
						</g>
					</g>
					<g>
						<g>
							<g>
								<g>
									<g>
										<path style="fill:#FFBE9D;" d="M347.515,261.771l11.461-5.483l22.367-1.774l1.824-1.266l5.355,12.438
											c0,0-5.863,2.803-8.934,3.053l-18.805-0.57l-9.832,1.033L347.515,261.771z"/>
									</g>
								</g>
							</g>
						</g>
					</g>
					<g>
						<g>
							<path style="fill:#263238;" d="M444.823,201.038c-0.008-0.016-0.192,0.049-0.537,0.189c-0.396,0.168-0.891,0.378-1.498,0.636
								c-1.357,0.603-3.209,1.424-5.468,2.427c-4.656,2.123-10.975,5.004-17.958,8.187c-0.75,0.346-1.493,0.688-2.19,1.01
								l0.342,0.122c-3.122-6.435-5.859-12.192-7.796-16.347c-0.936-2.033-1.7-3.693-2.262-4.914
								c-0.246-0.536-0.447-0.976-0.61-1.33c-0.143-0.302-0.226-0.457-0.242-0.451c-0.016,0.006,0.036,0.174,0.15,0.489
								c0.116,0.314,0.285,0.778,0.524,1.368c0.473,1.183,1.193,2.885,2.118,4.984c1.855,4.198,4.537,9.984,7.651,16.428
								l0.111,0.229l0.231-0.107c0.698-0.321,1.441-0.663,2.191-1.008c6.958-3.237,13.255-6.167,17.894-8.325
								c2.23-1.065,4.059-1.938,5.399-2.578c0.59-0.294,1.072-0.533,1.457-0.725C444.661,201.152,444.831,201.054,444.823,201.038z"
								/>
						</g>
					</g>
				</g>
				<g>
					<path style="fill:#263238;" d="M419.926,163.074c0.003,0.096-1.268,0.061-3.226,0.531c-1.944,0.455-4.585,1.541-6.845,3.608
						c-2.259,2.069-3.574,4.605-4.199,6.501c-0.641,1.909-0.718,3.178-0.814,3.166c-0.032-0.002-0.045-0.32,0.003-0.891
						c0.046-0.571,0.177-1.395,0.46-2.385c0.548-1.969,1.855-4.628,4.199-6.775c2.345-2.145,5.108-3.211,7.118-3.584
						c1.011-0.194,1.844-0.252,2.417-0.247C419.611,163.001,419.926,163.042,419.926,163.074z"/>
				</g>
				<g>
					<path style="fill:#FFFFFF;" d="M435.481,180.501c0.034,0.01-0.094,0.434-0.359,1.198c-0.215,0.784-0.756,1.83-1.541,3.053
						c-0.23,0.286-0.468,0.583-0.715,0.891c-0.125,0.155-0.253,0.313-0.383,0.474c-0.144,0.148-0.306,0.283-0.463,0.428
						c-0.32,0.288-0.649,0.585-0.987,0.89c-0.37,0.265-0.765,0.52-1.163,0.791c-1.627,1.021-3.586,1.868-5.707,2.456
						c-4.245,1.184-8.172,1.747-10.898,2.595c-2.745,0.787-4.265,1.724-4.319,1.629c-0.018-0.031,0.357-0.265,1.059-0.666
						c0.344-0.218,0.796-0.414,1.326-0.633c0.269-0.114,0.552-0.233,0.847-0.357c0.312-0.104,0.637-0.212,0.976-0.324
						c2.733-0.948,6.674-1.575,10.861-2.744c2.095-0.58,4.005-1.395,5.598-2.363c0.389-0.255,0.769-0.505,1.14-0.748
						c0.332-0.288,0.656-0.568,0.97-0.841c0.155-0.137,0.316-0.264,0.459-0.404c0.129-0.152,0.256-0.302,0.38-0.449
						c0.248-0.291,0.488-0.572,0.72-0.843c0.798-1.161,1.381-2.16,1.65-2.912C435.252,180.893,435.447,180.49,435.481,180.501z"/>
				</g>
				<g>
					<path style="fill:#FFFFFF;" d="M431.916,174.128c0.001,0.053-0.438-0.018-1.126,0.267c-0.691,0.275-1.54,0.979-2.246,2.128
						c-0.368,0.564-0.727,1.22-1.207,1.887c-0.489,0.659-1.095,1.303-1.82,1.873c-1.447,1.152-3.321,1.983-5.325,2.586
						c-2.01,0.612-3.97,0.961-5.709,1.392c-1.745,0.417-3.281,0.91-4.509,1.464c-2.475,1.111-3.581,2.459-3.651,2.376
						c-0.013-0.012,0.048-0.099,0.178-0.254c0.128-0.158,0.326-0.381,0.612-0.639c0.562-0.524,1.464-1.206,2.703-1.816
						c1.238-0.611,2.795-1.15,4.55-1.597c1.753-0.461,3.702-0.824,5.675-1.425c1.97-0.593,3.785-1.386,5.182-2.466
						c0.7-0.535,1.287-1.136,1.768-1.753c0.473-0.624,0.852-1.27,1.248-1.834c0.764-1.156,1.725-1.886,2.481-2.112
						c0.375-0.123,0.685-0.145,0.889-0.135C431.814,174.079,431.918,174.114,431.916,174.128z"/>
				</g>
				<g>
					<path style="fill:#FFFFFF;" d="M410.102,198.177c0.007,0.017-0.14,0.099-0.426,0.24c-0.344,0.161-0.761,0.357-1.264,0.592
						c-1.104,0.5-2.71,1.208-4.734,1.992c-2.026,0.771-4.472,1.646-7.289,2.258c-2.807,0.616-6.013,0.975-9.336,0.55
						c-3.339-0.399-6.306-1.614-8.99-2.57c-2.68-0.994-5.139-1.741-7.273-2.009c-2.129-0.287-3.882-0.145-5.053,0.111
						c-1.175,0.251-1.792,0.524-1.811,0.477c-0.007-0.016,0.142-0.093,0.435-0.224c0.293-0.13,0.738-0.299,1.329-0.45
						c1.177-0.322,2.968-0.525,5.143-0.279c2.179,0.225,4.696,0.951,7.39,1.923c2.701,0.936,5.641,2.119,8.893,2.505
						c3.246,0.416,6.393,0.08,9.17-0.502c2.787-0.579,5.228-1.41,7.261-2.134c2.031-0.737,3.656-1.391,4.783-1.834
						c0.518-0.2,0.947-0.366,1.301-0.502C409.934,198.21,410.095,198.161,410.102,198.177z"/>
				</g>
				<g>
					<path style="fill:#FFFFFF;" d="M365.707,188.976c-0.01-0.015,0.111-0.108,0.354-0.273c0.24-0.166,0.62-0.384,1.141-0.586
						c1.028-0.434,2.679-0.733,4.668-0.476c1.992,0.228,4.271,1.073,6.551,2.363c2.301,1.247,4.682,2.878,7.462,3.938
						c2.792,1.029,5.662,1.322,8.243,1.239c2.589-0.073,4.907-0.449,6.836-0.82c1.931-0.375,3.484-0.741,4.56-0.986
						c1.075-0.245,1.673-0.37,1.683-0.335c0.009,0.034-0.571,0.225-1.632,0.531c-1.061,0.305-2.604,0.727-4.536,1.15
						c-1.931,0.42-4.264,0.839-6.895,0.939c-2.621,0.11-5.567-0.172-8.441-1.231c-2.863-1.094-5.247-2.751-7.512-4.006
						c-2.246-1.3-4.434-2.147-6.368-2.417c-1.926-0.295-3.526-0.063-4.548,0.301C366.24,188.661,365.736,189.023,365.707,188.976z"
						/>
				</g>
				<g>
					<path style="fill:#FFFFFF;" d="M360.558,203.224c-0.004,0.017-0.11,0.005-0.309-0.035c-0.203-0.03-0.489-0.12-0.853-0.257
						c-0.721-0.281-1.708-0.895-2.626-1.948c-0.918-1.05-1.739-2.532-2.241-4.302c-0.503-1.776-0.641-3.791-0.72-5.873
						c-0.077-2.083-0.127-4.064-0.462-5.812c-0.333-1.747-0.925-3.26-1.634-4.397c-1.43-2.325-3.183-2.9-3.101-2.994
						c0.007-0.016,0.109,0.014,0.298,0.089c0.194,0.066,0.46,0.203,0.796,0.399c0.664,0.397,1.54,1.148,2.317,2.306
						c0.777,1.156,1.426,2.708,1.795,4.503c0.371,1.801,0.434,3.807,0.511,5.885c0.078,2.074,0.203,4.052,0.662,5.766
						c0.459,1.712,1.215,3.156,2.06,4.192c0.846,1.039,1.754,1.672,2.428,2C360.155,203.08,360.572,203.172,360.558,203.224z"/>
				</g>
				<g>
					<path style="fill:#FFFFFF;" d="M363.3,196.118c-0.07,0.025-0.592-1.23-1.442-3.254c-0.913-2.151-2.07-4.879-3.35-7.896
						c-1.336-3.072-2.576-5.838-3.529-7.813c-0.94-1.981-1.612-3.157-1.547-3.199c0.03-0.019,0.233,0.255,0.573,0.771
						c0.332,0.52,0.783,1.29,1.302,2.262c1.042,1.942,2.339,4.693,3.678,7.772c1.33,3.081,2.454,5.904,3.215,7.968
						c0.381,1.032,0.673,1.873,0.861,2.459C363.248,195.775,363.334,196.105,363.3,196.118z"/>
				</g>
			</g>
			<g>
				<g>
					<g>
						<path style="fill:#E0E0E0;" d="M283.039,217.623l64.478,0.524c2.092,0,4.09,1.005,4.404,3.073l7.047,46.995h33.212
							c1.069,0,1.936,0.867,1.936,1.936c0,1.069-0.867,1.936-1.936,1.936h-32.631h-6.194h-67.249l-7.249-49.599
							C278.469,219.928,280.45,217.623,283.039,217.623z"/>
					</g>
					<g>
						<g>
							<path style="fill:#263238;" d="M283.039,217.623c0,0-0.351-0.045-1.016,0.095c-0.645,0.15-1.662,0.549-2.463,1.633
								c-0.399,0.531-0.703,1.24-0.797,2.058c-0.105,0.83,0.133,1.706,0.237,2.652c0.27,1.899,0.581,4.087,0.93,6.545
								c1.419,9.853,3.464,24.052,5.979,41.509l0.025,0.17l0.172,0c27.448,0.016,63.519,0.038,102.908,0.061c0.925,0,1.848,0,2.77,0
								c0.427,0.018,1.022-0.007,1.465-0.279c0.458-0.252,0.814-0.675,0.992-1.164c0.386-0.984-0.075-2.189-1.001-2.678
								c-0.442-0.267-1.031-0.29-1.453-0.273l-1.364,0c-3.633,0.001-7.229,0.001-10.778,0.002
								c-7.099,0.002-14.013,0.005-20.676,0.007l0.248,0.214c-2.536-16.83-4.902-32.53-7.025-46.615
								c-0.073-0.892-0.477-1.857-1.193-2.455c-0.7-0.621-1.586-0.951-2.465-1.088c-0.897-0.136-1.75-0.063-2.6-0.092
								c-0.851-0.006-1.695-0.012-2.532-0.017c-3.348-0.022-6.586-0.044-9.707-0.065c-6.24-0.04-12.011-0.076-17.252-0.109
								c-10.469-0.054-18.814-0.097-24.56-0.126c-2.855-0.005-5.061-0.009-6.57-0.012c-0.737,0.003-1.301,0.006-1.697,0.008
								C283.234,217.609,283.039,217.623,283.039,217.623s0.194,0.016,0.576,0.027c0.396,0.008,0.959,0.02,1.696,0.035
								c1.509,0.022,3.715,0.054,6.57,0.095c5.746,0.064,14.091,0.157,24.559,0.273c5.24,0.052,11.011,0.109,17.251,0.171
								c3.121,0.03,6.359,0.061,9.707,0.092c0.837,0.008,1.681,0.016,2.532,0.024c0.848,0.029,1.721-0.037,2.536,0.093
								c0.82,0.129,1.632,0.439,2.249,0.992c0.634,0.552,0.969,1.321,1.049,2.201c2.102,14.088,4.444,29.791,6.956,46.625
								l0.032,0.214h0.217c6.663,0.002,13.577,0.005,20.676,0.007c3.549,0.001,7.145,0.001,10.778,0.002l1.364,0
								c0.481-0.013,0.84,0.006,1.201,0.208c0.707,0.374,1.059,1.293,0.764,2.043c-0.136,0.372-0.407,0.697-0.757,0.888
								c-0.363,0.206-0.725,0.226-1.211,0.212c-0.921,0-1.845,0-2.77,0c-39.389,0.023-75.46,0.045-102.908,0.061l0.197,0.17
								c-2.587-17.446-4.692-31.637-6.152-41.484c-0.369-2.456-0.697-4.64-0.982-6.537c-0.114-0.95-0.358-1.821-0.263-2.612
								c0.082-0.792,0.367-1.483,0.748-2.005c0.765-1.067,1.751-1.477,2.383-1.644C282.689,217.618,283.042,217.648,283.039,217.623
								z"/>
						</g>
					</g>
				</g>
				<g>
					<circle style="fill:#FFFFFF;" cx="315.162" cy="244.257" r="4.037"/>
				</g>
				<g>
					<g>
						<path style="fill:#263238;" d="M356.355,271.653c-0.091,0.015-2.144-11.952-4.583-26.725
							c-2.441-14.778-4.345-26.767-4.254-26.782c0.091-0.015,2.143,11.949,4.584,26.727
							C354.542,259.647,356.446,271.638,356.355,271.653z"/>
					</g>
				</g>
			</g>
		</g>
	</g>
</g>
<g id="Floor">
	<g>
		<path style="fill:#263238;" d="M33.957,477.961c0-0.144,96.733-0.26,216.033-0.26c119.341,0,216.053,0.117,216.053,0.26
			c0,0.144-96.713,0.26-216.053,0.26C130.691,478.221,33.957,478.104,33.957,477.961z"/>
	</g>
</g>
</svg>
